<?xml version="1.0" encoding="utf-8" standalone="no"?>
<!DOCTYPE svg PUBLIC "-//W3C//DTD SVG 1.1//EN"
  "http://www.w3.org/Graphics/SVG/1.1/DTD/svg11.dtd">
<!-- Created with matplotlib (https://matplotlib.org/) -->
<svg height="345.6pt" version="1.1" viewBox="0 0 460.8 345.6" width="460.8pt" xmlns="http://www.w3.org/2000/svg" xmlns:xlink="http://www.w3.org/1999/xlink">
 <defs>
  <style type="text/css">
*{stroke-linecap:butt;stroke-linejoin:round;}
  </style>
 </defs>
 <g id="figure_1">
  <g id="patch_1">
   <path d="M 0 345.6 
L 460.8 345.6 
L 460.8 0 
L 0 0 
z
" style="fill:#ffffff;"/>
  </g>
  <g id="axes_1">
   <g id="patch_2">
    <path d="M 57.6 307.584 
L 414.72 307.584 
L 414.72 41.472 
L 57.6 41.472 
z
" style="fill:#ffffff;"/>
   </g>
   <g id="matplotlib.axis_1">
    <g id="xtick_1">
     <g id="line2d_1">
      <defs>
       <path d="M 0 0 
L 0 3.5 
" id="m885b1522ea" style="stroke:#000000;stroke-width:0.8;"/>
      </defs>
      <g>
       <use style="stroke:#000000;stroke-width:0.8;" x="61.142492" xlink:href="#m885b1522ea" y="307.584"/>
      </g>
     </g>
     <g id="text_1">
      <!-- 20000 -->
      <defs>
       <path d="M 19.1875 8.296875 
L 53.609375 8.296875 
L 53.609375 0 
L 7.328125 0 
L 7.328125 8.296875 
Q 12.9375 14.109375 22.625 23.890625 
Q 32.328125 33.6875 34.8125 36.53125 
Q 39.546875 41.84375 41.421875 45.53125 
Q 43.3125 49.21875 43.3125 52.78125 
Q 43.3125 58.59375 39.234375 62.25 
Q 35.15625 65.921875 28.609375 65.921875 
Q 23.96875 65.921875 18.8125 64.3125 
Q 13.671875 62.703125 7.8125 59.421875 
L 7.8125 69.390625 
Q 13.765625 71.78125 18.9375 73 
Q 24.125 74.21875 28.421875 74.21875 
Q 39.75 74.21875 46.484375 68.546875 
Q 53.21875 62.890625 53.21875 53.421875 
Q 53.21875 48.921875 51.53125 44.890625 
Q 49.859375 40.875 45.40625 35.40625 
Q 44.1875 33.984375 37.640625 27.21875 
Q 31.109375 20.453125 19.1875 8.296875 
z
" id="DejaVuSans-50"/>
       <path d="M 31.78125 66.40625 
Q 24.171875 66.40625 20.328125 58.90625 
Q 16.5 51.421875 16.5 36.375 
Q 16.5 21.390625 20.328125 13.890625 
Q 24.171875 6.390625 31.78125 6.390625 
Q 39.453125 6.390625 43.28125 13.890625 
Q 47.125 21.390625 47.125 36.375 
Q 47.125 51.421875 43.28125 58.90625 
Q 39.453125 66.40625 31.78125 66.40625 
z
M 31.78125 74.21875 
Q 44.046875 74.21875 50.515625 64.515625 
Q 56.984375 54.828125 56.984375 36.375 
Q 56.984375 17.96875 50.515625 8.265625 
Q 44.046875 -1.421875 31.78125 -1.421875 
Q 19.53125 -1.421875 13.0625 8.265625 
Q 6.59375 17.96875 6.59375 36.375 
Q 6.59375 54.828125 13.0625 64.515625 
Q 19.53125 74.21875 31.78125 74.21875 
z
" id="DejaVuSans-48"/>
      </defs>
      <g transform="translate(45.236242 322.182437)scale(0.1 -0.1)">
       <use xlink:href="#DejaVuSans-50"/>
       <use x="63.623047" xlink:href="#DejaVuSans-48"/>
       <use x="127.246094" xlink:href="#DejaVuSans-48"/>
       <use x="190.869141" xlink:href="#DejaVuSans-48"/>
       <use x="254.492188" xlink:href="#DejaVuSans-48"/>
      </g>
     </g>
    </g>
    <g id="xtick_2">
     <g id="line2d_2">
      <g>
       <use style="stroke:#000000;stroke-width:0.8;" x="132.493036" xlink:href="#m885b1522ea" y="307.584"/>
      </g>
     </g>
     <g id="text_2">
      <!-- 20100 -->
      <defs>
       <path d="M 12.40625 8.296875 
L 28.515625 8.296875 
L 28.515625 63.921875 
L 10.984375 60.40625 
L 10.984375 69.390625 
L 28.421875 72.90625 
L 38.28125 72.90625 
L 38.28125 8.296875 
L 54.390625 8.296875 
L 54.390625 0 
L 12.40625 0 
z
" id="DejaVuSans-49"/>
      </defs>
      <g transform="translate(116.586786 322.182437)scale(0.1 -0.1)">
       <use xlink:href="#DejaVuSans-50"/>
       <use x="63.623047" xlink:href="#DejaVuSans-48"/>
       <use x="127.246094" xlink:href="#DejaVuSans-49"/>
       <use x="190.869141" xlink:href="#DejaVuSans-48"/>
       <use x="254.492188" xlink:href="#DejaVuSans-48"/>
      </g>
     </g>
    </g>
    <g id="xtick_3">
     <g id="line2d_3">
      <g>
       <use style="stroke:#000000;stroke-width:0.8;" x="203.843581" xlink:href="#m885b1522ea" y="307.584"/>
      </g>
     </g>
     <g id="text_3">
      <!-- 20200 -->
      <g transform="translate(187.937331 322.182437)scale(0.1 -0.1)">
       <use xlink:href="#DejaVuSans-50"/>
       <use x="63.623047" xlink:href="#DejaVuSans-48"/>
       <use x="127.246094" xlink:href="#DejaVuSans-50"/>
       <use x="190.869141" xlink:href="#DejaVuSans-48"/>
       <use x="254.492188" xlink:href="#DejaVuSans-48"/>
      </g>
     </g>
    </g>
    <g id="xtick_4">
     <g id="line2d_4">
      <g>
       <use style="stroke:#000000;stroke-width:0.8;" x="275.194125" xlink:href="#m885b1522ea" y="307.584"/>
      </g>
     </g>
     <g id="text_4">
      <!-- 20300 -->
      <defs>
       <path d="M 40.578125 39.3125 
Q 47.65625 37.796875 51.625 33 
Q 55.609375 28.21875 55.609375 21.1875 
Q 55.609375 10.40625 48.1875 4.484375 
Q 40.765625 -1.421875 27.09375 -1.421875 
Q 22.515625 -1.421875 17.65625 -0.515625 
Q 12.796875 0.390625 7.625 2.203125 
L 7.625 11.71875 
Q 11.71875 9.328125 16.59375 8.109375 
Q 21.484375 6.890625 26.8125 6.890625 
Q 36.078125 6.890625 40.9375 10.546875 
Q 45.796875 14.203125 45.796875 21.1875 
Q 45.796875 27.640625 41.28125 31.265625 
Q 36.765625 34.90625 28.71875 34.90625 
L 20.21875 34.90625 
L 20.21875 43.015625 
L 29.109375 43.015625 
Q 36.375 43.015625 40.234375 45.921875 
Q 44.09375 48.828125 44.09375 54.296875 
Q 44.09375 59.90625 40.109375 62.90625 
Q 36.140625 65.921875 28.71875 65.921875 
Q 24.65625 65.921875 20.015625 65.03125 
Q 15.375 64.15625 9.8125 62.3125 
L 9.8125 71.09375 
Q 15.4375 72.65625 20.34375 73.4375 
Q 25.25 74.21875 29.59375 74.21875 
Q 40.828125 74.21875 47.359375 69.109375 
Q 53.90625 64.015625 53.90625 55.328125 
Q 53.90625 49.265625 50.4375 45.09375 
Q 46.96875 40.921875 40.578125 39.3125 
z
" id="DejaVuSans-51"/>
      </defs>
      <g transform="translate(259.287875 322.182437)scale(0.1 -0.1)">
       <use xlink:href="#DejaVuSans-50"/>
       <use x="63.623047" xlink:href="#DejaVuSans-48"/>
       <use x="127.246094" xlink:href="#DejaVuSans-51"/>
       <use x="190.869141" xlink:href="#DejaVuSans-48"/>
       <use x="254.492188" xlink:href="#DejaVuSans-48"/>
      </g>
     </g>
    </g>
    <g id="xtick_5">
     <g id="line2d_5">
      <g>
       <use style="stroke:#000000;stroke-width:0.8;" x="346.544669" xlink:href="#m885b1522ea" y="307.584"/>
      </g>
     </g>
     <g id="text_5">
      <!-- 20400 -->
      <defs>
       <path d="M 37.796875 64.3125 
L 12.890625 25.390625 
L 37.796875 25.390625 
z
M 35.203125 72.90625 
L 47.609375 72.90625 
L 47.609375 25.390625 
L 58.015625 25.390625 
L 58.015625 17.1875 
L 47.609375 17.1875 
L 47.609375 0 
L 37.796875 0 
L 37.796875 17.1875 
L 4.890625 17.1875 
L 4.890625 26.703125 
z
" id="DejaVuSans-52"/>
      </defs>
      <g transform="translate(330.638419 322.182437)scale(0.1 -0.1)">
       <use xlink:href="#DejaVuSans-50"/>
       <use x="63.623047" xlink:href="#DejaVuSans-48"/>
       <use x="127.246094" xlink:href="#DejaVuSans-52"/>
       <use x="190.869141" xlink:href="#DejaVuSans-48"/>
       <use x="254.492188" xlink:href="#DejaVuSans-48"/>
      </g>
     </g>
    </g>
    <g id="text_6">
     <!-- ticks -->
     <defs>
      <path d="M 18.3125 70.21875 
L 18.3125 54.6875 
L 36.8125 54.6875 
L 36.8125 47.703125 
L 18.3125 47.703125 
L 18.3125 18.015625 
Q 18.3125 11.328125 20.140625 9.421875 
Q 21.96875 7.515625 27.59375 7.515625 
L 36.8125 7.515625 
L 36.8125 0 
L 27.59375 0 
Q 17.1875 0 13.234375 3.875 
Q 9.28125 7.765625 9.28125 18.015625 
L 9.28125 47.703125 
L 2.6875 47.703125 
L 2.6875 54.6875 
L 9.28125 54.6875 
L 9.28125 70.21875 
z
" id="DejaVuSans-116"/>
      <path d="M 9.421875 54.6875 
L 18.40625 54.6875 
L 18.40625 0 
L 9.421875 0 
z
M 9.421875 75.984375 
L 18.40625 75.984375 
L 18.40625 64.59375 
L 9.421875 64.59375 
z
" id="DejaVuSans-105"/>
      <path d="M 48.78125 52.59375 
L 48.78125 44.1875 
Q 44.96875 46.296875 41.140625 47.34375 
Q 37.3125 48.390625 33.40625 48.390625 
Q 24.65625 48.390625 19.8125 42.84375 
Q 14.984375 37.3125 14.984375 27.296875 
Q 14.984375 17.28125 19.8125 11.734375 
Q 24.65625 6.203125 33.40625 6.203125 
Q 37.3125 6.203125 41.140625 7.25 
Q 44.96875 8.296875 48.78125 10.40625 
L 48.78125 2.09375 
Q 45.015625 0.34375 40.984375 -0.53125 
Q 36.96875 -1.421875 32.421875 -1.421875 
Q 20.0625 -1.421875 12.78125 6.34375 
Q 5.515625 14.109375 5.515625 27.296875 
Q 5.515625 40.671875 12.859375 48.328125 
Q 20.21875 56 33.015625 56 
Q 37.15625 56 41.109375 55.140625 
Q 45.0625 54.296875 48.78125 52.59375 
z
" id="DejaVuSans-99"/>
      <path d="M 9.078125 75.984375 
L 18.109375 75.984375 
L 18.109375 31.109375 
L 44.921875 54.6875 
L 56.390625 54.6875 
L 27.390625 29.109375 
L 57.625 0 
L 45.90625 0 
L 18.109375 26.703125 
L 18.109375 0 
L 9.078125 0 
z
" id="DejaVuSans-107"/>
      <path d="M 44.28125 53.078125 
L 44.28125 44.578125 
Q 40.484375 46.53125 36.375 47.5 
Q 32.28125 48.484375 27.875 48.484375 
Q 21.1875 48.484375 17.84375 46.4375 
Q 14.5 44.390625 14.5 40.28125 
Q 14.5 37.15625 16.890625 35.375 
Q 19.28125 33.59375 26.515625 31.984375 
L 29.59375 31.296875 
Q 39.15625 29.25 43.1875 25.515625 
Q 47.21875 21.78125 47.21875 15.09375 
Q 47.21875 7.46875 41.1875 3.015625 
Q 35.15625 -1.421875 24.609375 -1.421875 
Q 20.21875 -1.421875 15.453125 -0.5625 
Q 10.6875 0.296875 5.421875 2 
L 5.421875 11.28125 
Q 10.40625 8.6875 15.234375 7.390625 
Q 20.0625 6.109375 24.8125 6.109375 
Q 31.15625 6.109375 34.5625 8.28125 
Q 37.984375 10.453125 37.984375 14.40625 
Q 37.984375 18.0625 35.515625 20.015625 
Q 33.0625 21.96875 24.703125 23.78125 
L 21.578125 24.515625 
Q 13.234375 26.265625 9.515625 29.90625 
Q 5.8125 33.546875 5.8125 39.890625 
Q 5.8125 47.609375 11.28125 51.796875 
Q 16.75 56 26.8125 56 
Q 31.78125 56 36.171875 55.265625 
Q 40.578125 54.546875 44.28125 53.078125 
z
" id="DejaVuSans-115"/>
     </defs>
     <g transform="translate(224.561563 335.860562)scale(0.1 -0.1)">
      <use xlink:href="#DejaVuSans-116"/>
      <use x="39.208984" xlink:href="#DejaVuSans-105"/>
      <use x="66.992188" xlink:href="#DejaVuSans-99"/>
      <use x="121.972656" xlink:href="#DejaVuSans-107"/>
      <use x="179.882812" xlink:href="#DejaVuSans-115"/>
     </g>
    </g>
   </g>
   <g id="matplotlib.axis_2">
    <g id="ytick_1">
     <g id="line2d_6">
      <defs>
       <path d="M 0 0 
L -3.5 0 
" id="m34bcee5238" style="stroke:#000000;stroke-width:0.8;"/>
      </defs>
      <g>
       <use style="stroke:#000000;stroke-width:0.8;" x="57.6" xlink:href="#m34bcee5238" y="263.324475"/>
      </g>
     </g>
     <g id="text_7">
      <!-- 2 -->
      <g transform="translate(44.2375 267.123694)scale(0.1 -0.1)">
       <use xlink:href="#DejaVuSans-50"/>
      </g>
     </g>
    </g>
    <g id="ytick_2">
     <g id="line2d_7">
      <g>
       <use style="stroke:#000000;stroke-width:0.8;" x="57.6" xlink:href="#m34bcee5238" y="217.663398"/>
      </g>
     </g>
     <g id="text_8">
      <!-- 3 -->
      <g transform="translate(44.2375 221.462617)scale(0.1 -0.1)">
       <use xlink:href="#DejaVuSans-51"/>
      </g>
     </g>
    </g>
    <g id="ytick_3">
     <g id="line2d_8">
      <g>
       <use style="stroke:#000000;stroke-width:0.8;" x="57.6" xlink:href="#m34bcee5238" y="172.002322"/>
      </g>
     </g>
     <g id="text_9">
      <!-- 4 -->
      <g transform="translate(44.2375 175.801541)scale(0.1 -0.1)">
       <use xlink:href="#DejaVuSans-52"/>
      </g>
     </g>
    </g>
    <g id="ytick_4">
     <g id="line2d_9">
      <g>
       <use style="stroke:#000000;stroke-width:0.8;" x="57.6" xlink:href="#m34bcee5238" y="126.341245"/>
      </g>
     </g>
     <g id="text_10">
      <!-- 5 -->
      <defs>
       <path d="M 10.796875 72.90625 
L 49.515625 72.90625 
L 49.515625 64.59375 
L 19.828125 64.59375 
L 19.828125 46.734375 
Q 21.96875 47.46875 24.109375 47.828125 
Q 26.265625 48.1875 28.421875 48.1875 
Q 40.625 48.1875 47.75 41.5 
Q 54.890625 34.8125 54.890625 23.390625 
Q 54.890625 11.625 47.5625 5.09375 
Q 40.234375 -1.421875 26.90625 -1.421875 
Q 22.3125 -1.421875 17.546875 -0.640625 
Q 12.796875 0.140625 7.71875 1.703125 
L 7.71875 11.625 
Q 12.109375 9.234375 16.796875 8.0625 
Q 21.484375 6.890625 26.703125 6.890625 
Q 35.15625 6.890625 40.078125 11.328125 
Q 45.015625 15.765625 45.015625 23.390625 
Q 45.015625 31 40.078125 35.4375 
Q 35.15625 39.890625 26.703125 39.890625 
Q 22.75 39.890625 18.8125 39.015625 
Q 14.890625 38.140625 10.796875 36.28125 
z
" id="DejaVuSans-53"/>
      </defs>
      <g transform="translate(44.2375 130.140464)scale(0.1 -0.1)">
       <use xlink:href="#DejaVuSans-53"/>
      </g>
     </g>
    </g>
    <g id="ytick_5">
     <g id="line2d_10">
      <g>
       <use style="stroke:#000000;stroke-width:0.8;" x="57.6" xlink:href="#m34bcee5238" y="80.680169"/>
      </g>
     </g>
     <g id="text_11">
      <!-- 6 -->
      <defs>
       <path d="M 33.015625 40.375 
Q 26.375 40.375 22.484375 35.828125 
Q 18.609375 31.296875 18.609375 23.390625 
Q 18.609375 15.53125 22.484375 10.953125 
Q 26.375 6.390625 33.015625 6.390625 
Q 39.65625 6.390625 43.53125 10.953125 
Q 47.40625 15.53125 47.40625 23.390625 
Q 47.40625 31.296875 43.53125 35.828125 
Q 39.65625 40.375 33.015625 40.375 
z
M 52.59375 71.296875 
L 52.59375 62.3125 
Q 48.875 64.0625 45.09375 64.984375 
Q 41.3125 65.921875 37.59375 65.921875 
Q 27.828125 65.921875 22.671875 59.328125 
Q 17.53125 52.734375 16.796875 39.40625 
Q 19.671875 43.65625 24.015625 45.921875 
Q 28.375 48.1875 33.59375 48.1875 
Q 44.578125 48.1875 50.953125 41.515625 
Q 57.328125 34.859375 57.328125 23.390625 
Q 57.328125 12.15625 50.6875 5.359375 
Q 44.046875 -1.421875 33.015625 -1.421875 
Q 20.359375 -1.421875 13.671875 8.265625 
Q 6.984375 17.96875 6.984375 36.375 
Q 6.984375 53.65625 15.1875 63.9375 
Q 23.390625 74.21875 37.203125 74.21875 
Q 40.921875 74.21875 44.703125 73.484375 
Q 48.484375 72.75 52.59375 71.296875 
z
" id="DejaVuSans-54"/>
      </defs>
      <g transform="translate(44.2375 84.479387)scale(0.1 -0.1)">
       <use xlink:href="#DejaVuSans-54"/>
      </g>
     </g>
    </g>
    <g id="text_12">
     <!-- execution time / s -->
     <defs>
      <path d="M 56.203125 29.59375 
L 56.203125 25.203125 
L 14.890625 25.203125 
Q 15.484375 15.921875 20.484375 11.0625 
Q 25.484375 6.203125 34.421875 6.203125 
Q 39.59375 6.203125 44.453125 7.46875 
Q 49.3125 8.734375 54.109375 11.28125 
L 54.109375 2.78125 
Q 49.265625 0.734375 44.1875 -0.34375 
Q 39.109375 -1.421875 33.890625 -1.421875 
Q 20.796875 -1.421875 13.15625 6.1875 
Q 5.515625 13.8125 5.515625 26.8125 
Q 5.515625 40.234375 12.765625 48.109375 
Q 20.015625 56 32.328125 56 
Q 43.359375 56 49.78125 48.890625 
Q 56.203125 41.796875 56.203125 29.59375 
z
M 47.21875 32.234375 
Q 47.125 39.59375 43.09375 43.984375 
Q 39.0625 48.390625 32.421875 48.390625 
Q 24.90625 48.390625 20.390625 44.140625 
Q 15.875 39.890625 15.1875 32.171875 
z
" id="DejaVuSans-101"/>
      <path d="M 54.890625 54.6875 
L 35.109375 28.078125 
L 55.90625 0 
L 45.3125 0 
L 29.390625 21.484375 
L 13.484375 0 
L 2.875 0 
L 24.125 28.609375 
L 4.6875 54.6875 
L 15.28125 54.6875 
L 29.78125 35.203125 
L 44.28125 54.6875 
z
" id="DejaVuSans-120"/>
      <path d="M 8.5 21.578125 
L 8.5 54.6875 
L 17.484375 54.6875 
L 17.484375 21.921875 
Q 17.484375 14.15625 20.5 10.265625 
Q 23.53125 6.390625 29.59375 6.390625 
Q 36.859375 6.390625 41.078125 11.03125 
Q 45.3125 15.671875 45.3125 23.6875 
L 45.3125 54.6875 
L 54.296875 54.6875 
L 54.296875 0 
L 45.3125 0 
L 45.3125 8.40625 
Q 42.046875 3.421875 37.71875 1 
Q 33.40625 -1.421875 27.6875 -1.421875 
Q 18.265625 -1.421875 13.375 4.4375 
Q 8.5 10.296875 8.5 21.578125 
z
M 31.109375 56 
z
" id="DejaVuSans-117"/>
      <path d="M 30.609375 48.390625 
Q 23.390625 48.390625 19.1875 42.75 
Q 14.984375 37.109375 14.984375 27.296875 
Q 14.984375 17.484375 19.15625 11.84375 
Q 23.34375 6.203125 30.609375 6.203125 
Q 37.796875 6.203125 41.984375 11.859375 
Q 46.1875 17.53125 46.1875 27.296875 
Q 46.1875 37.015625 41.984375 42.703125 
Q 37.796875 48.390625 30.609375 48.390625 
z
M 30.609375 56 
Q 42.328125 56 49.015625 48.375 
Q 55.71875 40.765625 55.71875 27.296875 
Q 55.71875 13.875 49.015625 6.21875 
Q 42.328125 -1.421875 30.609375 -1.421875 
Q 18.84375 -1.421875 12.171875 6.21875 
Q 5.515625 13.875 5.515625 27.296875 
Q 5.515625 40.765625 12.171875 48.375 
Q 18.84375 56 30.609375 56 
z
" id="DejaVuSans-111"/>
      <path d="M 54.890625 33.015625 
L 54.890625 0 
L 45.90625 0 
L 45.90625 32.71875 
Q 45.90625 40.484375 42.875 44.328125 
Q 39.84375 48.1875 33.796875 48.1875 
Q 26.515625 48.1875 22.3125 43.546875 
Q 18.109375 38.921875 18.109375 30.90625 
L 18.109375 0 
L 9.078125 0 
L 9.078125 54.6875 
L 18.109375 54.6875 
L 18.109375 46.1875 
Q 21.34375 51.125 25.703125 53.5625 
Q 30.078125 56 35.796875 56 
Q 45.21875 56 50.046875 50.171875 
Q 54.890625 44.34375 54.890625 33.015625 
z
" id="DejaVuSans-110"/>
      <path id="DejaVuSans-32"/>
      <path d="M 52 44.1875 
Q 55.375 50.25 60.0625 53.125 
Q 64.75 56 71.09375 56 
Q 79.640625 56 84.28125 50.015625 
Q 88.921875 44.046875 88.921875 33.015625 
L 88.921875 0 
L 79.890625 0 
L 79.890625 32.71875 
Q 79.890625 40.578125 77.09375 44.375 
Q 74.3125 48.1875 68.609375 48.1875 
Q 61.625 48.1875 57.5625 43.546875 
Q 53.515625 38.921875 53.515625 30.90625 
L 53.515625 0 
L 44.484375 0 
L 44.484375 32.71875 
Q 44.484375 40.625 41.703125 44.40625 
Q 38.921875 48.1875 33.109375 48.1875 
Q 26.21875 48.1875 22.15625 43.53125 
Q 18.109375 38.875 18.109375 30.90625 
L 18.109375 0 
L 9.078125 0 
L 9.078125 54.6875 
L 18.109375 54.6875 
L 18.109375 46.1875 
Q 21.1875 51.21875 25.484375 53.609375 
Q 29.78125 56 35.6875 56 
Q 41.65625 56 45.828125 52.96875 
Q 50 49.953125 52 44.1875 
z
" id="DejaVuSans-109"/>
      <path d="M 25.390625 72.90625 
L 33.6875 72.90625 
L 8.296875 -9.28125 
L 0 -9.28125 
z
" id="DejaVuSans-47"/>
     </defs>
     <g transform="translate(38.157812 219.244406)rotate(-90)scale(0.1 -0.1)">
      <use xlink:href="#DejaVuSans-101"/>
      <use x="59.773438" xlink:href="#DejaVuSans-120"/>
      <use x="115.828125" xlink:href="#DejaVuSans-101"/>
      <use x="177.351562" xlink:href="#DejaVuSans-99"/>
      <use x="232.332031" xlink:href="#DejaVuSans-117"/>
      <use x="295.710938" xlink:href="#DejaVuSans-116"/>
      <use x="334.919922" xlink:href="#DejaVuSans-105"/>
      <use x="362.703125" xlink:href="#DejaVuSans-111"/>
      <use x="423.884766" xlink:href="#DejaVuSans-110"/>
      <use x="487.263672" xlink:href="#DejaVuSans-32"/>
      <use x="519.050781" xlink:href="#DejaVuSans-116"/>
      <use x="558.259766" xlink:href="#DejaVuSans-105"/>
      <use x="586.042969" xlink:href="#DejaVuSans-109"/>
      <use x="683.455078" xlink:href="#DejaVuSans-101"/>
      <use x="744.978516" xlink:href="#DejaVuSans-32"/>
      <use x="776.765625" xlink:href="#DejaVuSans-47"/>
      <use x="810.457031" xlink:href="#DejaVuSans-32"/>
      <use x="842.244141" xlink:href="#DejaVuSans-115"/>
     </g>
    </g>
    <g id="text_13">
     <!-- 1e−5 -->
     <defs>
      <path d="M 10.59375 35.5 
L 73.1875 35.5 
L 73.1875 27.203125 
L 10.59375 27.203125 
z
" id="DejaVuSans-8722"/>
     </defs>
     <g transform="translate(57.6 38.472)scale(0.1 -0.1)">
      <use xlink:href="#DejaVuSans-49"/>
      <use x="63.623047" xlink:href="#DejaVuSans-101"/>
      <use x="125.146484" xlink:href="#DejaVuSans-8722"/>
      <use x="208.935547" xlink:href="#DejaVuSans-53"/>
     </g>
    </g>
   </g>
   <g id="line2d_11">
    <path clip-path="url(#p743e80fbe0)" d="M 57.574965 219.946452 
L 59.001976 229.078668 
L 59.715481 224.51256 
L 60.428987 149.171784 
L 61.855998 153.737891 
L 62.569503 146.88873 
L 63.283009 158.303999 
L 63.996514 121.775138 
L 64.710019 144.605676 
L 65.423525 142.322622 
L 66.13703 121.775138 
L 66.850536 137.756514 
L 67.564041 117.20903 
L 68.277547 130.907353 
L 68.991052 137.756514 
L 69.704558 130.907353 
L 70.418063 142.322622 
L 71.131568 112.642922 
L 71.845074 121.775138 
L 73.272085 135.473461 
L 73.98559 135.473461 
L 74.699096 114.925976 
L 75.412601 128.624299 
L 76.126106 137.756514 
L 76.839612 133.190407 
L 77.553117 121.775138 
L 78.266623 112.642922 
L 78.980128 135.473461 
L 79.693634 128.624299 
L 80.407139 135.473461 
L 81.120645 135.473461 
L 81.83415 114.925976 
L 82.547655 133.190407 
L 83.261161 119.492084 
L 83.974666 126.341245 
L 84.688172 140.039568 
L 85.401677 105.793761 
L 86.115183 206.248129 
L 86.828688 199.398968 
L 87.542194 208.531183 
L 88.255699 206.248129 
L 88.969204 283.871959 
L 89.68271 281.588906 
L 90.396215 288.438067 
L 91.109721 281.588906 
L 91.823226 283.871959 
L 92.536732 277.022798 
L 93.250237 281.588906 
L 93.963743 277.022798 
L 94.677248 261.041421 
L 95.390753 277.022798 
L 96.104259 283.871959 
L 96.817764 277.022798 
L 97.53127 267.890583 
L 98.244775 124.058191 
L 98.958281 130.907353 
L 99.671786 124.058191 
L 100.385292 135.473461 
L 101.098797 101.227653 
L 101.812302 124.058191 
L 102.525808 121.775138 
L 103.239313 98.944599 
L 103.952819 114.925976 
L 104.666324 98.944599 
L 105.37983 105.793761 
L 106.093335 114.925976 
L 106.806841 108.076815 
L 107.520346 121.775138 
L 108.233851 92.095438 
L 109.660862 105.793761 
L 110.374368 114.925976 
L 111.087873 112.642922 
L 111.801379 94.378492 
L 112.514884 105.793761 
L 113.22839 114.925976 
L 113.941895 112.642922 
L 114.6554 96.661546 
L 115.368906 89.812384 
L 116.082411 114.925976 
L 116.795917 105.793761 
L 117.509422 114.925976 
L 118.222928 112.642922 
L 118.936433 94.378492 
L 119.649938 112.642922 
L 120.363444 92.095438 
L 121.790455 119.492084 
L 122.50396 85.246276 
L 123.217466 190.266752 
L 123.930971 181.134537 
L 124.644477 190.266752 
L 125.357982 187.983699 
L 126.071487 272.45669 
L 126.784993 267.890583 
L 127.498498 274.739744 
L 128.212004 267.890583 
L 128.925509 274.739744 
L 129.639015 267.890583 
L 130.35252 274.739744 
L 131.066026 267.890583 
L 131.779531 254.19226 
L 132.493036 206.248129 
L 133.206542 215.380345 
L 133.920047 208.531183 
L 134.633553 217.663398 
L 135.347058 208.531183 
L 136.060564 217.663398 
L 136.774069 208.531183 
L 137.487575 217.663398 
L 138.20108 208.531183 
L 138.914585 217.663398 
L 139.628091 208.531183 
L 140.341596 217.663398 
L 141.055102 208.531183 
L 141.768607 217.663398 
L 142.482113 208.531183 
L 143.195618 217.663398 
L 143.909124 208.531183 
L 144.622629 217.663398 
L 145.336134 208.531183 
L 146.04964 217.663398 
L 146.763145 208.531183 
L 147.476651 217.663398 
L 148.190156 208.531183 
L 148.903662 217.663398 
L 149.617167 208.531183 
L 150.330673 217.663398 
L 151.044178 208.531183 
L 151.757683 217.663398 
L 152.471189 208.531183 
L 153.184694 217.663398 
L 153.8982 208.531183 
L 154.611705 217.663398 
L 155.325211 208.531183 
L 156.038716 217.663398 
L 156.752222 208.531183 
L 157.465727 217.663398 
L 158.179232 208.531183 
L 158.892738 217.663398 
L 159.606243 208.531183 
L 160.319749 258.758367 
L 161.033254 256.475314 
L 161.74676 265.607529 
L 162.460265 256.475314 
L 163.17377 265.607529 
L 163.887276 256.475314 
L 164.600781 265.607529 
L 165.314287 256.475314 
L 166.027792 245.060044 
L 166.741298 187.983699 
L 167.454803 201.682022 
L 168.168309 192.549806 
L 168.881814 199.398968 
L 169.595319 192.549806 
L 170.308825 201.682022 
L 171.02233 190.266752 
L 171.735836 201.682022 
L 172.449341 192.549806 
L 173.162847 201.682022 
L 173.876352 185.700645 
L 174.589858 224.51256 
L 175.303363 215.380345 
L 176.016868 224.51256 
L 176.730374 215.380345 
L 177.443879 217.663398 
L 178.157385 238.210883 
L 178.87089 247.343098 
L 179.584396 238.210883 
L 180.297901 247.343098 
L 181.011407 238.210883 
L 181.724912 245.060044 
L 182.438417 238.210883 
L 183.151923 247.343098 
L 183.865428 238.210883 
L 184.578934 247.343098 
L 185.292439 238.210883 
L 186.005945 247.343098 
L 186.71945 238.210883 
L 187.432956 247.343098 
L 188.146461 238.210883 
L 188.859966 247.343098 
L 189.573472 238.210883 
L 190.286977 247.343098 
L 191.000483 238.210883 
L 191.713988 247.343098 
L 192.427494 238.210883 
L 193.140999 247.343098 
L 193.854505 238.210883 
L 194.56801 235.927829 
L 195.281515 247.343098 
L 195.995021 256.475314 
L 196.708526 247.343098 
L 197.422032 245.060044 
L 198.135537 247.343098 
L 198.849043 256.475314 
L 199.562548 247.343098 
L 200.276054 222.229506 
L 200.989559 245.060044 
L 201.703064 251.909206 
L 202.41657 245.060044 
L 203.130075 215.380345 
L 203.843581 242.776991 
L 204.557086 249.626152 
L 205.270592 240.493937 
L 205.984097 242.776991 
L 206.697603 238.210883 
L 207.411108 245.060044 
L 208.124613 238.210883 
L 208.838119 245.060044 
L 209.551624 233.644775 
L 210.26513 242.776991 
L 210.978635 233.644775 
L 211.692141 149.171784 
L 212.405646 146.88873 
L 213.119151 149.171784 
L 213.832657 140.039568 
L 214.546162 153.737891 
L 215.259668 117.20903 
L 215.973173 142.322622 
L 216.686679 135.473461 
L 217.400184 114.925976 
L 218.11369 130.907353 
L 218.827195 112.642922 
L 219.5407 126.341245 
L 220.254206 133.190407 
L 220.967711 124.058191 
L 221.681217 137.756514 
L 222.394722 108.076815 
L 223.108228 110.359868 
L 223.821733 124.058191 
L 224.535239 130.907353 
L 225.248744 130.907353 
L 225.962249 110.359868 
L 226.675755 121.775138 
L 227.38926 130.907353 
L 228.102766 128.624299 
L 228.816271 114.925976 
L 229.529777 105.793761 
L 230.243282 130.907353 
L 230.956788 121.775138 
L 231.670293 130.907353 
L 232.383798 128.624299 
L 233.097304 110.359868 
L 233.810809 128.624299 
L 234.524315 108.076815 
L 235.951326 135.473461 
L 236.664831 101.227653 
L 237.378337 201.682022 
L 238.091842 194.83286 
L 238.805347 201.682022 
L 239.518853 199.398968 
L 240.232358 281.588906 
L 240.945864 277.022798 
L 241.659369 283.871959 
L 242.372875 277.022798 
L 243.08638 281.588906 
L 243.799886 272.45669 
L 244.513391 279.305852 
L 245.940402 265.607529 
L 246.653907 208.531183 
L 247.367413 222.229506 
L 248.080918 213.097291 
L 248.794424 219.946452 
L 249.507929 213.097291 
L 250.221435 222.229506 
L 250.93494 210.814237 
L 251.648445 222.229506 
L 252.361951 213.097291 
L 253.075456 222.229506 
L 253.788962 213.097291 
L 254.502467 215.380345 
L 255.215973 238.210883 
L 255.929478 245.060044 
L 256.642983 238.210883 
L 257.356489 238.210883 
L 258.069994 261.041421 
L 258.7835 267.890583 
L 259.497005 261.041421 
L 260.210511 267.890583 
L 260.924016 261.041421 
L 261.637522 267.890583 
L 262.351027 261.041421 
L 263.064532 267.890583 
L 263.778038 261.041421 
L 264.491543 267.890583 
L 265.205049 261.041421 
L 265.918554 267.890583 
L 266.63206 261.041421 
L 267.345565 267.890583 
L 268.059071 261.041421 
L 268.772576 267.890583 
L 269.486081 261.041421 
L 270.199587 267.890583 
L 270.913092 261.041421 
L 271.626598 267.890583 
L 272.340103 261.041421 
L 273.053609 267.890583 
L 273.767114 261.041421 
L 274.48062 251.909206 
L 275.194125 263.324475 
L 275.90763 213.097291 
L 276.621136 263.324475 
L 277.334641 261.041421 
L 278.048147 201.682022 
L 278.761652 215.380345 
L 279.475158 206.248129 
L 280.188663 213.097291 
L 280.902169 206.248129 
L 281.615674 215.380345 
L 282.329179 203.965075 
L 283.042685 215.380345 
L 283.75619 206.248129 
L 284.469696 215.380345 
L 285.183201 206.248129 
L 285.896707 215.380345 
L 286.610212 199.398968 
L 287.323718 240.493937 
L 288.037223 231.361721 
L 288.750728 240.493937 
L 289.464234 224.51256 
L 290.177739 263.324475 
L 290.891245 254.19226 
L 291.60475 263.324475 
L 292.318256 256.475314 
L 293.031761 263.324475 
L 293.745267 254.19226 
L 294.458772 263.324475 
L 295.172277 254.19226 
L 295.885783 263.324475 
L 296.599288 254.19226 
L 297.312794 263.324475 
L 298.026299 256.475314 
L 298.739805 263.324475 
L 299.45331 254.19226 
L 300.166815 263.324475 
L 300.880321 254.19226 
L 301.593826 263.324475 
L 302.307332 254.19226 
L 303.020837 263.324475 
L 303.734343 254.19226 
L 304.447848 263.324475 
L 305.874859 245.060044 
L 306.588364 256.475314 
L 307.30187 185.700645 
L 308.015375 256.475314 
L 308.728881 219.946452 
L 309.442386 258.758367 
L 310.155892 267.890583 
L 310.869397 258.758367 
L 311.582903 210.814237 
L 312.296408 256.475314 
L 313.009913 265.607529 
L 313.723419 256.475314 
L 314.436924 194.83286 
L 315.15043 254.19226 
L 315.863935 261.041421 
L 316.577441 254.19226 
L 317.290946 240.493937 
L 318.004452 185.700645 
L 318.717957 194.83286 
L 319.431462 190.266752 
L 320.144968 197.115914 
L 320.858473 190.266752 
L 321.571979 197.115914 
L 322.285484 190.266752 
L 322.99899 197.115914 
L 323.712495 190.266752 
L 324.426001 197.115914 
L 325.139506 190.266752 
L 325.853011 197.115914 
L 326.566517 190.266752 
L 327.280022 197.115914 
L 327.993528 190.266752 
L 328.707033 197.115914 
L 329.420539 187.983699 
L 330.134044 197.115914 
L 330.84755 192.549806 
L 331.561055 197.115914 
L 332.27456 190.266752 
L 332.988066 197.115914 
L 333.701571 190.266752 
L 334.415077 197.115914 
L 335.128582 190.266752 
L 335.842088 197.115914 
L 336.555593 190.266752 
L 337.269099 197.115914 
L 337.982604 190.266752 
L 338.696109 197.115914 
L 339.409615 190.266752 
L 340.12312 197.115914 
L 340.836626 192.549806 
L 341.550131 197.115914 
L 342.263637 190.266752 
L 342.977142 197.115914 
L 343.690648 192.549806 
L 344.404153 197.115914 
L 345.117658 190.266752 
L 345.831164 245.060044 
L 346.544669 242.776991 
L 347.258175 251.909206 
L 347.97168 242.776991 
L 348.685186 231.361721 
L 349.398691 169.719268 
L 350.112196 183.417591 
L 350.825702 174.285376 
L 351.539207 181.134537 
L 352.252713 174.285376 
L 352.966218 183.417591 
L 353.679724 174.285376 
L 354.393229 183.417591 
L 355.106735 174.285376 
L 355.82024 176.56843 
L 356.533745 203.965075 
L 357.247251 208.531183 
L 357.960756 194.83286 
L 358.674262 235.927829 
L 359.387767 229.078668 
L 360.101273 233.644775 
L 360.814778 226.795614 
L 361.528284 233.644775 
L 362.241789 226.795614 
L 362.955294 233.644775 
L 363.6688 229.078668 
L 364.382305 233.644775 
L 365.095811 229.078668 
L 365.809316 233.644775 
L 366.522822 226.795614 
L 367.236327 233.644775 
L 367.949833 229.078668 
L 368.663338 233.644775 
L 369.376843 229.078668 
L 370.090349 233.644775 
L 370.803854 229.078668 
L 371.51736 233.644775 
L 372.230865 229.078668 
L 372.944371 233.644775 
L 373.657876 226.795614 
L 374.371382 233.644775 
L 375.084887 229.078668 
L 375.798392 233.644775 
L 377.225403 224.51256 
L 377.938909 238.210883 
L 378.652414 245.060044 
L 379.36592 238.210883 
L 380.079425 156.020945 
L 380.792931 151.454837 
L 381.506436 238.210883 
L 382.219941 178.851483 
L 383.646952 87.52933 
L 384.360458 94.378492 
L 385.073963 87.52933 
L 385.787469 98.944599 
L 386.500974 62.415738 
L 387.21448 87.52933 
L 387.927985 85.246276 
L 388.64149 60.132684 
L 389.354996 76.114061 
L 390.068501 57.84963 
L 390.782007 71.547953 
L 391.495512 78.397115 
L 392.209018 71.547953 
L 392.922523 85.246276 
L 393.636028 53.283523 
L 394.349534 60.132684 
L 395.063039 69.2649 
L 395.776545 76.114061 
L 396.49005 76.114061 
L 397.203556 55.566577 
L 397.917061 69.2649 
L 398.630567 76.114061 
L 399.344072 73.831007 
L 400.057577 60.132684 
L 400.771083 53.283523 
L 401.484588 76.114061 
L 402.198094 66.981846 
L 402.911599 76.114061 
L 403.625105 76.114061 
L 404.33861 55.566577 
L 405.052116 76.114061 
L 405.765621 53.283523 
L 406.479126 69.2649 
L 407.192632 80.680169 
L 407.906137 46.434361 
L 408.619643 156.020945 
L 409.333148 146.88873 
L 410.046654 153.737891 
L 410.760159 153.737891 
L 411.473665 231.361721 
L 412.18717 229.078668 
L 412.900675 235.927829 
L 413.614181 229.078668 
L 414.327686 219.946452 
L 415.041192 226.795614 
L 415.041192 226.795614 
" style="fill:none;stroke:#1f77b4;stroke-linecap:square;stroke-width:1.5;"/>
   </g>
   <g id="line2d_12">
    <path clip-path="url(#p743e80fbe0)" d="M 57.574965 224.51256 
L 58.28847 272.45669 
L 59.001976 229.078668 
L 59.715481 238.210883 
L 60.428987 231.361721 
L 61.142492 235.927829 
L 61.855998 233.644775 
L 62.569503 235.927829 
L 63.996514 231.361721 
L 64.710019 254.19226 
L 65.423525 251.909206 
L 66.13703 272.45669 
L 66.850536 279.305852 
L 67.564041 272.45669 
L 68.277547 279.305852 
L 68.991052 272.45669 
L 69.704558 279.305852 
L 70.418063 272.45669 
L 71.131568 279.305852 
L 71.845074 272.45669 
L 72.558579 279.305852 
L 73.272085 272.45669 
L 73.98559 279.305852 
L 74.699096 272.45669 
L 75.412601 279.305852 
L 76.126106 272.45669 
L 76.839612 279.305852 
L 77.553117 272.45669 
L 78.266623 279.305852 
L 78.980128 272.45669 
L 79.693634 279.305852 
L 80.407139 272.45669 
L 81.120645 279.305852 
L 81.83415 272.45669 
L 82.547655 279.305852 
L 83.261161 272.45669 
L 83.974666 279.305852 
L 84.688172 272.45669 
L 85.401677 279.305852 
L 86.115183 272.45669 
L 86.828688 240.493937 
L 87.542194 279.305852 
L 88.255699 286.155013 
L 88.969204 279.305852 
L 89.68271 281.588906 
L 90.396215 274.739744 
L 91.109721 270.173637 
L 92.536732 283.871959 
L 93.250237 277.022798 
L 93.963743 265.607529 
L 94.677248 274.739744 
L 95.390753 281.588906 
L 96.104259 274.739744 
L 96.817764 258.758367 
L 97.53127 210.814237 
L 98.244775 219.946452 
L 98.958281 213.097291 
L 99.671786 217.663398 
L 100.385292 213.097291 
L 101.098797 219.946452 
L 101.812302 210.814237 
L 102.525808 213.097291 
L 103.239313 233.644775 
L 103.952819 233.644775 
L 104.666324 256.475314 
L 105.37983 261.041421 
L 106.093335 256.475314 
L 106.806841 263.324475 
L 107.520346 256.475314 
L 108.233851 263.324475 
L 108.947357 256.475314 
L 109.660862 263.324475 
L 110.374368 256.475314 
L 111.087873 263.324475 
L 111.801379 256.475314 
L 112.514884 263.324475 
L 113.22839 256.475314 
L 113.941895 263.324475 
L 114.6554 256.475314 
L 115.368906 263.324475 
L 116.082411 256.475314 
L 116.795917 263.324475 
L 117.509422 256.475314 
L 118.222928 263.324475 
L 118.936433 256.475314 
L 119.649938 263.324475 
L 120.363444 256.475314 
L 121.076949 263.324475 
L 121.790455 256.475314 
L 122.50396 263.324475 
L 123.217466 256.475314 
L 123.930971 263.324475 
L 124.644477 256.475314 
L 125.357982 245.060044 
L 126.071487 265.607529 
L 126.784993 272.45669 
L 127.498498 265.607529 
L 128.212004 261.041421 
L 128.925509 265.607529 
L 129.639015 272.45669 
L 130.35252 265.607529 
L 131.066026 256.475314 
L 131.779531 112.642922 
L 132.493036 119.492084 
L 133.206542 112.642922 
L 133.920047 124.058191 
L 134.633553 87.52933 
L 135.347058 112.642922 
L 136.060564 110.359868 
L 136.774069 85.246276 
L 137.487575 101.227653 
L 138.20108 85.246276 
L 138.914585 96.661546 
L 139.628091 103.510707 
L 140.341596 96.661546 
L 141.055102 110.359868 
L 141.768607 80.680169 
L 142.482113 85.246276 
L 143.909124 103.510707 
L 144.622629 101.227653 
L 145.336134 82.963223 
L 146.04964 94.378492 
L 146.763145 103.510707 
L 147.476651 98.944599 
L 148.190156 85.246276 
L 148.903662 78.397115 
L 149.617167 101.227653 
L 150.330673 92.095438 
L 151.044178 103.510707 
L 151.757683 101.227653 
L 152.471189 80.680169 
L 153.184694 101.227653 
L 153.8982 80.680169 
L 154.611705 92.095438 
L 155.325211 105.793761 
L 156.038716 69.2649 
L 156.752222 176.56843 
L 157.465727 169.719268 
L 158.179232 178.851483 
L 158.892738 176.56843 
L 159.606243 261.041421 
L 160.319749 254.19226 
L 161.033254 263.324475 
L 161.74676 254.19226 
L 162.460265 261.041421 
L 163.17377 254.19226 
L 163.887276 263.324475 
L 164.600781 254.19226 
L 165.314287 242.776991 
L 166.027792 194.83286 
L 166.741298 201.682022 
L 167.454803 197.115914 
L 168.168309 203.965075 
L 168.881814 194.83286 
L 169.595319 203.965075 
L 170.308825 194.83286 
L 171.02233 203.965075 
L 171.735836 194.83286 
L 172.449341 203.965075 
L 173.162847 197.115914 
L 173.876352 203.965075 
L 174.589858 194.83286 
L 175.303363 203.965075 
L 176.016868 197.115914 
L 176.730374 203.965075 
L 177.443879 194.83286 
L 178.157385 203.965075 
L 178.87089 194.83286 
L 179.584396 203.965075 
L 180.297901 194.83286 
L 181.011407 203.965075 
L 181.724912 194.83286 
L 182.438417 203.965075 
L 183.151923 197.115914 
L 183.865428 203.965075 
L 184.578934 194.83286 
L 185.292439 203.965075 
L 186.005945 194.83286 
L 186.71945 203.965075 
L 187.432956 194.83286 
L 188.146461 203.965075 
L 188.859966 194.83286 
L 189.573472 203.965075 
L 190.286977 194.83286 
L 191.000483 203.965075 
L 191.713988 194.83286 
L 192.427494 203.965075 
L 193.140999 194.83286 
L 193.854505 247.343098 
L 194.56801 245.060044 
L 195.281515 254.19226 
L 195.995021 245.060044 
L 196.708526 254.19226 
L 197.422032 245.060044 
L 198.135537 254.19226 
L 198.849043 245.060044 
L 199.562548 229.078668 
L 200.276054 242.776991 
L 200.989559 251.909206 
L 201.703064 242.776991 
L 202.41657 213.097291 
L 203.130075 240.493937 
L 203.843581 247.343098 
L 204.557086 238.210883 
L 205.270592 240.493937 
L 205.984097 235.927829 
L 206.697603 245.060044 
L 207.411108 235.927829 
L 208.124613 245.060044 
L 208.838119 231.361721 
L 209.551624 240.493937 
L 210.26513 231.361721 
L 210.978635 272.45669 
L 211.692141 222.229506 
L 212.405646 235.927829 
L 213.119151 226.795614 
L 213.832657 231.361721 
L 214.546162 226.795614 
L 215.259668 235.927829 
L 215.973173 226.795614 
L 216.686679 233.644775 
L 217.400184 219.946452 
L 218.11369 254.19226 
L 218.827195 240.493937 
L 219.5407 277.022798 
L 220.254206 267.890583 
L 220.967711 274.739744 
L 221.681217 267.890583 
L 222.394722 274.739744 
L 223.108228 267.890583 
L 223.821733 274.739744 
L 224.535239 267.890583 
L 225.248744 274.739744 
L 225.962249 267.890583 
L 226.675755 274.739744 
L 227.38926 267.890583 
L 228.102766 274.739744 
L 228.816271 267.890583 
L 229.529777 274.739744 
L 230.243282 267.890583 
L 230.956788 274.739744 
L 231.670293 267.890583 
L 232.383798 274.739744 
L 233.097304 267.890583 
L 233.810809 274.739744 
L 234.524315 267.890583 
L 235.23782 274.739744 
L 235.951326 267.890583 
L 236.664831 274.739744 
L 237.378337 265.607529 
L 238.091842 274.739744 
L 238.805347 267.890583 
L 239.518853 229.078668 
L 240.232358 272.45669 
L 240.945864 281.588906 
L 241.659369 274.739744 
L 242.372875 279.305852 
L 243.08638 270.173637 
L 243.799886 185.700645 
L 244.513391 256.475314 
L 245.226896 215.380345 
L 245.940402 210.814237 
L 246.653907 219.946452 
L 247.367413 208.531183 
L 248.080918 219.946452 
L 248.794424 210.814237 
L 249.507929 217.663398 
L 250.221435 210.814237 
L 250.93494 213.097291 
L 251.648445 235.927829 
L 252.361951 235.927829 
L 253.075456 258.758367 
L 253.788962 265.607529 
L 254.502467 258.758367 
L 255.215973 265.607529 
L 255.929478 258.758367 
L 256.642983 265.607529 
L 257.356489 258.758367 
L 258.069994 265.607529 
L 258.7835 258.758367 
L 259.497005 265.607529 
L 260.210511 258.758367 
L 260.924016 265.607529 
L 261.637522 258.758367 
L 262.351027 265.607529 
L 263.064532 258.758367 
L 263.778038 265.607529 
L 264.491543 258.758367 
L 265.205049 265.607529 
L 265.918554 258.758367 
L 266.63206 265.607529 
L 267.345565 258.758367 
L 268.059071 265.607529 
L 268.772576 258.758367 
L 269.486081 265.607529 
L 270.199587 258.758367 
L 270.913092 265.607529 
L 271.626598 258.758367 
L 272.340103 265.607529 
L 273.053609 240.493937 
L 273.767114 270.173637 
L 274.48062 201.682022 
L 275.194125 270.173637 
L 275.90763 249.626152 
L 276.621136 206.248129 
L 277.334641 203.965075 
L 278.048147 210.814237 
L 278.761652 201.682022 
L 279.475158 213.097291 
L 280.188663 203.965075 
L 280.902169 210.814237 
L 281.615674 203.965075 
L 282.329179 213.097291 
L 283.042685 197.115914 
L 283.75619 238.210883 
L 284.469696 229.078668 
L 285.183201 229.078668 
L 285.896707 251.909206 
L 286.610212 261.041421 
L 287.323718 251.909206 
L 288.037223 261.041421 
L 288.750728 251.909206 
L 289.464234 261.041421 
L 290.177739 251.909206 
L 290.891245 261.041421 
L 291.60475 251.909206 
L 292.318256 261.041421 
L 293.031761 251.909206 
L 293.745267 261.041421 
L 294.458772 251.909206 
L 295.172277 261.041421 
L 295.885783 251.909206 
L 296.599288 261.041421 
L 297.312794 251.909206 
L 298.026299 261.041421 
L 298.739805 251.909206 
L 299.45331 261.041421 
L 300.166815 251.909206 
L 300.880321 261.041421 
L 301.593826 251.909206 
L 302.307332 261.041421 
L 303.020837 251.909206 
L 303.734343 261.041421 
L 304.447848 235.927829 
L 305.161354 261.041421 
L 305.874859 174.285376 
L 306.588364 261.041421 
L 307.30187 208.531183 
L 308.015375 265.607529 
L 308.728881 256.475314 
L 309.442386 265.607529 
L 310.155892 199.398968 
L 310.869397 263.324475 
L 311.582903 254.19226 
L 312.296408 263.324475 
L 313.009913 183.417591 
L 313.723419 261.041421 
L 314.436924 251.909206 
L 315.15043 258.758367 
L 315.863935 126.341245 
L 316.577441 94.378492 
L 317.290946 87.52933 
L 318.004452 94.378492 
L 318.717957 92.095438 
L 319.431462 71.547953 
L 320.144968 78.397115 
L 320.858473 89.812384 
L 321.571979 53.283523 
L 322.285484 85.246276 
L 322.99899 55.566577 
L 323.712495 78.397115 
L 324.426001 71.547953 
L 325.139506 78.397115 
L 325.853011 76.114061 
L 326.566517 62.415738 
L 327.280022 53.283523 
L 327.993528 76.114061 
L 328.707033 66.981846 
L 329.420539 85.246276 
L 330.134044 48.717415 
L 330.84755 76.114061 
L 331.561055 69.2649 
L 332.27456 82.963223 
L 332.988066 53.283523 
L 333.701571 55.566577 
L 334.415077 69.2649 
L 335.128582 76.114061 
L 335.842088 69.2649 
L 336.555593 82.963223 
L 337.269099 48.717415 
L 337.982604 82.963223 
L 338.696109 51.000469 
L 339.409615 76.114061 
L 340.12312 73.831007 
L 340.836626 53.283523 
L 341.550131 146.88873 
L 342.263637 156.020945 
L 342.977142 146.88873 
L 343.690648 160.587053 
L 344.404153 238.210883 
L 345.117658 249.626152 
L 345.831164 240.493937 
L 346.544669 249.626152 
L 347.258175 219.946452 
L 347.97168 181.134537 
L 348.685186 172.002322 
L 349.398691 185.700645 
L 350.112196 176.56843 
L 350.825702 185.700645 
L 351.539207 176.56843 
L 352.252713 185.700645 
L 352.966218 176.56843 
L 353.679724 183.417591 
L 354.393229 176.56843 
L 355.106735 185.700645 
L 355.82024 176.56843 
L 356.533745 185.700645 
L 357.247251 176.56843 
L 357.960756 185.700645 
L 358.674262 176.56843 
L 359.387767 185.700645 
L 360.101273 176.56843 
L 360.814778 185.700645 
L 361.528284 176.56843 
L 362.241789 185.700645 
L 362.955294 176.56843 
L 363.6688 185.700645 
L 364.382305 176.56843 
L 365.095811 183.417591 
L 365.809316 176.56843 
L 366.522822 185.700645 
L 367.236327 176.56843 
L 367.949833 185.700645 
L 368.663338 176.56843 
L 369.376843 185.700645 
L 370.090349 176.56843 
L 370.803854 185.700645 
L 371.51736 176.56843 
L 372.230865 185.700645 
L 372.944371 176.56843 
L 373.657876 185.700645 
L 374.371382 176.56843 
L 375.084887 185.700645 
L 375.798392 231.361721 
L 376.511898 242.776991 
L 377.225403 233.644775 
L 377.938909 242.776991 
L 378.652414 224.51256 
L 379.36592 238.210883 
L 380.079425 226.795614 
L 380.792931 233.644775 
L 381.506436 217.663398 
L 382.219941 174.285376 
L 382.933447 169.719268 
L 383.646952 176.56843 
L 384.360458 167.436214 
L 385.073963 178.851483 
L 385.787469 169.719268 
L 386.500974 176.56843 
L 387.21448 167.436214 
L 387.927985 172.002322 
L 388.64149 194.83286 
L 389.354996 197.115914 
L 390.068501 222.229506 
L 390.782007 229.078668 
L 391.495512 222.229506 
L 392.209018 229.078668 
L 392.922523 222.229506 
L 393.636028 229.078668 
L 394.349534 222.229506 
L 395.063039 229.078668 
L 395.776545 222.229506 
L 396.49005 229.078668 
L 397.203556 219.946452 
L 397.917061 229.078668 
L 398.630567 222.229506 
L 399.344072 229.078668 
L 400.057577 222.229506 
L 400.771083 229.078668 
L 401.484588 222.229506 
L 402.198094 229.078668 
L 402.911599 222.229506 
L 403.625105 229.078668 
L 404.33861 222.229506 
L 405.052116 229.078668 
L 405.765621 219.946452 
L 406.479126 229.078668 
L 407.192632 219.946452 
L 407.906137 229.078668 
L 408.619643 219.946452 
L 409.333148 229.078668 
L 410.046654 222.229506 
L 410.760159 233.644775 
L 411.473665 224.51256 
L 412.18717 233.644775 
L 412.900675 215.380345 
L 413.614181 231.361721 
L 414.327686 219.946452 
L 415.041192 231.361721 
L 415.041192 231.361721 
" style="fill:none;stroke:#ff7f0e;stroke-linecap:square;stroke-width:1.5;"/>
   </g>
   <g id="line2d_13">
    <path clip-path="url(#p743e80fbe0)" d="M 57.574965 229.078668 
L 58.28847 270.173637 
L 59.001976 231.361721 
L 59.715481 238.210883 
L 60.428987 235.927829 
L 61.855998 235.927829 
L 62.569503 238.210883 
L 63.283009 233.644775 
L 63.996514 238.210883 
L 64.710019 231.361721 
L 65.423525 258.758367 
L 66.13703 251.909206 
L 66.850536 277.022798 
L 67.564041 279.305852 
L 68.277547 277.022798 
L 68.991052 279.305852 
L 69.704558 277.022798 
L 70.418063 279.305852 
L 71.845074 279.305852 
L 72.558579 277.022798 
L 73.272085 279.305852 
L 74.699096 279.305852 
L 75.412601 277.022798 
L 76.126106 279.305852 
L 76.839612 277.022798 
L 77.553117 279.305852 
L 78.266623 279.305852 
L 78.980128 277.022798 
L 80.407139 277.022798 
L 81.120645 279.305852 
L 81.83415 277.022798 
L 82.547655 279.305852 
L 83.261161 277.022798 
L 83.974666 279.305852 
L 84.688172 277.022798 
L 86.115183 277.022798 
L 86.828688 238.210883 
L 87.542194 283.871959 
L 88.969204 283.871959 
L 89.68271 279.305852 
L 90.396215 279.305852 
L 91.109721 263.324475 
L 91.823226 281.588906 
L 92.536732 281.588906 
L 93.250237 283.871959 
L 93.963743 281.588906 
L 94.677248 261.041421 
L 95.390753 277.022798 
L 96.104259 279.305852 
L 96.817764 277.022798 
L 97.53127 258.758367 
L 98.244775 215.380345 
L 98.958281 219.946452 
L 99.671786 217.663398 
L 100.385292 217.663398 
L 101.098797 219.946452 
L 102.525808 219.946452 
L 103.239313 217.663398 
L 103.952819 219.946452 
L 104.666324 208.531183 
L 105.37983 263.324475 
L 106.093335 261.041421 
L 122.50396 261.041421 
L 123.217466 263.324475 
L 123.930971 261.041421 
L 125.357982 261.041421 
L 126.071487 245.060044 
L 126.784993 270.173637 
L 127.498498 270.173637 
L 128.212004 272.45669 
L 128.925509 261.041421 
L 129.639015 272.45669 
L 130.35252 270.173637 
L 131.066026 272.45669 
L 131.779531 249.626152 
L 132.493036 210.814237 
L 133.206542 208.531183 
L 133.920047 213.097291 
L 138.20108 213.097291 
L 138.914585 210.814237 
L 139.628091 213.097291 
L 140.341596 210.814237 
L 141.055102 213.097291 
L 141.768607 210.814237 
L 142.482113 213.097291 
L 143.195618 210.814237 
L 143.909124 213.097291 
L 144.622629 210.814237 
L 146.04964 210.814237 
L 146.763145 213.097291 
L 147.476651 210.814237 
L 148.903662 210.814237 
L 149.617167 213.097291 
L 150.330673 210.814237 
L 151.044178 210.814237 
L 151.757683 213.097291 
L 152.471189 210.814237 
L 153.184694 213.097291 
L 153.8982 210.814237 
L 154.611705 213.097291 
L 156.038716 213.097291 
L 156.752222 210.814237 
L 157.465727 213.097291 
L 159.606243 213.097291 
L 160.319749 254.19226 
L 161.033254 261.041421 
L 165.314287 261.041421 
L 166.027792 245.060044 
L 166.741298 108.076815 
L 168.168309 108.076815 
L 168.881814 112.642922 
L 169.595319 82.963223 
L 170.308825 98.944599 
L 171.02233 105.793761 
L 171.735836 71.547953 
L 172.449341 98.944599 
L 173.162847 76.114061 
L 173.876352 92.095438 
L 174.589858 89.812384 
L 175.303363 92.095438 
L 176.016868 96.661546 
L 176.730374 76.114061 
L 177.443879 66.981846 
L 178.157385 89.812384 
L 178.87089 89.812384 
L 179.584396 96.661546 
L 180.297901 69.2649 
L 181.011407 89.812384 
L 181.724912 89.812384 
L 182.438417 94.378492 
L 183.151923 73.831007 
L 183.865428 71.547953 
L 184.578934 89.812384 
L 186.005945 89.812384 
L 186.71945 96.661546 
L 187.432956 69.2649 
L 188.146461 96.661546 
L 188.859966 66.981846 
L 189.573472 89.812384 
L 190.286977 94.378492 
L 191.000483 66.981846 
L 191.713988 165.15316 
L 193.140999 165.15316 
L 193.854505 172.002322 
L 194.56801 247.343098 
L 195.281515 251.909206 
L 199.562548 251.909206 
L 200.276054 222.229506 
L 200.989559 249.626152 
L 201.703064 247.343098 
L 202.41657 247.343098 
L 203.130075 210.814237 
L 203.843581 245.060044 
L 204.557086 242.776991 
L 205.270592 245.060044 
L 205.984097 235.927829 
L 206.697603 240.493937 
L 208.124613 240.493937 
L 208.838119 242.776991 
L 209.551624 238.210883 
L 210.26513 238.210883 
L 210.978635 235.927829 
L 211.692141 270.173637 
L 212.405646 226.795614 
L 213.119151 233.644775 
L 214.546162 229.078668 
L 215.259668 231.361721 
L 216.686679 231.361721 
L 218.11369 226.795614 
L 218.827195 251.909206 
L 219.5407 245.060044 
L 220.254206 272.45669 
L 220.967711 274.739744 
L 221.681217 272.45669 
L 227.38926 272.45669 
L 228.102766 274.739744 
L 228.816271 272.45669 
L 238.091842 272.45669 
L 238.805347 274.739744 
L 239.518853 272.45669 
L 240.232358 226.795614 
L 240.945864 277.022798 
L 241.659369 279.305852 
L 242.372875 279.305852 
L 243.799886 274.739744 
L 244.513391 181.134537 
L 245.226896 263.324475 
L 245.940402 213.097291 
L 246.653907 215.380345 
L 248.080918 215.380345 
L 248.794424 217.663398 
L 249.507929 217.663398 
L 250.221435 215.380345 
L 250.93494 217.663398 
L 251.648445 217.663398 
L 252.361951 210.814237 
L 253.075456 240.493937 
L 254.502467 240.493937 
L 255.215973 233.644775 
L 255.929478 263.324475 
L 273.053609 263.324475 
L 273.767114 247.343098 
L 274.48062 267.890583 
L 275.194125 206.248129 
L 275.90763 267.890583 
L 276.621136 256.475314 
L 277.334641 203.965075 
L 278.048147 210.814237 
L 278.761652 208.531183 
L 279.475158 208.531183 
L 280.188663 210.814237 
L 280.902169 210.814237 
L 281.615674 206.248129 
L 282.329179 210.814237 
L 283.75619 210.814237 
L 284.469696 201.682022 
L 285.183201 235.927829 
L 285.896707 233.644775 
L 286.610212 233.644775 
L 287.323718 226.795614 
L 288.037223 258.758367 
L 288.750728 256.475314 
L 289.464234 258.758367 
L 290.177739 256.475314 
L 290.891245 258.758367 
L 291.60475 256.475314 
L 292.318256 258.758367 
L 293.031761 256.475314 
L 293.745267 258.758367 
L 294.458772 256.475314 
L 295.172277 258.758367 
L 295.885783 258.758367 
L 296.599288 256.475314 
L 297.312794 258.758367 
L 298.739805 258.758367 
L 299.45331 256.475314 
L 300.166815 258.758367 
L 300.880321 256.475314 
L 301.593826 258.758367 
L 302.307332 256.475314 
L 303.020837 258.758367 
L 304.447848 258.758367 
L 305.161354 242.776991 
L 305.874859 258.758367 
L 306.588364 181.134537 
L 307.30187 258.758367 
L 308.015375 215.380345 
L 308.728881 263.324475 
L 310.155892 263.324475 
L 310.869397 203.965075 
L 311.582903 261.041421 
L 313.009913 261.041421 
L 313.723419 190.266752 
L 314.436924 256.475314 
L 315.863935 256.475314 
L 316.577441 235.927829 
L 317.290946 190.266752 
L 318.004452 190.266752 
L 318.717957 192.549806 
L 323.712495 192.549806 
L 324.426001 194.83286 
L 325.139506 192.549806 
L 325.853011 194.83286 
L 326.566517 192.549806 
L 327.280022 194.83286 
L 327.993528 192.549806 
L 332.988066 192.549806 
L 333.701571 194.83286 
L 334.415077 192.549806 
L 335.128582 194.83286 
L 335.842088 192.549806 
L 336.555593 194.83286 
L 337.269099 192.549806 
L 344.404153 192.549806 
L 345.117658 242.776991 
L 345.831164 247.343098 
L 346.544669 247.343098 
L 347.258175 245.060044 
L 347.97168 126.341245 
L 348.685186 87.52933 
L 349.398691 87.52933 
L 350.112196 85.246276 
L 350.825702 92.095438 
L 351.539207 62.415738 
L 352.252713 78.397115 
L 352.966218 85.246276 
L 353.679724 53.283523 
L 354.393229 78.397115 
L 355.106735 51.000469 
L 355.82024 71.547953 
L 357.247251 71.547953 
L 357.960756 76.114061 
L 358.674262 55.566577 
L 359.387767 53.283523 
L 360.101273 69.2649 
L 360.814778 69.2649 
L 361.528284 76.114061 
L 362.241789 48.717415 
L 362.955294 69.2649 
L 363.6688 69.2649 
L 364.382305 76.114061 
L 365.095811 53.283523 
L 365.809316 48.717415 
L 366.522822 69.2649 
L 367.949833 69.2649 
L 368.663338 76.114061 
L 369.376843 51.000469 
L 370.090349 76.114061 
L 370.803854 53.283523 
L 371.51736 66.981846 
L 372.230865 73.831007 
L 372.944371 48.717415 
L 373.657876 149.171784 
L 374.371382 146.88873 
L 375.084887 146.88873 
L 375.798392 153.737891 
L 376.511898 238.210883 
L 377.225403 240.493937 
L 378.652414 240.493937 
L 379.36592 231.361721 
L 380.079425 233.644775 
L 381.506436 233.644775 
L 382.219941 222.229506 
L 382.933447 172.002322 
L 384.360458 176.56843 
L 385.073963 172.002322 
L 385.787469 176.56843 
L 386.500974 174.285376 
L 387.21448 176.56843 
L 387.927985 172.002322 
L 388.64149 169.719268 
L 389.354996 199.398968 
L 390.068501 194.83286 
L 390.782007 226.795614 
L 392.922523 226.795614 
L 393.636028 229.078668 
L 394.349534 226.795614 
L 395.063039 229.078668 
L 395.776545 226.795614 
L 410.760159 226.795614 
L 411.473665 231.361721 
L 412.900675 231.361721 
L 413.614181 219.946452 
L 414.327686 229.078668 
L 415.041192 226.795614 
L 415.041192 226.795614 
" style="fill:none;stroke:#2ca02c;stroke-linecap:square;stroke-width:1.5;"/>
   </g>
   <g id="line2d_14">
    <path clip-path="url(#p743e80fbe0)" d="M 57.574965 249.626152 
L 58.28847 256.475314 
L 59.715481 251.909206 
L 60.428987 254.19226 
L 61.142492 254.19226 
L 61.855998 247.343098 
L 62.569503 274.739744 
L 63.283009 270.173637 
L 63.996514 295.287229 
L 78.266623 295.287229 
L 78.980128 297.570282 
L 82.547655 297.570282 
L 83.261161 295.287229 
L 83.974666 297.570282 
L 84.688172 295.287229 
L 85.401677 263.324475 
L 86.115183 302.13639 
L 87.542194 302.13639 
L 88.255699 229.078668 
L 88.969204 299.853336 
L 90.396215 299.853336 
L 91.109721 293.004175 
L 93.250237 293.004175 
L 93.963743 297.570282 
L 95.390753 297.570282 
L 96.104259 295.287229 
L 96.817764 297.570282 
L 97.53127 295.287229 
L 98.244775 295.287229 
L 98.958281 297.570282 
L 103.239313 297.570282 
L 103.952819 295.287229 
L 104.666324 297.570282 
L 115.368906 297.570282 
L 116.082411 295.287229 
L 116.795917 297.570282 
L 117.509422 295.287229 
L 119.649938 295.287229 
L 120.363444 297.570282 
L 121.076949 295.287229 
L 121.790455 297.570282 
L 138.20108 297.570282 
L 138.914585 295.287229 
L 139.628091 297.570282 
L 156.752222 297.570282 
L 157.465727 295.287229 
L 159.606243 295.287229 
L 160.319749 297.570282 
L 176.730374 297.570282 
L 177.443879 295.287229 
L 178.157385 297.570282 
L 178.87089 295.287229 
L 179.584396 299.853336 
L 180.297901 297.570282 
L 196.708526 297.570282 
L 197.422032 295.287229 
L 198.135537 297.570282 
L 198.849043 295.287229 
L 199.562548 295.287229 
L 200.276054 297.570282 
L 200.989559 295.287229 
L 201.703064 297.570282 
L 202.41657 293.004175 
L 203.130075 295.287229 
L 207.411108 295.287229 
L 208.124613 288.438067 
L 208.838119 247.343098 
L 209.551624 249.626152 
L 210.26513 249.626152 
L 210.978635 247.343098 
L 211.692141 251.909206 
L 212.405646 249.626152 
L 213.119151 249.626152 
L 213.832657 247.343098 
L 214.546162 251.909206 
L 215.259668 242.776991 
L 215.973173 270.173637 
L 216.686679 263.324475 
L 217.400184 290.721121 
L 218.827195 290.721121 
L 219.5407 293.004175 
L 222.394722 293.004175 
L 223.108228 290.721121 
L 223.821733 293.004175 
L 231.670293 293.004175 
L 232.383798 290.721121 
L 233.097304 290.721121 
L 233.810809 293.004175 
L 234.524315 290.721121 
L 235.951326 290.721121 
L 236.664831 249.626152 
L 237.378337 295.287229 
L 238.091842 297.570282 
L 238.805347 297.570282 
L 239.518853 224.51256 
L 240.232358 297.570282 
L 241.659369 297.570282 
L 242.372875 208.531183 
L 243.08638 146.88873 
L 244.513391 146.88873 
L 245.226896 153.737891 
L 245.940402 121.775138 
L 246.653907 140.039568 
L 247.367413 144.605676 
L 248.080918 114.925976 
L 248.794424 137.756514 
L 249.507929 110.359868 
L 250.221435 130.907353 
L 251.648445 130.907353 
L 252.361951 137.756514 
L 253.075456 114.925976 
L 253.788962 112.642922 
L 254.502467 128.624299 
L 255.215973 128.624299 
L 255.929478 135.473461 
L 256.642983 108.076815 
L 257.356489 128.624299 
L 258.069994 130.907353 
L 258.7835 135.473461 
L 259.497005 112.642922 
L 260.210511 108.076815 
L 260.924016 130.907353 
L 262.351027 130.907353 
L 263.064532 137.756514 
L 263.778038 108.076815 
L 264.491543 137.756514 
L 265.205049 110.359868 
L 265.918554 130.907353 
L 266.63206 137.756514 
L 267.345565 108.076815 
L 268.059071 208.531183 
L 269.486081 208.531183 
L 270.199587 215.380345 
L 270.913092 288.438067 
L 271.626598 290.721121 
L 272.340103 290.721121 
L 273.053609 288.438067 
L 273.767114 290.721121 
L 274.48062 288.438067 
L 275.194125 290.721121 
L 275.90763 288.438067 
L 279.475158 288.438067 
L 280.188663 290.721121 
L 281.615674 290.721121 
L 282.329179 288.438067 
L 283.042685 290.721121 
L 293.031761 290.721121 
L 293.745267 288.438067 
L 294.458772 288.438067 
L 295.172277 290.721121 
L 295.885783 288.438067 
L 296.599288 290.721121 
L 297.312794 288.438067 
L 298.026299 290.721121 
L 298.739805 288.438067 
L 299.45331 290.721121 
L 300.166815 290.721121 
L 300.880321 288.438067 
L 301.593826 290.721121 
L 302.307332 281.588906 
L 303.020837 283.871959 
L 304.447848 283.871959 
L 305.161354 288.438067 
L 305.874859 286.155013 
L 306.588364 288.438067 
L 307.30187 286.155013 
L 318.717957 286.155013 
L 319.431462 288.438067 
L 320.858473 288.438067 
L 321.571979 286.155013 
L 322.285484 288.438067 
L 326.566517 288.438067 
L 327.280022 286.155013 
L 337.269099 286.155013 
L 337.982604 288.438067 
L 338.696109 286.155013 
L 340.12312 286.155013 
L 340.836626 288.438067 
L 341.550131 286.155013 
L 342.263637 288.438067 
L 345.117658 288.438067 
L 345.831164 286.155013 
L 346.544669 288.438067 
L 347.258175 286.155013 
L 347.97168 288.438067 
L 348.685186 286.155013 
L 349.398691 288.438067 
L 350.112196 286.155013 
L 360.101273 286.155013 
L 360.814778 288.438067 
L 366.522822 288.438067 
L 367.236327 286.155013 
L 367.949833 288.438067 
L 368.663338 286.155013 
L 380.079425 286.155013 
L 380.792931 288.438067 
L 385.073963 288.438067 
L 385.787469 286.155013 
L 386.500974 288.438067 
L 387.21448 286.155013 
L 387.927985 288.438067 
L 388.64149 286.155013 
L 400.771083 286.155013 
L 401.484588 288.438067 
L 402.198094 286.155013 
L 402.911599 286.155013 
L 403.625105 288.438067 
L 404.33861 288.438067 
L 405.052116 286.155013 
L 405.765621 288.438067 
L 406.479126 288.438067 
L 407.192632 286.155013 
L 407.906137 288.438067 
L 408.619643 286.155013 
L 410.046654 286.155013 
L 410.760159 281.588906 
L 411.473665 283.871959 
L 412.900675 283.871959 
L 413.614181 290.721121 
L 414.327686 249.626152 
L 415.041192 254.19226 
L 415.041192 254.19226 
" style="fill:none;stroke:#d62728;stroke-linecap:square;stroke-width:1.5;"/>
   </g>
   <g id="line2d_15">
    <path clip-path="url(#p743e80fbe0)" d="M 57.574965 247.343098 
L 58.28847 251.909206 
L 59.715481 247.343098 
L 60.428987 254.19226 
L 61.855998 245.060044 
L 62.569503 272.45669 
L 63.283009 265.607529 
L 63.996514 295.287229 
L 64.710019 293.004175 
L 73.98559 293.004175 
L 74.699096 295.287229 
L 77.553117 295.287229 
L 78.266623 293.004175 
L 84.688172 293.004175 
L 85.401677 254.19226 
L 86.115183 297.570282 
L 86.828688 297.570282 
L 87.542194 299.853336 
L 88.255699 226.795614 
L 88.969204 299.853336 
L 89.68271 297.570282 
L 90.396215 297.570282 
L 91.109721 270.173637 
L 91.823226 295.287229 
L 96.104259 295.287229 
L 96.817764 293.004175 
L 99.671786 293.004175 
L 100.385292 295.287229 
L 110.374368 295.287229 
L 111.087873 293.004175 
L 112.514884 293.004175 
L 113.22839 295.287229 
L 113.941895 293.004175 
L 114.6554 295.287229 
L 121.790455 295.287229 
L 122.50396 272.45669 
L 123.217466 290.721121 
L 124.644477 290.721121 
L 125.357982 226.795614 
L 126.071487 286.155013 
L 126.784993 286.155013 
L 128.212004 290.721121 
L 128.925509 288.438067 
L 139.628091 288.438067 
L 140.341596 290.721121 
L 141.055102 288.438067 
L 152.471189 288.438067 
L 153.184694 290.721121 
L 153.8982 288.438067 
L 178.157385 288.438067 
L 178.87089 290.721121 
L 179.584396 288.438067 
L 192.427494 288.438067 
L 193.140999 290.721121 
L 193.854505 288.438067 
L 201.703064 288.438067 
L 202.41657 281.588906 
L 203.130075 281.588906 
L 203.843581 279.305852 
L 204.557086 281.588906 
L 205.984097 281.588906 
L 206.697603 279.305852 
L 207.411108 281.588906 
L 208.124613 286.155013 
L 208.838119 245.060044 
L 209.551624 249.626152 
L 210.26513 249.626152 
L 210.978635 245.060044 
L 211.692141 249.626152 
L 212.405646 247.343098 
L 213.119151 247.343098 
L 213.832657 240.493937 
L 214.546162 267.890583 
L 215.259668 261.041421 
L 215.973173 288.438067 
L 219.5407 288.438067 
L 220.254206 290.721121 
L 224.535239 290.721121 
L 225.248744 288.438067 
L 228.102766 288.438067 
L 228.816271 290.721121 
L 229.529777 288.438067 
L 230.956788 288.438067 
L 231.670293 290.721121 
L 232.383798 288.438067 
L 233.097304 290.721121 
L 235.951326 290.721121 
L 236.664831 247.343098 
L 237.378337 295.287229 
L 238.805347 295.287229 
L 239.518853 222.229506 
L 240.232358 293.004175 
L 245.226896 293.004175 
L 245.940402 295.287229 
L 246.653907 293.004175 
L 247.367413 295.287229 
L 251.648445 295.287229 
L 252.361951 293.004175 
L 259.497005 293.004175 
L 260.210511 295.287229 
L 265.205049 295.287229 
L 265.918554 293.004175 
L 272.340103 293.004175 
L 273.053609 295.287229 
L 273.767114 183.417591 
L 274.48062 144.605676 
L 275.90763 144.605676 
L 276.621136 149.171784 
L 277.334641 119.492084 
L 278.048147 137.756514 
L 278.761652 142.322622 
L 279.475158 110.359868 
L 280.188663 135.473461 
L 280.902169 105.793761 
L 281.615674 128.624299 
L 283.042685 128.624299 
L 283.75619 133.190407 
L 284.469696 112.642922 
L 285.183201 110.359868 
L 285.896707 126.341245 
L 286.610212 126.341245 
L 287.323718 135.473461 
L 288.037223 108.076815 
L 288.750728 126.341245 
L 289.464234 126.341245 
L 290.177739 133.190407 
L 290.891245 110.359868 
L 291.60475 105.793761 
L 292.318256 126.341245 
L 293.745267 126.341245 
L 294.458772 133.190407 
L 295.172277 105.793761 
L 295.885783 133.190407 
L 296.599288 105.793761 
L 297.312794 126.341245 
L 298.026299 133.190407 
L 298.739805 105.793761 
L 299.45331 203.965075 
L 300.166815 206.248129 
L 300.880321 203.965075 
L 301.593826 210.814237 
L 302.307332 286.155013 
L 303.020837 288.438067 
L 307.30187 288.438067 
L 308.015375 286.155013 
L 308.728881 288.438067 
L 309.442386 286.155013 
L 312.296408 286.155013 
L 313.009913 288.438067 
L 320.144968 288.438067 
L 320.858473 286.155013 
L 325.853011 286.155013 
L 326.566517 288.438067 
L 334.415077 288.438067 
L 335.128582 286.155013 
L 335.842088 288.438067 
L 336.555593 286.155013 
L 339.409615 286.155013 
L 340.12312 288.438067 
L 347.258175 288.438067 
L 347.97168 286.155013 
L 352.252713 286.155013 
L 352.966218 288.438067 
L 360.101273 288.438067 
L 360.814778 286.155013 
L 365.095811 286.155013 
L 365.809316 288.438067 
L 373.657876 288.438067 
L 374.371382 286.155013 
L 377.938909 286.155013 
L 378.652414 288.438067 
L 379.36592 272.45669 
L 380.079425 217.663398 
L 380.792931 222.229506 
L 381.506436 222.229506 
L 382.219941 219.946452 
L 382.933447 222.229506 
L 383.646952 222.229506 
L 384.360458 215.380345 
L 385.073963 247.343098 
L 385.787469 240.493937 
L 386.500974 274.739744 
L 387.21448 274.739744 
L 387.927985 272.45669 
L 392.209018 272.45669 
L 392.922523 274.739744 
L 400.057577 274.739744 
L 400.771083 272.45669 
L 401.484588 274.739744 
L 402.198094 272.45669 
L 405.052116 272.45669 
L 405.765621 274.739744 
L 407.192632 274.739744 
L 407.906137 249.626152 
L 408.619643 274.739744 
L 409.333148 197.115914 
L 410.046654 274.739744 
L 410.760159 272.45669 
L 411.473665 274.739744 
L 412.18717 272.45669 
L 412.900675 274.739744 
L 413.614181 288.438067 
L 414.327686 247.343098 
L 415.041192 251.909206 
L 415.041192 251.909206 
" style="fill:none;stroke:#9467bd;stroke-linecap:square;stroke-width:1.5;"/>
   </g>
   <g id="patch_3">
    <path d="M 57.6 307.584 
L 57.6 41.472 
" style="fill:none;stroke:#000000;stroke-linecap:square;stroke-linejoin:miter;stroke-width:0.8;"/>
   </g>
   <g id="patch_4">
    <path d="M 414.72 307.584 
L 414.72 41.472 
" style="fill:none;stroke:#000000;stroke-linecap:square;stroke-linejoin:miter;stroke-width:0.8;"/>
   </g>
   <g id="patch_5">
    <path d="M 57.6 307.584 
L 414.72 307.584 
" style="fill:none;stroke:#000000;stroke-linecap:square;stroke-linejoin:miter;stroke-width:0.8;"/>
   </g>
   <g id="patch_6">
    <path d="M 57.6 41.472 
L 414.72 41.472 
" style="fill:none;stroke:#000000;stroke-linecap:square;stroke-linejoin:miter;stroke-width:0.8;"/>
   </g>
   <g id="text_14">
    <!-- Execution times -->
    <defs>
     <path d="M 9.8125 72.90625 
L 55.90625 72.90625 
L 55.90625 64.59375 
L 19.671875 64.59375 
L 19.671875 43.015625 
L 54.390625 43.015625 
L 54.390625 34.71875 
L 19.671875 34.71875 
L 19.671875 8.296875 
L 56.78125 8.296875 
L 56.78125 0 
L 9.8125 0 
z
" id="DejaVuSans-69"/>
    </defs>
    <g transform="translate(188.130938 35.472)scale(0.12 -0.12)">
     <use xlink:href="#DejaVuSans-69"/>
     <use x="63.183594" xlink:href="#DejaVuSans-120"/>
     <use x="119.238281" xlink:href="#DejaVuSans-101"/>
     <use x="180.761719" xlink:href="#DejaVuSans-99"/>
     <use x="235.742188" xlink:href="#DejaVuSans-117"/>
     <use x="299.121094" xlink:href="#DejaVuSans-116"/>
     <use x="338.330078" xlink:href="#DejaVuSans-105"/>
     <use x="366.113281" xlink:href="#DejaVuSans-111"/>
     <use x="427.294922" xlink:href="#DejaVuSans-110"/>
     <use x="490.673828" xlink:href="#DejaVuSans-32"/>
     <use x="522.460938" xlink:href="#DejaVuSans-116"/>
     <use x="561.669922" xlink:href="#DejaVuSans-105"/>
     <use x="589.453125" xlink:href="#DejaVuSans-109"/>
     <use x="686.865234" xlink:href="#DejaVuSans-101"/>
     <use x="748.388672" xlink:href="#DejaVuSans-115"/>
    </g>
   </g>
   <g id="legend_1">
    <g id="patch_7">
     <path d="M 289.815313 302.584 
L 407.72 302.584 
Q 409.72 302.584 409.72 300.584 
L 409.72 226.80275 
Q 409.72 224.80275 407.72 224.80275 
L 289.815313 224.80275 
Q 287.815313 224.80275 287.815313 226.80275 
L 287.815313 300.584 
Q 287.815313 302.584 289.815313 302.584 
z
" style="fill:#ffffff;opacity:0.8;stroke:#cccccc;stroke-linejoin:miter;"/>
    </g>
    <g id="line2d_16">
     <path d="M 291.815313 232.901187 
L 311.815313 232.901187 
" style="fill:none;stroke:#1f77b4;stroke-linecap:square;stroke-width:1.5;"/>
    </g>
    <g id="line2d_17"/>
    <g id="text_15">
     <!-- controller_1 -->
     <defs>
      <path d="M 41.109375 46.296875 
Q 39.59375 47.171875 37.8125 47.578125 
Q 36.03125 48 33.890625 48 
Q 26.265625 48 22.1875 43.046875 
Q 18.109375 38.09375 18.109375 28.8125 
L 18.109375 0 
L 9.078125 0 
L 9.078125 54.6875 
L 18.109375 54.6875 
L 18.109375 46.1875 
Q 20.953125 51.171875 25.484375 53.578125 
Q 30.03125 56 36.53125 56 
Q 37.453125 56 38.578125 55.875 
Q 39.703125 55.765625 41.0625 55.515625 
z
" id="DejaVuSans-114"/>
      <path d="M 9.421875 75.984375 
L 18.40625 75.984375 
L 18.40625 0 
L 9.421875 0 
z
" id="DejaVuSans-108"/>
      <path d="M 50.984375 -16.609375 
L 50.984375 -23.578125 
L -0.984375 -23.578125 
L -0.984375 -16.609375 
z
" id="DejaVuSans-95"/>
     </defs>
     <g transform="translate(319.815313 236.401187)scale(0.1 -0.1)">
      <use xlink:href="#DejaVuSans-99"/>
      <use x="54.980469" xlink:href="#DejaVuSans-111"/>
      <use x="116.162109" xlink:href="#DejaVuSans-110"/>
      <use x="179.541016" xlink:href="#DejaVuSans-116"/>
      <use x="218.75" xlink:href="#DejaVuSans-114"/>
      <use x="257.613281" xlink:href="#DejaVuSans-111"/>
      <use x="318.794922" xlink:href="#DejaVuSans-108"/>
      <use x="346.578125" xlink:href="#DejaVuSans-108"/>
      <use x="374.361328" xlink:href="#DejaVuSans-101"/>
      <use x="435.884766" xlink:href="#DejaVuSans-114"/>
      <use x="476.998047" xlink:href="#DejaVuSans-95"/>
      <use x="526.998047" xlink:href="#DejaVuSans-49"/>
     </g>
    </g>
    <g id="line2d_18">
     <path d="M 291.815313 247.857437 
L 311.815313 247.857437 
" style="fill:none;stroke:#ff7f0e;stroke-linecap:square;stroke-width:1.5;"/>
    </g>
    <g id="line2d_19"/>
    <g id="text_16">
     <!-- controller_2 -->
     <g transform="translate(319.815313 251.357437)scale(0.1 -0.1)">
      <use xlink:href="#DejaVuSans-99"/>
      <use x="54.980469" xlink:href="#DejaVuSans-111"/>
      <use x="116.162109" xlink:href="#DejaVuSans-110"/>
      <use x="179.541016" xlink:href="#DejaVuSans-116"/>
      <use x="218.75" xlink:href="#DejaVuSans-114"/>
      <use x="257.613281" xlink:href="#DejaVuSans-111"/>
      <use x="318.794922" xlink:href="#DejaVuSans-108"/>
      <use x="346.578125" xlink:href="#DejaVuSans-108"/>
      <use x="374.361328" xlink:href="#DejaVuSans-101"/>
      <use x="435.884766" xlink:href="#DejaVuSans-114"/>
      <use x="476.998047" xlink:href="#DejaVuSans-95"/>
      <use x="526.998047" xlink:href="#DejaVuSans-50"/>
     </g>
    </g>
    <g id="line2d_20">
     <path d="M 291.815313 262.813688 
L 311.815313 262.813688 
" style="fill:none;stroke:#2ca02c;stroke-linecap:square;stroke-width:1.5;"/>
    </g>
    <g id="line2d_21"/>
    <g id="text_17">
     <!-- controller_3 -->
     <g transform="translate(319.815313 266.313688)scale(0.1 -0.1)">
      <use xlink:href="#DejaVuSans-99"/>
      <use x="54.980469" xlink:href="#DejaVuSans-111"/>
      <use x="116.162109" xlink:href="#DejaVuSans-110"/>
      <use x="179.541016" xlink:href="#DejaVuSans-116"/>
      <use x="218.75" xlink:href="#DejaVuSans-114"/>
      <use x="257.613281" xlink:href="#DejaVuSans-111"/>
      <use x="318.794922" xlink:href="#DejaVuSans-108"/>
      <use x="346.578125" xlink:href="#DejaVuSans-108"/>
      <use x="374.361328" xlink:href="#DejaVuSans-101"/>
      <use x="435.884766" xlink:href="#DejaVuSans-114"/>
      <use x="476.998047" xlink:href="#DejaVuSans-95"/>
      <use x="526.998047" xlink:href="#DejaVuSans-51"/>
     </g>
    </g>
    <g id="line2d_22">
     <path d="M 291.815313 277.769937 
L 311.815313 277.769937 
" style="fill:none;stroke:#d62728;stroke-linecap:square;stroke-width:1.5;"/>
    </g>
    <g id="line2d_23"/>
    <g id="text_18">
     <!-- input_generator -->
     <defs>
      <path d="M 18.109375 8.203125 
L 18.109375 -20.796875 
L 9.078125 -20.796875 
L 9.078125 54.6875 
L 18.109375 54.6875 
L 18.109375 46.390625 
Q 20.953125 51.265625 25.265625 53.625 
Q 29.59375 56 35.59375 56 
Q 45.5625 56 51.78125 48.09375 
Q 58.015625 40.1875 58.015625 27.296875 
Q 58.015625 14.40625 51.78125 6.484375 
Q 45.5625 -1.421875 35.59375 -1.421875 
Q 29.59375 -1.421875 25.265625 0.953125 
Q 20.953125 3.328125 18.109375 8.203125 
z
M 48.6875 27.296875 
Q 48.6875 37.203125 44.609375 42.84375 
Q 40.53125 48.484375 33.40625 48.484375 
Q 26.265625 48.484375 22.1875 42.84375 
Q 18.109375 37.203125 18.109375 27.296875 
Q 18.109375 17.390625 22.1875 11.75 
Q 26.265625 6.109375 33.40625 6.109375 
Q 40.53125 6.109375 44.609375 11.75 
Q 48.6875 17.390625 48.6875 27.296875 
z
" id="DejaVuSans-112"/>
      <path d="M 45.40625 27.984375 
Q 45.40625 37.75 41.375 43.109375 
Q 37.359375 48.484375 30.078125 48.484375 
Q 22.859375 48.484375 18.828125 43.109375 
Q 14.796875 37.75 14.796875 27.984375 
Q 14.796875 18.265625 18.828125 12.890625 
Q 22.859375 7.515625 30.078125 7.515625 
Q 37.359375 7.515625 41.375 12.890625 
Q 45.40625 18.265625 45.40625 27.984375 
z
M 54.390625 6.78125 
Q 54.390625 -7.171875 48.1875 -13.984375 
Q 42 -20.796875 29.203125 -20.796875 
Q 24.46875 -20.796875 20.265625 -20.09375 
Q 16.0625 -19.390625 12.109375 -17.921875 
L 12.109375 -9.1875 
Q 16.0625 -11.328125 19.921875 -12.34375 
Q 23.78125 -13.375 27.78125 -13.375 
Q 36.625 -13.375 41.015625 -8.765625 
Q 45.40625 -4.15625 45.40625 5.171875 
L 45.40625 9.625 
Q 42.625 4.78125 38.28125 2.390625 
Q 33.9375 0 27.875 0 
Q 17.828125 0 11.671875 7.65625 
Q 5.515625 15.328125 5.515625 27.984375 
Q 5.515625 40.671875 11.671875 48.328125 
Q 17.828125 56 27.875 56 
Q 33.9375 56 38.28125 53.609375 
Q 42.625 51.21875 45.40625 46.390625 
L 45.40625 54.6875 
L 54.390625 54.6875 
z
" id="DejaVuSans-103"/>
      <path d="M 34.28125 27.484375 
Q 23.390625 27.484375 19.1875 25 
Q 14.984375 22.515625 14.984375 16.5 
Q 14.984375 11.71875 18.140625 8.90625 
Q 21.296875 6.109375 26.703125 6.109375 
Q 34.1875 6.109375 38.703125 11.40625 
Q 43.21875 16.703125 43.21875 25.484375 
L 43.21875 27.484375 
z
M 52.203125 31.203125 
L 52.203125 0 
L 43.21875 0 
L 43.21875 8.296875 
Q 40.140625 3.328125 35.546875 0.953125 
Q 30.953125 -1.421875 24.3125 -1.421875 
Q 15.921875 -1.421875 10.953125 3.296875 
Q 6 8.015625 6 15.921875 
Q 6 25.140625 12.171875 29.828125 
Q 18.359375 34.515625 30.609375 34.515625 
L 43.21875 34.515625 
L 43.21875 35.40625 
Q 43.21875 41.609375 39.140625 45 
Q 35.0625 48.390625 27.6875 48.390625 
Q 23 48.390625 18.546875 47.265625 
Q 14.109375 46.140625 10.015625 43.890625 
L 10.015625 52.203125 
Q 14.9375 54.109375 19.578125 55.046875 
Q 24.21875 56 28.609375 56 
Q 40.484375 56 46.34375 49.84375 
Q 52.203125 43.703125 52.203125 31.203125 
z
" id="DejaVuSans-97"/>
     </defs>
     <g transform="translate(319.815313 281.269937)scale(0.1 -0.1)">
      <use xlink:href="#DejaVuSans-105"/>
      <use x="27.783203" xlink:href="#DejaVuSans-110"/>
      <use x="91.162109" xlink:href="#DejaVuSans-112"/>
      <use x="154.638672" xlink:href="#DejaVuSans-117"/>
      <use x="218.017578" xlink:href="#DejaVuSans-116"/>
      <use x="257.226562" xlink:href="#DejaVuSans-95"/>
      <use x="307.226562" xlink:href="#DejaVuSans-103"/>
      <use x="370.703125" xlink:href="#DejaVuSans-101"/>
      <use x="432.226562" xlink:href="#DejaVuSans-110"/>
      <use x="495.605469" xlink:href="#DejaVuSans-101"/>
      <use x="557.128906" xlink:href="#DejaVuSans-114"/>
      <use x="598.242188" xlink:href="#DejaVuSans-97"/>
      <use x="659.521484" xlink:href="#DejaVuSans-116"/>
      <use x="698.730469" xlink:href="#DejaVuSans-111"/>
      <use x="759.912109" xlink:href="#DejaVuSans-114"/>
     </g>
    </g>
    <g id="line2d_24">
     <path d="M 291.815313 292.726187 
L 311.815313 292.726187 
" style="fill:none;stroke:#9467bd;stroke-linecap:square;stroke-width:1.5;"/>
    </g>
    <g id="line2d_25"/>
    <g id="text_19">
     <!-- vehicle_emulator -->
     <defs>
      <path d="M 2.984375 54.6875 
L 12.5 54.6875 
L 29.59375 8.796875 
L 46.6875 54.6875 
L 56.203125 54.6875 
L 35.6875 0 
L 23.484375 0 
z
" id="DejaVuSans-118"/>
      <path d="M 54.890625 33.015625 
L 54.890625 0 
L 45.90625 0 
L 45.90625 32.71875 
Q 45.90625 40.484375 42.875 44.328125 
Q 39.84375 48.1875 33.796875 48.1875 
Q 26.515625 48.1875 22.3125 43.546875 
Q 18.109375 38.921875 18.109375 30.90625 
L 18.109375 0 
L 9.078125 0 
L 9.078125 75.984375 
L 18.109375 75.984375 
L 18.109375 46.1875 
Q 21.34375 51.125 25.703125 53.5625 
Q 30.078125 56 35.796875 56 
Q 45.21875 56 50.046875 50.171875 
Q 54.890625 44.34375 54.890625 33.015625 
z
" id="DejaVuSans-104"/>
     </defs>
     <g transform="translate(319.815313 296.226187)scale(0.1 -0.1)">
      <use xlink:href="#DejaVuSans-118"/>
      <use x="59.179688" xlink:href="#DejaVuSans-101"/>
      <use x="120.703125" xlink:href="#DejaVuSans-104"/>
      <use x="184.082031" xlink:href="#DejaVuSans-105"/>
      <use x="211.865234" xlink:href="#DejaVuSans-99"/>
      <use x="266.845703" xlink:href="#DejaVuSans-108"/>
      <use x="294.628906" xlink:href="#DejaVuSans-101"/>
      <use x="356.152344" xlink:href="#DejaVuSans-95"/>
      <use x="406.152344" xlink:href="#DejaVuSans-101"/>
      <use x="467.675781" xlink:href="#DejaVuSans-109"/>
      <use x="565.087891" xlink:href="#DejaVuSans-117"/>
      <use x="628.466797" xlink:href="#DejaVuSans-108"/>
      <use x="656.25" xlink:href="#DejaVuSans-97"/>
      <use x="717.529297" xlink:href="#DejaVuSans-116"/>
      <use x="756.738281" xlink:href="#DejaVuSans-111"/>
      <use x="817.919922" xlink:href="#DejaVuSans-114"/>
     </g>
    </g>
   </g>
  </g>
 </g>
 <defs>
  <clipPath id="p743e80fbe0">
   <rect height="266.112" width="357.12" x="57.6" y="41.472"/>
  </clipPath>
 </defs>
</svg>
