<?xml version="1.0" encoding="utf-8" standalone="no"?>
<!DOCTYPE svg PUBLIC "-//W3C//DTD SVG 1.1//EN"
  "http://www.w3.org/Graphics/SVG/1.1/DTD/svg11.dtd">
<!-- Created with matplotlib (https://matplotlib.org/) -->
<svg height="345.6pt" version="1.1" viewBox="0 0 460.8 345.6" width="460.8pt" xmlns="http://www.w3.org/2000/svg" xmlns:xlink="http://www.w3.org/1999/xlink">
 <defs>
  <style type="text/css">
*{stroke-linecap:butt;stroke-linejoin:round;}
  </style>
 </defs>
 <g id="figure_1">
  <g id="patch_1">
   <path d="M 0 345.6 
L 460.8 345.6 
L 460.8 0 
L 0 0 
z
" style="fill:#ffffff;"/>
  </g>
  <g id="axes_1">
   <g id="patch_2">
    <path d="M 57.6 307.584 
L 414.72 307.584 
L 414.72 41.472 
L 57.6 41.472 
z
" style="fill:#ffffff;"/>
   </g>
   <g id="matplotlib.axis_1">
    <g id="xtick_1">
     <g id="line2d_1">
      <defs>
       <path d="M 0 0 
L 0 3.5 
" id="m24a6943690" style="stroke:#000000;stroke-width:0.8;"/>
      </defs>
      <g>
       <use style="stroke:#000000;stroke-width:0.8;" x="71.057193" xlink:href="#m24a6943690" y="307.584"/>
      </g>
     </g>
     <g id="text_1">
      <!-- 5000 -->
      <defs>
       <path d="M 10.796875 72.90625 
L 49.515625 72.90625 
L 49.515625 64.59375 
L 19.828125 64.59375 
L 19.828125 46.734375 
Q 21.96875 47.46875 24.109375 47.828125 
Q 26.265625 48.1875 28.421875 48.1875 
Q 40.625 48.1875 47.75 41.5 
Q 54.890625 34.8125 54.890625 23.390625 
Q 54.890625 11.625 47.5625 5.09375 
Q 40.234375 -1.421875 26.90625 -1.421875 
Q 22.3125 -1.421875 17.546875 -0.640625 
Q 12.796875 0.140625 7.71875 1.703125 
L 7.71875 11.625 
Q 12.109375 9.234375 16.796875 8.0625 
Q 21.484375 6.890625 26.703125 6.890625 
Q 35.15625 6.890625 40.078125 11.328125 
Q 45.015625 15.765625 45.015625 23.390625 
Q 45.015625 31 40.078125 35.4375 
Q 35.15625 39.890625 26.703125 39.890625 
Q 22.75 39.890625 18.8125 39.015625 
Q 14.890625 38.140625 10.796875 36.28125 
z
" id="DejaVuSans-53"/>
       <path d="M 31.78125 66.40625 
Q 24.171875 66.40625 20.328125 58.90625 
Q 16.5 51.421875 16.5 36.375 
Q 16.5 21.390625 20.328125 13.890625 
Q 24.171875 6.390625 31.78125 6.390625 
Q 39.453125 6.390625 43.28125 13.890625 
Q 47.125 21.390625 47.125 36.375 
Q 47.125 51.421875 43.28125 58.90625 
Q 39.453125 66.40625 31.78125 66.40625 
z
M 31.78125 74.21875 
Q 44.046875 74.21875 50.515625 64.515625 
Q 56.984375 54.828125 56.984375 36.375 
Q 56.984375 17.96875 50.515625 8.265625 
Q 44.046875 -1.421875 31.78125 -1.421875 
Q 19.53125 -1.421875 13.0625 8.265625 
Q 6.59375 17.96875 6.59375 36.375 
Q 6.59375 54.828125 13.0625 64.515625 
Q 19.53125 74.21875 31.78125 74.21875 
z
" id="DejaVuSans-48"/>
      </defs>
      <g transform="translate(58.332193 322.182437)scale(0.1 -0.1)">
       <use xlink:href="#DejaVuSans-53"/>
       <use x="63.623047" xlink:href="#DejaVuSans-48"/>
       <use x="127.246094" xlink:href="#DejaVuSans-48"/>
       <use x="190.869141" xlink:href="#DejaVuSans-48"/>
      </g>
     </g>
    </g>
    <g id="xtick_2">
     <g id="line2d_2">
      <g>
       <use style="stroke:#000000;stroke-width:0.8;" x="141.778541" xlink:href="#m24a6943690" y="307.584"/>
      </g>
     </g>
     <g id="text_2">
      <!-- 5100 -->
      <defs>
       <path d="M 12.40625 8.296875 
L 28.515625 8.296875 
L 28.515625 63.921875 
L 10.984375 60.40625 
L 10.984375 69.390625 
L 28.421875 72.90625 
L 38.28125 72.90625 
L 38.28125 8.296875 
L 54.390625 8.296875 
L 54.390625 0 
L 12.40625 0 
z
" id="DejaVuSans-49"/>
      </defs>
      <g transform="translate(129.053541 322.182437)scale(0.1 -0.1)">
       <use xlink:href="#DejaVuSans-53"/>
       <use x="63.623047" xlink:href="#DejaVuSans-49"/>
       <use x="127.246094" xlink:href="#DejaVuSans-48"/>
       <use x="190.869141" xlink:href="#DejaVuSans-48"/>
      </g>
     </g>
    </g>
    <g id="xtick_3">
     <g id="line2d_3">
      <g>
       <use style="stroke:#000000;stroke-width:0.8;" x="212.499889" xlink:href="#m24a6943690" y="307.584"/>
      </g>
     </g>
     <g id="text_3">
      <!-- 5200 -->
      <defs>
       <path d="M 19.1875 8.296875 
L 53.609375 8.296875 
L 53.609375 0 
L 7.328125 0 
L 7.328125 8.296875 
Q 12.9375 14.109375 22.625 23.890625 
Q 32.328125 33.6875 34.8125 36.53125 
Q 39.546875 41.84375 41.421875 45.53125 
Q 43.3125 49.21875 43.3125 52.78125 
Q 43.3125 58.59375 39.234375 62.25 
Q 35.15625 65.921875 28.609375 65.921875 
Q 23.96875 65.921875 18.8125 64.3125 
Q 13.671875 62.703125 7.8125 59.421875 
L 7.8125 69.390625 
Q 13.765625 71.78125 18.9375 73 
Q 24.125 74.21875 28.421875 74.21875 
Q 39.75 74.21875 46.484375 68.546875 
Q 53.21875 62.890625 53.21875 53.421875 
Q 53.21875 48.921875 51.53125 44.890625 
Q 49.859375 40.875 45.40625 35.40625 
Q 44.1875 33.984375 37.640625 27.21875 
Q 31.109375 20.453125 19.1875 8.296875 
z
" id="DejaVuSans-50"/>
      </defs>
      <g transform="translate(199.774889 322.182437)scale(0.1 -0.1)">
       <use xlink:href="#DejaVuSans-53"/>
       <use x="63.623047" xlink:href="#DejaVuSans-50"/>
       <use x="127.246094" xlink:href="#DejaVuSans-48"/>
       <use x="190.869141" xlink:href="#DejaVuSans-48"/>
      </g>
     </g>
    </g>
    <g id="xtick_4">
     <g id="line2d_4">
      <g>
       <use style="stroke:#000000;stroke-width:0.8;" x="283.221237" xlink:href="#m24a6943690" y="307.584"/>
      </g>
     </g>
     <g id="text_4">
      <!-- 5300 -->
      <defs>
       <path d="M 40.578125 39.3125 
Q 47.65625 37.796875 51.625 33 
Q 55.609375 28.21875 55.609375 21.1875 
Q 55.609375 10.40625 48.1875 4.484375 
Q 40.765625 -1.421875 27.09375 -1.421875 
Q 22.515625 -1.421875 17.65625 -0.515625 
Q 12.796875 0.390625 7.625 2.203125 
L 7.625 11.71875 
Q 11.71875 9.328125 16.59375 8.109375 
Q 21.484375 6.890625 26.8125 6.890625 
Q 36.078125 6.890625 40.9375 10.546875 
Q 45.796875 14.203125 45.796875 21.1875 
Q 45.796875 27.640625 41.28125 31.265625 
Q 36.765625 34.90625 28.71875 34.90625 
L 20.21875 34.90625 
L 20.21875 43.015625 
L 29.109375 43.015625 
Q 36.375 43.015625 40.234375 45.921875 
Q 44.09375 48.828125 44.09375 54.296875 
Q 44.09375 59.90625 40.109375 62.90625 
Q 36.140625 65.921875 28.71875 65.921875 
Q 24.65625 65.921875 20.015625 65.03125 
Q 15.375 64.15625 9.8125 62.3125 
L 9.8125 71.09375 
Q 15.4375 72.65625 20.34375 73.4375 
Q 25.25 74.21875 29.59375 74.21875 
Q 40.828125 74.21875 47.359375 69.109375 
Q 53.90625 64.015625 53.90625 55.328125 
Q 53.90625 49.265625 50.4375 45.09375 
Q 46.96875 40.921875 40.578125 39.3125 
z
" id="DejaVuSans-51"/>
      </defs>
      <g transform="translate(270.496237 322.182437)scale(0.1 -0.1)">
       <use xlink:href="#DejaVuSans-53"/>
       <use x="63.623047" xlink:href="#DejaVuSans-51"/>
       <use x="127.246094" xlink:href="#DejaVuSans-48"/>
       <use x="190.869141" xlink:href="#DejaVuSans-48"/>
      </g>
     </g>
    </g>
    <g id="xtick_5">
     <g id="line2d_5">
      <g>
       <use style="stroke:#000000;stroke-width:0.8;" x="353.942584" xlink:href="#m24a6943690" y="307.584"/>
      </g>
     </g>
     <g id="text_5">
      <!-- 5400 -->
      <defs>
       <path d="M 37.796875 64.3125 
L 12.890625 25.390625 
L 37.796875 25.390625 
z
M 35.203125 72.90625 
L 47.609375 72.90625 
L 47.609375 25.390625 
L 58.015625 25.390625 
L 58.015625 17.1875 
L 47.609375 17.1875 
L 47.609375 0 
L 37.796875 0 
L 37.796875 17.1875 
L 4.890625 17.1875 
L 4.890625 26.703125 
z
" id="DejaVuSans-52"/>
      </defs>
      <g transform="translate(341.217584 322.182437)scale(0.1 -0.1)">
       <use xlink:href="#DejaVuSans-53"/>
       <use x="63.623047" xlink:href="#DejaVuSans-52"/>
       <use x="127.246094" xlink:href="#DejaVuSans-48"/>
       <use x="190.869141" xlink:href="#DejaVuSans-48"/>
      </g>
     </g>
    </g>
    <g id="text_6">
     <!-- ticks -->
     <defs>
      <path d="M 18.3125 70.21875 
L 18.3125 54.6875 
L 36.8125 54.6875 
L 36.8125 47.703125 
L 18.3125 47.703125 
L 18.3125 18.015625 
Q 18.3125 11.328125 20.140625 9.421875 
Q 21.96875 7.515625 27.59375 7.515625 
L 36.8125 7.515625 
L 36.8125 0 
L 27.59375 0 
Q 17.1875 0 13.234375 3.875 
Q 9.28125 7.765625 9.28125 18.015625 
L 9.28125 47.703125 
L 2.6875 47.703125 
L 2.6875 54.6875 
L 9.28125 54.6875 
L 9.28125 70.21875 
z
" id="DejaVuSans-116"/>
      <path d="M 9.421875 54.6875 
L 18.40625 54.6875 
L 18.40625 0 
L 9.421875 0 
z
M 9.421875 75.984375 
L 18.40625 75.984375 
L 18.40625 64.59375 
L 9.421875 64.59375 
z
" id="DejaVuSans-105"/>
      <path d="M 48.78125 52.59375 
L 48.78125 44.1875 
Q 44.96875 46.296875 41.140625 47.34375 
Q 37.3125 48.390625 33.40625 48.390625 
Q 24.65625 48.390625 19.8125 42.84375 
Q 14.984375 37.3125 14.984375 27.296875 
Q 14.984375 17.28125 19.8125 11.734375 
Q 24.65625 6.203125 33.40625 6.203125 
Q 37.3125 6.203125 41.140625 7.25 
Q 44.96875 8.296875 48.78125 10.40625 
L 48.78125 2.09375 
Q 45.015625 0.34375 40.984375 -0.53125 
Q 36.96875 -1.421875 32.421875 -1.421875 
Q 20.0625 -1.421875 12.78125 6.34375 
Q 5.515625 14.109375 5.515625 27.296875 
Q 5.515625 40.671875 12.859375 48.328125 
Q 20.21875 56 33.015625 56 
Q 37.15625 56 41.109375 55.140625 
Q 45.0625 54.296875 48.78125 52.59375 
z
" id="DejaVuSans-99"/>
      <path d="M 9.078125 75.984375 
L 18.109375 75.984375 
L 18.109375 31.109375 
L 44.921875 54.6875 
L 56.390625 54.6875 
L 27.390625 29.109375 
L 57.625 0 
L 45.90625 0 
L 18.109375 26.703125 
L 18.109375 0 
L 9.078125 0 
z
" id="DejaVuSans-107"/>
      <path d="M 44.28125 53.078125 
L 44.28125 44.578125 
Q 40.484375 46.53125 36.375 47.5 
Q 32.28125 48.484375 27.875 48.484375 
Q 21.1875 48.484375 17.84375 46.4375 
Q 14.5 44.390625 14.5 40.28125 
Q 14.5 37.15625 16.890625 35.375 
Q 19.28125 33.59375 26.515625 31.984375 
L 29.59375 31.296875 
Q 39.15625 29.25 43.1875 25.515625 
Q 47.21875 21.78125 47.21875 15.09375 
Q 47.21875 7.46875 41.1875 3.015625 
Q 35.15625 -1.421875 24.609375 -1.421875 
Q 20.21875 -1.421875 15.453125 -0.5625 
Q 10.6875 0.296875 5.421875 2 
L 5.421875 11.28125 
Q 10.40625 8.6875 15.234375 7.390625 
Q 20.0625 6.109375 24.8125 6.109375 
Q 31.15625 6.109375 34.5625 8.28125 
Q 37.984375 10.453125 37.984375 14.40625 
Q 37.984375 18.0625 35.515625 20.015625 
Q 33.0625 21.96875 24.703125 23.78125 
L 21.578125 24.515625 
Q 13.234375 26.265625 9.515625 29.90625 
Q 5.8125 33.546875 5.8125 39.890625 
Q 5.8125 47.609375 11.28125 51.796875 
Q 16.75 56 26.8125 56 
Q 31.78125 56 36.171875 55.265625 
Q 40.578125 54.546875 44.28125 53.078125 
z
" id="DejaVuSans-115"/>
     </defs>
     <g transform="translate(224.561563 335.860562)scale(0.1 -0.1)">
      <use xlink:href="#DejaVuSans-116"/>
      <use x="39.208984" xlink:href="#DejaVuSans-105"/>
      <use x="66.992188" xlink:href="#DejaVuSans-99"/>
      <use x="121.972656" xlink:href="#DejaVuSans-107"/>
      <use x="179.882812" xlink:href="#DejaVuSans-115"/>
     </g>
    </g>
   </g>
   <g id="matplotlib.axis_2">
    <g id="ytick_1">
     <g id="line2d_6">
      <defs>
       <path d="M 0 0 
L -3.5 0 
" id="m01c37adc9d" style="stroke:#000000;stroke-width:0.8;"/>
      </defs>
      <g>
       <use style="stroke:#000000;stroke-width:0.8;" x="57.6" xlink:href="#m01c37adc9d" y="275.28277"/>
      </g>
     </g>
     <g id="text_7">
      <!-- 0.00008 -->
      <defs>
       <path d="M 10.6875 12.40625 
L 21 12.40625 
L 21 0 
L 10.6875 0 
z
" id="DejaVuSans-46"/>
       <path d="M 31.78125 34.625 
Q 24.75 34.625 20.71875 30.859375 
Q 16.703125 27.09375 16.703125 20.515625 
Q 16.703125 13.921875 20.71875 10.15625 
Q 24.75 6.390625 31.78125 6.390625 
Q 38.8125 6.390625 42.859375 10.171875 
Q 46.921875 13.96875 46.921875 20.515625 
Q 46.921875 27.09375 42.890625 30.859375 
Q 38.875 34.625 31.78125 34.625 
z
M 21.921875 38.8125 
Q 15.578125 40.375 12.03125 44.71875 
Q 8.5 49.078125 8.5 55.328125 
Q 8.5 64.0625 14.71875 69.140625 
Q 20.953125 74.21875 31.78125 74.21875 
Q 42.671875 74.21875 48.875 69.140625 
Q 55.078125 64.0625 55.078125 55.328125 
Q 55.078125 49.078125 51.53125 44.71875 
Q 48 40.375 41.703125 38.8125 
Q 48.828125 37.15625 52.796875 32.3125 
Q 56.78125 27.484375 56.78125 20.515625 
Q 56.78125 9.90625 50.3125 4.234375 
Q 43.84375 -1.421875 31.78125 -1.421875 
Q 19.734375 -1.421875 13.25 4.234375 
Q 6.78125 9.90625 6.78125 20.515625 
Q 6.78125 27.484375 10.78125 32.3125 
Q 14.796875 37.15625 21.921875 38.8125 
z
M 18.3125 54.390625 
Q 18.3125 48.734375 21.84375 45.5625 
Q 25.390625 42.390625 31.78125 42.390625 
Q 38.140625 42.390625 41.71875 45.5625 
Q 45.3125 48.734375 45.3125 54.390625 
Q 45.3125 60.0625 41.71875 63.234375 
Q 38.140625 66.40625 31.78125 66.40625 
Q 25.390625 66.40625 21.84375 63.234375 
Q 18.3125 60.0625 18.3125 54.390625 
z
" id="DejaVuSans-56"/>
      </defs>
      <g transform="translate(9.246875 279.081989)scale(0.1 -0.1)">
       <use xlink:href="#DejaVuSans-48"/>
       <use x="63.623047" xlink:href="#DejaVuSans-46"/>
       <use x="95.410156" xlink:href="#DejaVuSans-48"/>
       <use x="159.033203" xlink:href="#DejaVuSans-48"/>
       <use x="222.65625" xlink:href="#DejaVuSans-48"/>
       <use x="286.279297" xlink:href="#DejaVuSans-48"/>
       <use x="349.902344" xlink:href="#DejaVuSans-56"/>
      </g>
     </g>
    </g>
    <g id="ytick_2">
     <g id="line2d_7">
      <g>
       <use style="stroke:#000000;stroke-width:0.8;" x="57.6" xlink:href="#m01c37adc9d" y="233.62656"/>
      </g>
     </g>
     <g id="text_8">
      <!-- 0.00009 -->
      <defs>
       <path d="M 10.984375 1.515625 
L 10.984375 10.5 
Q 14.703125 8.734375 18.5 7.8125 
Q 22.3125 6.890625 25.984375 6.890625 
Q 35.75 6.890625 40.890625 13.453125 
Q 46.046875 20.015625 46.78125 33.40625 
Q 43.953125 29.203125 39.59375 26.953125 
Q 35.25 24.703125 29.984375 24.703125 
Q 19.046875 24.703125 12.671875 31.3125 
Q 6.296875 37.9375 6.296875 49.421875 
Q 6.296875 60.640625 12.9375 67.421875 
Q 19.578125 74.21875 30.609375 74.21875 
Q 43.265625 74.21875 49.921875 64.515625 
Q 56.59375 54.828125 56.59375 36.375 
Q 56.59375 19.140625 48.40625 8.859375 
Q 40.234375 -1.421875 26.421875 -1.421875 
Q 22.703125 -1.421875 18.890625 -0.6875 
Q 15.09375 0.046875 10.984375 1.515625 
z
M 30.609375 32.421875 
Q 37.25 32.421875 41.125 36.953125 
Q 45.015625 41.5 45.015625 49.421875 
Q 45.015625 57.28125 41.125 61.84375 
Q 37.25 66.40625 30.609375 66.40625 
Q 23.96875 66.40625 20.09375 61.84375 
Q 16.21875 57.28125 16.21875 49.421875 
Q 16.21875 41.5 20.09375 36.953125 
Q 23.96875 32.421875 30.609375 32.421875 
z
" id="DejaVuSans-57"/>
      </defs>
      <g transform="translate(9.246875 237.425779)scale(0.1 -0.1)">
       <use xlink:href="#DejaVuSans-48"/>
       <use x="63.623047" xlink:href="#DejaVuSans-46"/>
       <use x="95.410156" xlink:href="#DejaVuSans-48"/>
       <use x="159.033203" xlink:href="#DejaVuSans-48"/>
       <use x="222.65625" xlink:href="#DejaVuSans-48"/>
       <use x="286.279297" xlink:href="#DejaVuSans-48"/>
       <use x="349.902344" xlink:href="#DejaVuSans-57"/>
      </g>
     </g>
    </g>
    <g id="ytick_3">
     <g id="line2d_8">
      <g>
       <use style="stroke:#000000;stroke-width:0.8;" x="57.6" xlink:href="#m01c37adc9d" y="191.97035"/>
      </g>
     </g>
     <g id="text_9">
      <!-- 0.00010 -->
      <g transform="translate(9.246875 195.769568)scale(0.1 -0.1)">
       <use xlink:href="#DejaVuSans-48"/>
       <use x="63.623047" xlink:href="#DejaVuSans-46"/>
       <use x="95.410156" xlink:href="#DejaVuSans-48"/>
       <use x="159.033203" xlink:href="#DejaVuSans-48"/>
       <use x="222.65625" xlink:href="#DejaVuSans-48"/>
       <use x="286.279297" xlink:href="#DejaVuSans-49"/>
       <use x="349.902344" xlink:href="#DejaVuSans-48"/>
      </g>
     </g>
    </g>
    <g id="ytick_4">
     <g id="line2d_9">
      <g>
       <use style="stroke:#000000;stroke-width:0.8;" x="57.6" xlink:href="#m01c37adc9d" y="150.314139"/>
      </g>
     </g>
     <g id="text_10">
      <!-- 0.00011 -->
      <g transform="translate(9.246875 154.113358)scale(0.1 -0.1)">
       <use xlink:href="#DejaVuSans-48"/>
       <use x="63.623047" xlink:href="#DejaVuSans-46"/>
       <use x="95.410156" xlink:href="#DejaVuSans-48"/>
       <use x="159.033203" xlink:href="#DejaVuSans-48"/>
       <use x="222.65625" xlink:href="#DejaVuSans-48"/>
       <use x="286.279297" xlink:href="#DejaVuSans-49"/>
       <use x="349.902344" xlink:href="#DejaVuSans-49"/>
      </g>
     </g>
    </g>
    <g id="ytick_5">
     <g id="line2d_10">
      <g>
       <use style="stroke:#000000;stroke-width:0.8;" x="57.6" xlink:href="#m01c37adc9d" y="108.657929"/>
      </g>
     </g>
     <g id="text_11">
      <!-- 0.00012 -->
      <g transform="translate(9.246875 112.457148)scale(0.1 -0.1)">
       <use xlink:href="#DejaVuSans-48"/>
       <use x="63.623047" xlink:href="#DejaVuSans-46"/>
       <use x="95.410156" xlink:href="#DejaVuSans-48"/>
       <use x="159.033203" xlink:href="#DejaVuSans-48"/>
       <use x="222.65625" xlink:href="#DejaVuSans-48"/>
       <use x="286.279297" xlink:href="#DejaVuSans-49"/>
       <use x="349.902344" xlink:href="#DejaVuSans-50"/>
      </g>
     </g>
    </g>
    <g id="ytick_6">
     <g id="line2d_11">
      <g>
       <use style="stroke:#000000;stroke-width:0.8;" x="57.6" xlink:href="#m01c37adc9d" y="67.001719"/>
      </g>
     </g>
     <g id="text_12">
      <!-- 0.00013 -->
      <g transform="translate(9.246875 70.800937)scale(0.1 -0.1)">
       <use xlink:href="#DejaVuSans-48"/>
       <use x="63.623047" xlink:href="#DejaVuSans-46"/>
       <use x="95.410156" xlink:href="#DejaVuSans-48"/>
       <use x="159.033203" xlink:href="#DejaVuSans-48"/>
       <use x="222.65625" xlink:href="#DejaVuSans-48"/>
       <use x="286.279297" xlink:href="#DejaVuSans-49"/>
       <use x="349.902344" xlink:href="#DejaVuSans-51"/>
      </g>
     </g>
    </g>
    <g id="text_13">
     <!-- granularity time/s -->
     <defs>
      <path d="M 45.40625 27.984375 
Q 45.40625 37.75 41.375 43.109375 
Q 37.359375 48.484375 30.078125 48.484375 
Q 22.859375 48.484375 18.828125 43.109375 
Q 14.796875 37.75 14.796875 27.984375 
Q 14.796875 18.265625 18.828125 12.890625 
Q 22.859375 7.515625 30.078125 7.515625 
Q 37.359375 7.515625 41.375 12.890625 
Q 45.40625 18.265625 45.40625 27.984375 
z
M 54.390625 6.78125 
Q 54.390625 -7.171875 48.1875 -13.984375 
Q 42 -20.796875 29.203125 -20.796875 
Q 24.46875 -20.796875 20.265625 -20.09375 
Q 16.0625 -19.390625 12.109375 -17.921875 
L 12.109375 -9.1875 
Q 16.0625 -11.328125 19.921875 -12.34375 
Q 23.78125 -13.375 27.78125 -13.375 
Q 36.625 -13.375 41.015625 -8.765625 
Q 45.40625 -4.15625 45.40625 5.171875 
L 45.40625 9.625 
Q 42.625 4.78125 38.28125 2.390625 
Q 33.9375 0 27.875 0 
Q 17.828125 0 11.671875 7.65625 
Q 5.515625 15.328125 5.515625 27.984375 
Q 5.515625 40.671875 11.671875 48.328125 
Q 17.828125 56 27.875 56 
Q 33.9375 56 38.28125 53.609375 
Q 42.625 51.21875 45.40625 46.390625 
L 45.40625 54.6875 
L 54.390625 54.6875 
z
" id="DejaVuSans-103"/>
      <path d="M 41.109375 46.296875 
Q 39.59375 47.171875 37.8125 47.578125 
Q 36.03125 48 33.890625 48 
Q 26.265625 48 22.1875 43.046875 
Q 18.109375 38.09375 18.109375 28.8125 
L 18.109375 0 
L 9.078125 0 
L 9.078125 54.6875 
L 18.109375 54.6875 
L 18.109375 46.1875 
Q 20.953125 51.171875 25.484375 53.578125 
Q 30.03125 56 36.53125 56 
Q 37.453125 56 38.578125 55.875 
Q 39.703125 55.765625 41.0625 55.515625 
z
" id="DejaVuSans-114"/>
      <path d="M 34.28125 27.484375 
Q 23.390625 27.484375 19.1875 25 
Q 14.984375 22.515625 14.984375 16.5 
Q 14.984375 11.71875 18.140625 8.90625 
Q 21.296875 6.109375 26.703125 6.109375 
Q 34.1875 6.109375 38.703125 11.40625 
Q 43.21875 16.703125 43.21875 25.484375 
L 43.21875 27.484375 
z
M 52.203125 31.203125 
L 52.203125 0 
L 43.21875 0 
L 43.21875 8.296875 
Q 40.140625 3.328125 35.546875 0.953125 
Q 30.953125 -1.421875 24.3125 -1.421875 
Q 15.921875 -1.421875 10.953125 3.296875 
Q 6 8.015625 6 15.921875 
Q 6 25.140625 12.171875 29.828125 
Q 18.359375 34.515625 30.609375 34.515625 
L 43.21875 34.515625 
L 43.21875 35.40625 
Q 43.21875 41.609375 39.140625 45 
Q 35.0625 48.390625 27.6875 48.390625 
Q 23 48.390625 18.546875 47.265625 
Q 14.109375 46.140625 10.015625 43.890625 
L 10.015625 52.203125 
Q 14.9375 54.109375 19.578125 55.046875 
Q 24.21875 56 28.609375 56 
Q 40.484375 56 46.34375 49.84375 
Q 52.203125 43.703125 52.203125 31.203125 
z
" id="DejaVuSans-97"/>
      <path d="M 54.890625 33.015625 
L 54.890625 0 
L 45.90625 0 
L 45.90625 32.71875 
Q 45.90625 40.484375 42.875 44.328125 
Q 39.84375 48.1875 33.796875 48.1875 
Q 26.515625 48.1875 22.3125 43.546875 
Q 18.109375 38.921875 18.109375 30.90625 
L 18.109375 0 
L 9.078125 0 
L 9.078125 54.6875 
L 18.109375 54.6875 
L 18.109375 46.1875 
Q 21.34375 51.125 25.703125 53.5625 
Q 30.078125 56 35.796875 56 
Q 45.21875 56 50.046875 50.171875 
Q 54.890625 44.34375 54.890625 33.015625 
z
" id="DejaVuSans-110"/>
      <path d="M 8.5 21.578125 
L 8.5 54.6875 
L 17.484375 54.6875 
L 17.484375 21.921875 
Q 17.484375 14.15625 20.5 10.265625 
Q 23.53125 6.390625 29.59375 6.390625 
Q 36.859375 6.390625 41.078125 11.03125 
Q 45.3125 15.671875 45.3125 23.6875 
L 45.3125 54.6875 
L 54.296875 54.6875 
L 54.296875 0 
L 45.3125 0 
L 45.3125 8.40625 
Q 42.046875 3.421875 37.71875 1 
Q 33.40625 -1.421875 27.6875 -1.421875 
Q 18.265625 -1.421875 13.375 4.4375 
Q 8.5 10.296875 8.5 21.578125 
z
M 31.109375 56 
z
" id="DejaVuSans-117"/>
      <path d="M 9.421875 75.984375 
L 18.40625 75.984375 
L 18.40625 0 
L 9.421875 0 
z
" id="DejaVuSans-108"/>
      <path d="M 32.171875 -5.078125 
Q 28.375 -14.84375 24.75 -17.8125 
Q 21.140625 -20.796875 15.09375 -20.796875 
L 7.90625 -20.796875 
L 7.90625 -13.28125 
L 13.1875 -13.28125 
Q 16.890625 -13.28125 18.9375 -11.515625 
Q 21 -9.765625 23.484375 -3.21875 
L 25.09375 0.875 
L 2.984375 54.6875 
L 12.5 54.6875 
L 29.59375 11.921875 
L 46.6875 54.6875 
L 56.203125 54.6875 
z
" id="DejaVuSans-121"/>
      <path id="DejaVuSans-32"/>
      <path d="M 52 44.1875 
Q 55.375 50.25 60.0625 53.125 
Q 64.75 56 71.09375 56 
Q 79.640625 56 84.28125 50.015625 
Q 88.921875 44.046875 88.921875 33.015625 
L 88.921875 0 
L 79.890625 0 
L 79.890625 32.71875 
Q 79.890625 40.578125 77.09375 44.375 
Q 74.3125 48.1875 68.609375 48.1875 
Q 61.625 48.1875 57.5625 43.546875 
Q 53.515625 38.921875 53.515625 30.90625 
L 53.515625 0 
L 44.484375 0 
L 44.484375 32.71875 
Q 44.484375 40.625 41.703125 44.40625 
Q 38.921875 48.1875 33.109375 48.1875 
Q 26.21875 48.1875 22.15625 43.53125 
Q 18.109375 38.875 18.109375 30.90625 
L 18.109375 0 
L 9.078125 0 
L 9.078125 54.6875 
L 18.109375 54.6875 
L 18.109375 46.1875 
Q 21.1875 51.21875 25.484375 53.609375 
Q 29.78125 56 35.6875 56 
Q 41.65625 56 45.828125 52.96875 
Q 50 49.953125 52 44.1875 
z
" id="DejaVuSans-109"/>
      <path d="M 56.203125 29.59375 
L 56.203125 25.203125 
L 14.890625 25.203125 
Q 15.484375 15.921875 20.484375 11.0625 
Q 25.484375 6.203125 34.421875 6.203125 
Q 39.59375 6.203125 44.453125 7.46875 
Q 49.3125 8.734375 54.109375 11.28125 
L 54.109375 2.78125 
Q 49.265625 0.734375 44.1875 -0.34375 
Q 39.109375 -1.421875 33.890625 -1.421875 
Q 20.796875 -1.421875 13.15625 6.1875 
Q 5.515625 13.8125 5.515625 26.8125 
Q 5.515625 40.234375 12.765625 48.109375 
Q 20.015625 56 32.328125 56 
Q 43.359375 56 49.78125 48.890625 
Q 56.203125 41.796875 56.203125 29.59375 
z
M 47.21875 32.234375 
Q 47.125 39.59375 43.09375 43.984375 
Q 39.0625 48.390625 32.421875 48.390625 
Q 24.90625 48.390625 20.390625 44.140625 
Q 15.875 39.890625 15.1875 32.171875 
z
" id="DejaVuSans-101"/>
      <path d="M 25.390625 72.90625 
L 33.6875 72.90625 
L 8.296875 -9.28125 
L 0 -9.28125 
z
" id="DejaVuSans-47"/>
     </defs>
     <g transform="translate(3.167187 219.150656)rotate(-90)scale(0.1 -0.1)">
      <use xlink:href="#DejaVuSans-103"/>
      <use x="63.476562" xlink:href="#DejaVuSans-114"/>
      <use x="104.589844" xlink:href="#DejaVuSans-97"/>
      <use x="165.869141" xlink:href="#DejaVuSans-110"/>
      <use x="229.248047" xlink:href="#DejaVuSans-117"/>
      <use x="292.626953" xlink:href="#DejaVuSans-108"/>
      <use x="320.410156" xlink:href="#DejaVuSans-97"/>
      <use x="381.689453" xlink:href="#DejaVuSans-114"/>
      <use x="422.802734" xlink:href="#DejaVuSans-105"/>
      <use x="450.585938" xlink:href="#DejaVuSans-116"/>
      <use x="489.794922" xlink:href="#DejaVuSans-121"/>
      <use x="548.974609" xlink:href="#DejaVuSans-32"/>
      <use x="580.761719" xlink:href="#DejaVuSans-116"/>
      <use x="619.970703" xlink:href="#DejaVuSans-105"/>
      <use x="647.753906" xlink:href="#DejaVuSans-109"/>
      <use x="745.166016" xlink:href="#DejaVuSans-101"/>
      <use x="806.689453" xlink:href="#DejaVuSans-47"/>
      <use x="840.380859" xlink:href="#DejaVuSans-115"/>
     </g>
    </g>
   </g>
   <g id="line2d_12">
    <path clip-path="url(#p5dbf46c487)" d="M 56.912924 166.455921 
L 57.620137 284.484627 
L 58.327351 192.316096 
L 59.034564 192.666008 
L 59.741778 197.177376 
L 60.448991 258.966033 
L 61.156205 194.398907 
L 62.570631 191.1039 
L 63.277845 179.473486 
L 63.985058 201.8637 
L 64.692272 191.274691 
L 65.399485 193.011755 
L 66.106699 117.164127 
L 66.813912 197.177376 
L 67.521126 188.150475 
L 68.228339 190.583198 
L 68.935553 197.698079 
L 69.642766 164.718857 
L 70.34998 207.591428 
L 71.057193 194.748819 
L 71.764407 166.801667 
L 72.47162 211.932006 
L 73.178834 167.668116 
L 73.886047 209.849195 
L 74.593261 193.011755 
L 75.300474 182.943449 
L 76.007688 206.724979 
L 76.714901 171.837903 
L 77.422115 186.242621 
L 78.129328 204.638003 
L 79.543755 189.537627 
L 80.250968 177.044929 
L 80.958182 209.153536 
L 81.665395 192.666008 
L 82.372609 196.827464 
L 83.079822 174.616372 
L 83.787036 184.15981 
L 84.494249 211.75705 
L 85.201463 190.233286 
L 85.908676 194.228116 
L 86.61589 197.523122 
L 87.323103 167.843073 
L 88.030317 215.401968 
L 88.73753 168.018029 
L 89.444744 207.591428 
L 90.151957 199.610099 
L 90.859171 157.774767 
L 91.566384 287.258931 
L 92.273598 192.840964 
L 92.980811 192.491052 
L 93.688025 197.177376 
L 94.395238 258.966033 
L 95.102451 194.748819 
L 95.809665 192.661843 
L 96.516878 191.278857 
L 97.224092 189.19188 
L 97.931305 191.449647 
L 98.638519 191.274691 
L 99.345732 192.666008 
L 100.052946 171.317201 
L 100.760159 211.407137 
L 101.467373 192.320262 
L 102.174586 191.274691 
L 102.8818 179.648443 
L 103.589013 63.181844 
L 104.296227 192.666008 
L 105.00344 191.274691 
L 105.710654 197.00242 
L 106.417867 165.414516 
L 107.125081 207.070726 
L 107.832294 195.96518 
L 108.539508 164.718857 
L 109.246721 212.623499 
L 109.953935 172.533562 
L 110.661148 204.812959 
L 111.368361 192.666008 
L 112.075575 191.97035 
L 112.782788 198.389572 
L 113.490002 172.358606 
L 114.904429 205.333662 
L 115.611642 192.836799 
L 116.318856 197.698079 
L 117.026069 168.713687 
L 117.733283 208.97858 
L 118.440496 192.840964 
L 119.14771 196.827464 
L 119.854923 172.704352 
L 121.26935 207.070726 
L 121.976564 191.449647 
L 122.683777 193.011755 
L 123.390991 197.348166 
L 124.098204 167.847238 
L 124.805418 216.964076 
L 125.512631 167.147414 
L 126.219844 207.941341 
L 126.927058 199.430977 
L 127.634271 166.976623 
L 128.341485 281.531202 
L 129.048698 166.976623 
L 129.755912 218.355393 
L 130.463125 197.00242 
L 131.170339 262.090248 
L 131.877552 194.228116 
L 132.584766 192.666008 
L 133.291979 191.449647 
L 133.999193 191.274691 
L 134.706406 192.666008 
L 135.41362 192.836799 
L 136.120833 191.274691 
L 137.53526 155.346209 
L 138.242474 192.491052 
L 138.949687 194.398907 
L 139.656901 192.145306 
L 140.364114 191.449647 
L 141.071328 192.666008 
L 141.778541 191.274691 
L 142.485754 192.666008 
L 143.192968 191.274691 
L 143.900181 192.491052 
L 144.607395 191.274691 
L 145.314608 192.840964 
L 146.021822 191.274691 
L 146.729035 192.666008 
L 147.436249 191.274691 
L 148.143462 192.666008 
L 148.850676 191.274691 
L 149.557889 192.666008 
L 150.265103 191.099735 
L 150.972316 192.666008 
L 151.67953 191.274691 
L 152.386743 192.840964 
L 153.093957 191.274691 
L 153.80117 192.666008 
L 154.508384 191.274691 
L 155.215597 192.666008 
L 155.922811 191.099735 
L 156.630024 192.840964 
L 157.337238 191.274691 
L 158.044451 192.491052 
L 158.751664 191.449647 
L 159.458878 192.666008 
L 160.166091 191.099735 
L 160.873305 192.840964 
L 161.580518 191.274691 
L 162.287732 192.666008 
L 162.994945 191.274691 
L 163.702159 192.666008 
L 164.409372 191.099735 
L 165.116586 230.852256 
L 165.823799 196.827464 
L 166.531013 192.666008 
L 167.238226 191.1039 
L 167.94544 192.836799 
L 168.652653 191.624603 
L 169.359867 192.661843 
L 170.06708 191.278857 
L 170.774294 173.745758 
L 171.481507 148.752031 
L 172.188721 196.306761 
L 172.895934 191.1039 
L 173.603148 190.753988 
L 174.310361 193.532457 
L 175.017574 192.491052 
L 175.724788 189.366836 
L 176.432001 195.444478 
L 177.139215 182.943449 
L 177.846428 220.954741 
L 178.553642 182.077 
L 179.260855 222.171102 
L 179.968069 190.928944 
L 180.675282 192.666008 
L 181.382496 191.449647 
L 182.089709 192.666008 
L 182.796923 191.274691 
L 183.504136 192.666008 
L 184.21135 186.934114 
L 184.918563 197.006585 
L 185.625777 191.274691 
L 186.33299 192.491052 
L 187.040204 191.274691 
L 187.747417 192.666008 
L 188.454631 185.376172 
L 189.161844 198.739484 
L 189.869057 191.099735 
L 190.576271 192.840964 
L 191.283484 190.928944 
L 191.990698 193.011755 
L 192.697911 191.274691 
L 193.405125 192.491052 
L 194.112338 191.1039 
L 194.819552 192.836799 
L 195.526765 191.274691 
L 196.233979 192.840964 
L 196.941192 191.274691 
L 197.648406 192.491052 
L 198.355619 191.274691 
L 199.062833 183.639108 
L 199.770046 208.287087 
L 200.47726 192.491052 
L 201.184473 191.449647 
L 201.891687 182.943449 
L 202.5989 201.517953 
L 203.306114 192.316096 
L 204.013327 191.278857 
L 204.720541 161.940388 
L 205.427754 219.221842 
L 206.134967 192.491052 
L 206.842181 191.274691 
L 207.549394 158.474591 
L 208.256608 222.691805 
L 208.963821 192.316096 
L 209.671035 191.274691 
L 210.378248 186.938279 
L 211.085462 194.228116 
L 211.792675 192.316096 
L 212.499889 192.491052 
L 213.207102 191.274691 
L 213.914316 188.325431 
L 214.621529 192.666008 
L 215.328743 191.274691 
L 216.035956 106.925031 
L 216.74317 193.357501 
L 217.450383 187.979685 
L 218.157597 190.753988 
L 218.86481 197.698079 
L 219.572024 165.239559 
L 220.279237 207.070726 
L 220.986451 194.748819 
L 221.693664 166.801667 
L 222.400877 211.75705 
L 223.108091 168.367941 
L 223.815304 209.153536 
L 224.522518 193.182545 
L 225.229731 191.278857 
L 225.936945 198.389572 
L 226.644158 172.18365 
L 227.351372 190.583198 
L 228.058585 204.812959 
L 228.765799 192.840964 
L 229.473012 197.868869 
L 230.180226 169.059434 
L 230.887439 208.462043 
L 231.594653 192.836799 
L 232.301866 196.831629 
L 233.00908 173.570801 
L 233.716293 185.721918 
L 234.423507 211.236347 
L 235.13072 191.274691 
L 235.837934 193.186711 
L 236.545147 197.352332 
L 237.252361 168.538731 
L 237.959574 214.706309 
L 238.666787 168.192985 
L 239.374001 208.803624 
L 240.081214 198.393737 
L 240.788428 166.801667 
L 241.495641 278.236196 
L 242.202855 192.661843 
L 242.910068 192.491052 
L 243.617282 197.006585 
L 244.324495 260.182394 
L 245.031709 194.398907 
L 246.446136 191.278857 
L 247.153349 189.016924 
L 247.860563 191.278857 
L 248.567776 191.274691 
L 249.27499 192.666008 
L 249.982203 179.123574 
L 250.689417 146.844177 
L 251.39663 196.481717 
L 252.103844 190.928944 
L 252.811057 190.758154 
L 253.51827 194.05316 
L 254.225484 192.316096 
L 254.932697 189.541793 
L 255.639911 195.265356 
L 256.347124 190.928944 
L 257.054338 171.837903 
L 257.761551 205.508618 
L 258.468765 220.78395 
L 259.175978 184.330601 
L 259.883192 220.78395 
L 260.590405 190.928944 
L 261.297619 192.836799 
L 262.004832 191.278857 
L 262.712046 192.491052 
L 263.419259 191.449647 
L 264.126473 170.621542 
L 264.833686 213.144201 
L 265.5409 192.836799 
L 266.248113 191.278857 
L 266.955327 153.438355 
L 267.66254 230.327388 
L 268.369754 192.666008 
L 269.076967 191.449647 
L 269.78418 182.597702 
L 270.491394 201.168041 
L 271.198607 173.745758 
L 271.905821 210.019986 
L 272.613034 192.840964 
L 273.320248 191.449647 
L 274.027461 173.225055 
L 274.734675 210.365732 
L 275.441888 192.840964 
L 276.149102 191.274691 
L 276.856315 192.666008 
L 277.563529 191.274691 
L 278.270742 177.390676 
L 278.977956 209.674239 
L 279.685169 138.858681 
L 280.392383 245.948467 
L 281.099596 181.906209 
L 281.80681 146.319309 
L 282.514023 196.485883 
L 283.221237 190.928944 
L 283.92845 190.753988 
L 284.635664 193.707414 
L 285.342877 192.491052 
L 286.05009 189.712583 
L 286.757304 195.269521 
L 287.464517 190.233286 
L 288.171731 187.458982 
L 288.878944 190.579032 
L 289.586158 221.479609 
L 290.293371 190.928944 
L 291.000585 184.851303 
L 291.707798 192.666008 
L 292.415012 198.043825 
L 293.122225 213.83986 
L 293.829439 192.840964 
L 294.536652 191.274691 
L 295.243866 185.546962 
L 295.951079 198.218781 
L 296.658293 165.414516 
L 297.365506 218.526184 
L 298.07272 192.840964 
L 298.779933 191.274691 
L 299.487147 184.855469 
L 300.19436 198.910274 
L 300.901574 192.840964 
L 301.608787 191.099735 
L 302.316 158.474591 
L 303.023214 225.466108 
L 303.730427 192.840964 
L 304.437641 191.099735 
L 305.144854 192.840964 
L 305.852068 191.099735 
L 306.559281 179.302696 
L 307.266495 204.812959 
L 307.973708 192.666008 
L 308.680922 190.928944 
L 309.388135 175.999359 
L 310.095349 208.462043 
L 310.802562 118.376323 
L 311.509776 265.564376 
L 312.216989 152.742696 
L 312.924203 235.013712 
L 313.631416 192.145306 
L 314.33863 191.449647 
L 315.045843 139.204428 
L 315.753057 241.957802 
L 316.46027 192.320262 
L 317.167483 191.274691 
L 317.874697 129.66099 
L 318.58191 251.851152 
L 319.289124 192.316096 
L 319.996337 191.274691 
L 320.703551 172.879308 
L 321.410764 150.489095 
L 322.117978 192.661843 
L 322.825191 194.228116 
L 323.532405 192.316096 
L 324.239618 191.1039 
L 324.946832 192.836799 
L 325.654045 191.278857 
L 326.361259 192.661843 
L 327.068472 191.278857 
L 327.775686 192.661843 
L 328.482899 191.278857 
L 329.190113 192.661843 
L 329.897326 191.278857 
L 330.60454 192.661843 
L 331.311753 191.278857 
L 332.018967 192.661843 
L 332.72618 191.278857 
L 333.433393 192.661843 
L 334.140607 191.1039 
L 334.84782 192.836799 
L 335.555034 191.278857 
L 336.262247 192.661843 
L 336.969461 191.278857 
L 337.676674 192.661843 
L 338.383888 191.278857 
L 339.091101 192.661843 
L 339.798315 191.278857 
L 340.505528 192.661843 
L 341.212742 191.278857 
L 341.919955 192.661843 
L 342.627169 191.278857 
L 343.334382 192.661843 
L 344.041596 191.1039 
L 344.748809 192.836799 
L 345.456023 191.278857 
L 346.163236 192.661843 
L 346.87045 191.278857 
L 347.577663 192.661843 
L 348.284877 191.1039 
L 348.99209 235.013712 
L 349.699303 197.006585 
L 350.406517 193.703248 
L 351.11373 191.278857 
L 351.820944 174.091504 
L 352.528157 143.545005 
L 353.235371 196.310927 
L 353.942584 190.753988 
L 354.649798 191.274691 
L 355.357011 193.88237 
L 356.064225 192.316096 
L 356.771438 189.541793 
L 357.478652 195.265356 
L 358.893079 186.07183 
L 359.600292 221.300487 
L 360.307506 192.491052 
L 361.014719 184.509722 
L 361.721933 222.691805 
L 362.429146 186.934114 
L 363.13636 196.656673 
L 363.843573 191.278857 
L 364.550787 192.661843 
L 365.258 191.1039 
L 365.965213 192.836799 
L 366.672427 190.062495 
L 367.37964 193.878204 
L 368.086854 191.278857 
L 368.794067 192.661843 
L 369.501281 191.278857 
L 370.208494 183.809898 
L 370.915708 200.130801 
L 371.622921 192.661843 
L 372.330135 191.1039 
L 373.037348 192.836799 
L 373.744562 191.278857 
L 374.451775 192.661843 
L 375.158989 191.1039 
L 375.866202 192.836799 
L 376.573416 191.278857 
L 377.280629 192.661843 
L 377.987843 174.09567 
L 378.695056 209.845029 
L 379.40227 191.278857 
L 380.109483 180.860638 
L 380.816696 210.8906 
L 381.52391 193.703248 
L 382.231123 191.278857 
L 382.938337 110.91153 
L 384.352764 268.33868 
L 385.059977 141.462195 
L 385.767191 145.282069 
L 386.474404 154.825507 
L 387.181618 192.666008 
L 387.888831 191.274691 
L 388.596045 197.177376 
L 389.303258 164.548066 
L 390.010472 207.766385 
L 390.717685 195.440312 
L 391.424899 165.760262 
L 392.132112 212.277752 
L 392.839326 167.326536 
L 393.546539 210.194942 
L 394.253753 192.836799 
L 394.960966 191.449647 
L 395.66818 198.393737 
L 396.375393 171.487991 
L 397.082606 185.546962 
L 397.78982 210.715644 
L 398.497033 190.062495 
L 399.204247 200.647338 
L 399.91146 168.018029 
L 400.618674 209.503449 
L 401.325887 192.661843 
L 402.033101 197.006585 
L 402.740314 172.35444 
L 403.447528 190.928944 
L 404.154741 204.817125 
L 404.861955 193.703248 
L 405.569168 193.011755 
L 406.276382 197.698079 
L 406.983595 167.326536 
L 407.690809 216.268417 
L 408.398022 166.455921 
L 409.105236 209.153536 
L 409.812449 199.08523 
L 410.519663 166.110174 
L 411.226876 286.217526 
L 411.93409 190.753988 
L 412.641303 184.15981 
L 413.348516 205.683574 
L 414.05573 258.966033 
L 414.762943 194.403072 
L 414.762943 194.403072 
" style="fill:none;stroke:#1f77b4;stroke-linecap:square;stroke-width:1.5;"/>
   </g>
   <g id="line2d_13">
    <path clip-path="url(#p5dbf46c487)" d="M 56.912924 184.680513 
L 57.620137 199.260186 
L 58.327351 180.339936 
L 59.034564 203.425807 
L 59.741778 184.855469 
L 60.448991 202.555193 
L 61.156205 184.15981 
L 61.863418 199.780889 
L 62.570631 176.17848 
L 63.277845 204.987915 
L 63.985058 182.943449 
L 64.692272 201.168041 
L 65.399485 223.212507 
L 66.106699 165.243725 
L 66.813912 188.150475 
L 67.521126 199.435142 
L 68.228339 181.727087 
L 68.935553 202.734314 
L 69.642766 184.15981 
L 70.34998 197.523122 
L 71.057193 179.994189 
L 71.764407 224.428869 
L 72.47162 183.984854 
L 73.178834 193.357501 
L 73.886047 209.153536 
L 74.593261 199.089396 
L 75.300474 184.330601 
L 76.007688 199.610099 
L 76.714901 184.15981 
L 77.422115 199.605933 
L 78.129328 183.984854 
L 78.836541 199.955845 
L 79.543755 183.984854 
L 80.250968 199.780889 
L 80.958182 184.509722 
L 81.665395 199.260186 
L 82.372609 184.330601 
L 83.079822 199.610099 
L 83.787036 184.505557 
L 84.494249 199.260186 
L 85.201463 184.15981 
L 85.908676 199.605933 
L 86.61589 184.15981 
L 87.323103 199.780889 
L 88.030317 184.15981 
L 88.73753 199.610099 
L 89.444744 184.15981 
L 90.151957 199.605933 
L 90.859171 184.505557 
L 91.566384 199.435142 
L 92.273598 184.15981 
L 92.980811 199.780889 
L 93.688025 148.231329 
L 94.395238 241.091353 
L 95.102451 185.026259 
L 95.809665 199.605933 
L 96.516878 181.035594 
L 97.224092 199.435142 
L 97.931305 173.050099 
L 98.638519 212.973411 
L 99.345732 183.814064 
L 100.052946 199.780889 
L 100.760159 166.626711 
L 101.467373 214.189772 
L 102.174586 183.809898 
L 102.8818 199.610099 
L 103.589013 165.760262 
L 104.296227 160.032533 
L 105.00344 187.458982 
L 105.710654 199.435142 
L 106.417867 181.902044 
L 107.125081 202.209446 
L 107.832294 183.98902 
L 108.539508 199.605933 
L 109.246721 182.251956 
L 109.953935 202.209446 
L 110.661148 177.390676 
L 111.368361 224.774615 
L 112.075575 177.736423 
L 112.782788 225.816021 
L 113.490002 184.15981 
L 114.197215 199.435142 
L 114.904429 184.680513 
L 115.611642 199.605933 
L 116.318856 184.15981 
L 117.026069 199.605933 
L 117.733283 184.15981 
L 118.440496 199.610099 
L 119.14771 184.330601 
L 119.854923 199.435142 
L 120.562137 184.505557 
L 121.26935 199.435142 
L 121.976564 184.15981 
L 122.683777 199.605933 
L 123.390991 184.509722 
L 124.098204 199.430977 
L 124.805418 184.15981 
L 125.512631 199.610099 
L 126.219844 184.330601 
L 126.927058 199.435142 
L 127.634271 184.334766 
L 128.341485 199.605933 
L 129.048698 183.984854 
L 129.755912 199.780889 
L 130.463125 184.334766 
L 131.170339 199.605933 
L 131.877552 169.059434 
L 132.584766 223.212507 
L 133.291979 184.15981 
L 133.999193 199.610099 
L 134.706406 173.916548 
L 135.41362 210.369898 
L 136.120833 183.984854 
L 136.828047 199.610099 
L 137.53526 170.621542 
L 138.242474 71.513086 
L 138.949687 184.680513 
L 139.656901 199.08523 
L 140.364114 189.196046 
L 141.071328 172.875143 
L 141.778541 199.089396 
L 142.485754 204.117301 
L 143.192968 156.216824 
L 143.900181 221.129697 
L 144.607395 158.991128 
L 145.314608 218.70114 
L 146.021822 184.505557 
L 146.729035 199.610099 
L 148.143462 179.994189 
L 148.850676 176.695017 
L 149.557889 218.87193 
L 150.265103 184.680513 
L 150.972316 205.85853 
L 151.67953 159.51183 
L 152.386743 217.830525 
L 153.093957 161.078104 
L 153.80117 228.590324 
L 154.508384 164.20232 
L 155.215597 198.389572 
L 155.922811 198.218781 
L 156.630024 200.301592 
L 157.337238 185.030425 
L 158.044451 205.854365 
L 158.751664 159.166084 
L 159.458878 224.774615 
L 160.166091 157.778932 
L 160.873305 218.351228 
L 161.580518 189.887539 
L 162.287732 174.441416 
L 162.994945 273.891453 
L 163.702159 201.172206 
L 164.409372 184.505557 
L 165.116586 205.162871 
L 165.823799 253.933963 
L 166.531013 202.384402 
L 167.238226 184.330601 
L 167.94544 199.610099 
L 168.652653 182.768493 
L 169.359867 201.517953 
L 170.06708 184.15981 
L 170.774294 199.605933 
L 171.481507 165.243725 
L 172.188721 163.156749 
L 173.603148 202.730149 
L 174.310361 183.814064 
L 175.017574 199.780889 
L 175.724788 183.984854 
L 176.432001 199.780889 
L 177.139215 184.15981 
L 177.846428 192.666008 
L 178.553642 191.449647 
L 179.260855 199.435142 
L 179.968069 184.15981 
L 180.675282 199.605933 
L 181.382496 184.334766 
L 182.089709 199.605933 
L 182.796923 184.15981 
L 183.504136 199.605933 
L 184.21135 184.15981 
L 184.918563 199.780889 
L 185.625777 184.15981 
L 186.33299 199.610099 
L 187.040204 184.15981 
L 187.747417 199.605933 
L 188.454631 184.15981 
L 189.161844 199.780889 
L 189.869057 184.15981 
L 190.576271 199.605933 
L 191.283484 184.15981 
L 191.990698 199.780889 
L 192.697911 184.15981 
L 193.405125 199.610099 
L 194.112338 184.15981 
L 194.819552 199.780889 
L 195.526765 183.984854 
L 196.233979 199.780889 
L 196.941192 184.334766 
L 197.648406 199.430977 
L 198.355619 184.15981 
L 199.062833 199.780889 
L 199.770046 222.691805 
L 200.47726 205.337828 
L 201.184473 184.15981 
L 201.891687 199.605933 
L 202.5989 184.334766 
L 203.306114 199.780889 
L 204.013327 183.984854 
L 204.720541 199.780889 
L 205.427754 161.248894 
L 206.134967 219.913336 
L 206.842181 183.639108 
L 207.549394 199.780889 
L 208.256608 149.968393 
L 208.963821 231.198003 
L 209.671035 183.984854 
L 210.378248 199.605933 
L 211.085462 177.911379 
L 211.792675 203.080061 
L 212.499889 183.814064 
L 213.207102 199.605933 
L 213.914316 183.984854 
L 214.621529 196.831629 
L 215.328743 184.15981 
L 216.74317 212.798455 
L 217.450383 161.944553 
L 218.157597 187.804729 
L 218.86481 199.435142 
L 219.572024 182.422746 
L 220.279237 201.8637 
L 220.986451 183.984854 
L 221.693664 199.610099 
L 222.400877 182.768493 
L 223.108091 201.8637 
L 223.815304 177.390676 
L 224.522518 224.083122 
L 225.229731 177.561466 
L 225.936945 225.124527 
L 226.644158 183.809898 
L 227.351372 199.780889 
L 228.058585 183.98902 
L 228.765799 199.780889 
L 229.473012 184.15981 
L 230.180226 199.780889 
L 230.887439 184.330601 
L 231.594653 199.435142 
L 232.301866 183.984854 
L 233.00908 199.955845 
L 233.716293 184.334766 
L 234.423507 199.430977 
L 235.13072 183.98902 
L 235.837934 199.780889 
L 236.545147 184.505557 
L 237.252361 199.435142 
L 237.959574 184.15981 
L 238.666787 199.605933 
L 239.374001 184.15981 
L 240.081214 199.780889 
L 240.788428 184.15981 
L 241.495641 199.605933 
L 242.202855 184.15981 
L 242.910068 199.610099 
L 243.617282 184.15981 
L 244.324495 199.780889 
L 245.031709 142.5036 
L 245.738922 247.510575 
L 246.446136 185.546962 
L 247.153349 199.089396 
L 247.860563 180.860638 
L 248.567776 199.435142 
L 249.27499 176.349271 
L 249.982203 194.398907 
L 250.689417 139.55434 
L 251.39663 203.250851 
L 252.103844 183.984854 
L 252.811057 197.873035 
L 253.51827 186.763323 
L 254.225484 199.260186 
L 254.932697 182.422746 
L 255.639911 195.615268 
L 256.347124 211.932006 
L 257.054338 199.435142 
L 257.761551 184.680513 
L 258.468765 199.08523 
L 259.175978 177.390676 
L 259.883192 228.073787 
L 260.590405 183.809898 
L 261.297619 199.610099 
L 262.004832 184.680513 
L 262.712046 199.08523 
L 263.419259 184.680513 
L 264.126473 199.260186 
L 264.833686 184.15981 
L 265.5409 199.780889 
L 266.248113 184.334766 
L 266.955327 199.260186 
L 267.66254 184.505557 
L 268.369754 199.435142 
L 269.076967 184.330601 
L 269.78418 199.435142 
L 270.491394 184.680513 
L 271.198607 199.260186 
L 271.905821 184.15981 
L 272.613034 199.780889 
L 273.320248 184.334766 
L 274.027461 199.260186 
L 274.734675 184.505557 
L 275.441888 199.435142 
L 276.149102 184.15981 
L 276.856315 199.605933 
L 277.563529 184.680513 
L 278.270742 182.943449 
L 278.977956 202.384402 
L 279.685169 145.802772 
L 280.392383 238.833586 
L 281.80681 139.033637 
L 282.514023 203.596598 
L 283.221237 183.98902 
L 283.92845 197.868869 
L 284.635664 186.417577 
L 285.342877 199.435142 
L 286.05009 183.118405 
L 286.757304 201.688743 
L 287.464517 183.984854 
L 288.171731 193.186711 
L 288.878944 212.798455 
L 289.586158 192.836799 
L 290.293371 212.627664 
L 291.707798 184.15981 
L 292.415012 199.780889 
L 293.122225 184.15981 
L 293.829439 199.610099 
L 294.536652 184.15981 
L 295.243866 199.605933 
L 295.951079 184.334766 
L 296.658293 199.605933 
L 297.365506 184.15981 
L 298.07272 199.605933 
L 298.779933 177.044929 
L 299.487147 206.89577 
L 300.19436 184.15981 
L 300.901574 199.435142 
L 301.608787 184.334766 
L 302.316 199.605933 
L 303.023214 183.984854 
L 303.730427 199.955845 
L 304.437641 184.15981 
L 305.144854 199.605933 
L 305.852068 184.334766 
L 306.559281 199.435142 
L 307.266495 184.330601 
L 307.973708 199.610099 
L 308.680922 183.809898 
L 309.388135 184.334766 
L 310.095349 201.342997 
L 310.802562 125.320413 
L 311.509776 258.44533 
L 312.216989 159.34104 
L 312.924203 228.419534 
L 313.631416 199.260186 
L 314.33863 184.15981 
L 315.045843 146.494265 
L 315.753057 234.667965 
L 316.46027 199.260186 
L 317.167483 183.98902 
L 317.874697 136.425959 
L 318.58191 245.43193 
L 319.289124 198.910274 
L 319.996337 183.98902 
L 320.703551 84.184905 
L 321.410764 147.710626 
L 322.117978 199.605933 
L 322.825191 184.505557 
L 323.532405 203.77572 
L 324.239618 156.908317 
L 324.946832 215.401968 
L 325.654045 188.325431 
L 326.361259 172.358606 
L 327.068472 206.029321 
L 327.775686 174.612207 
L 328.482899 200.647338 
L 329.190113 201.517953 
L 329.897326 184.855469 
L 330.60454 197.868869 
L 331.311753 172.18365 
L 332.018967 197.177376 
L 332.72618 198.218781 
L 333.433393 199.610099 
L 334.140607 191.099735 
L 334.84782 175.137075 
L 335.555034 202.384402 
L 336.262247 199.430977 
L 336.969461 190.408242 
L 337.676674 179.648443 
L 338.383888 183.464151 
L 339.091101 213.83986 
L 339.798315 184.15981 
L 340.505528 200.130801 
L 341.212742 190.579032 
L 341.919955 175.137075 
L 342.627169 208.457878 
L 343.334382 173.400011 
L 344.041596 202.730149 
L 344.748809 205.333662 
L 345.456023 160.036699 
L 346.163236 292.116045 
L 346.87045 184.15981 
L 347.577663 199.610099 
L 348.284877 190.233286 
L 348.99209 277.019834 
L 349.699303 187.10907 
L 350.406517 199.605933 
L 351.11373 184.334766 
L 351.820944 180.169145 
L 352.528157 142.328644 
L 353.235371 199.605933 
L 353.942584 187.113235 
L 354.649798 199.430977 
L 355.357011 184.15981 
L 356.064225 199.610099 
L 356.771438 184.330601 
L 357.478652 199.610099 
L 358.185865 184.15981 
L 358.893079 195.786058 
L 359.600292 187.804729 
L 360.307506 199.780889 
L 361.014719 184.15981 
L 361.721933 199.780889 
L 362.429146 184.15981 
L 363.13636 199.610099 
L 363.843573 184.15981 
L 364.550787 199.780889 
L 365.258 184.15981 
L 365.965213 199.605933 
L 366.672427 184.680513 
L 367.37964 199.08523 
L 368.086854 184.509722 
L 368.794067 199.430977 
L 369.501281 184.334766 
L 370.208494 199.435142 
L 370.915708 184.15981 
L 371.622921 199.780889 
L 372.330135 184.15981 
L 373.037348 199.605933 
L 373.744562 184.15981 
L 374.451775 199.605933 
L 375.158989 184.680513 
L 375.866202 199.260186 
L 376.573416 184.15981 
L 377.280629 199.610099 
L 377.987843 184.330601 
L 378.695056 199.610099 
L 379.40227 184.15981 
L 380.109483 249.072683 
L 380.816696 187.458982 
L 381.52391 199.605933 
L 382.231123 184.15981 
L 382.938337 191.624603 
L 383.64555 188.496222 
L 384.352764 198.218781 
L 385.059977 183.118405 
L 385.767191 191.795394 
L 386.474404 136.255168 
L 387.181618 203.425807 
L 387.888831 183.984854 
L 388.596045 197.698079 
L 389.303258 186.592533 
L 390.010472 199.430977 
L 390.717685 184.15981 
L 391.424899 197.698079 
L 392.132112 186.763323 
L 392.839326 199.435142 
L 393.546539 184.15981 
L 394.253753 189.19188 
L 394.960966 241.612055 
L 395.66818 199.435142 
L 396.375393 184.505557 
L 397.082606 199.435142 
L 397.78982 183.984854 
L 398.497033 199.780889 
L 399.204247 184.15981 
L 399.91146 199.605933 
L 400.618674 184.334766 
L 401.325887 199.435142 
L 402.033101 184.15981 
L 402.740314 192.661843 
L 403.447528 191.624603 
L 404.154741 199.435142 
L 404.861955 184.15981 
L 405.569168 199.605933 
L 406.276382 184.15981 
L 406.983595 199.605933 
L 407.690809 184.334766 
L 408.398022 199.435142 
L 409.105236 184.505557 
L 409.812449 199.435142 
L 410.519663 184.680513 
L 411.226876 199.260186 
L 411.93409 184.15981 
L 412.641303 199.605933 
L 413.348516 184.15981 
L 414.05573 200.301592 
L 414.762943 187.284026 
L 414.762943 187.284026 
" style="fill:none;stroke:#ff7f0e;stroke-linecap:square;stroke-width:1.5;"/>
   </g>
   <g id="line2d_14">
    <path clip-path="url(#p5dbf46c487)" d="M 56.912924 184.15981 
L 57.620137 199.610099 
L 58.327351 184.15981 
L 59.034564 199.780889 
L 59.741778 184.15981 
L 60.448991 199.605933 
L 61.156205 185.026259 
L 61.863418 202.384402 
L 62.570631 184.334766 
L 63.277845 199.435142 
L 63.985058 175.999359 
L 64.692272 205.337828 
L 65.399485 182.422746 
L 66.813912 223.212507 
L 67.521126 165.068769 
L 68.228339 188.671178 
L 68.935553 199.089396 
L 69.642766 182.422746 
L 70.34998 202.038656 
L 71.057193 183.984854 
L 71.764407 197.523122 
L 72.47162 187.458982 
L 73.178834 198.739484 
L 73.886047 177.911379 
L 74.593261 223.908166 
L 75.300474 177.390676 
L 76.007688 225.295318 
L 76.714901 183.984854 
L 77.422115 199.435142 
L 78.129328 184.330601 
L 78.836541 199.610099 
L 79.543755 184.15981 
L 80.250968 199.605933 
L 80.958182 184.334766 
L 81.665395 199.430977 
L 82.372609 184.334766 
L 83.079822 199.435142 
L 83.787036 184.680513 
L 84.494249 199.260186 
L 85.201463 184.330601 
L 85.908676 199.610099 
L 86.61589 183.984854 
L 87.323103 199.780889 
L 88.030317 184.334766 
L 88.73753 199.430977 
L 89.444744 184.334766 
L 90.151957 199.605933 
L 90.859171 183.814064 
L 91.566384 199.955845 
L 92.273598 184.330601 
L 92.980811 199.610099 
L 93.688025 183.984854 
L 94.395238 199.780889 
L 95.102451 143.545005 
L 95.809665 245.60272 
L 96.516878 185.376172 
L 97.224092 199.430977 
L 97.931305 180.689848 
L 98.638519 199.780889 
L 99.345732 176.869973 
L 100.052946 187.629772 
L 100.760159 202.384402 
L 101.467373 199.260186 
L 102.174586 184.334766 
L 102.8818 180.514892 
L 103.589013 144.932157 
L 104.296227 203.080061 
L 105.00344 184.15981 
L 105.710654 197.352332 
L 106.417867 186.934114 
L 107.125081 196.831629 
L 107.832294 180.689848 
L 108.539508 224.945406 
L 109.246721 179.12774 
L 109.953935 204.467213 
L 110.661148 177.911379 
L 111.368361 225.295318 
L 112.075575 183.814064 
L 112.782788 199.780889 
L 113.490002 184.330601 
L 114.197215 199.435142 
L 114.904429 184.334766 
L 115.611642 199.430977 
L 116.318856 184.334766 
L 117.026069 199.605933 
L 117.733283 184.855469 
L 118.440496 198.91444 
L 119.14771 184.330601 
L 119.854923 199.610099 
L 120.562137 184.15981 
L 121.26935 199.605933 
L 121.976564 184.15981 
L 122.683777 199.780889 
L 123.390991 183.984854 
L 124.098204 199.780889 
L 124.805418 184.15981 
L 125.512631 199.780889 
L 126.219844 184.15981 
L 126.927058 199.610099 
L 127.634271 183.984854 
L 128.341485 199.780889 
L 129.048698 184.334766 
L 129.755912 199.605933 
L 130.463125 184.15981 
L 131.170339 190.408242 
L 131.877552 201.8637 
L 132.584766 199.605933 
L 133.291979 184.15981 
L 133.999193 189.887539 
L 135.41362 199.430977 
L 136.120833 184.15981 
L 136.828047 180.169145 
L 137.53526 148.752031 
L 138.242474 198.91444 
L 138.949687 187.454816 
L 139.656901 199.089396 
L 140.364114 184.330601 
L 141.071328 199.610099 
L 141.778541 184.330601 
L 142.485754 199.435142 
L 143.192968 184.15981 
L 143.900181 199.780889 
L 144.607395 184.334766 
L 145.314608 199.430977 
L 146.021822 184.334766 
L 146.729035 199.605933 
L 147.436249 184.15981 
L 148.143462 199.610099 
L 148.850676 184.330601 
L 149.557889 199.435142 
L 150.265103 184.15981 
L 150.972316 199.780889 
L 151.67953 184.15981 
L 152.386743 199.605933 
L 153.093957 184.334766 
L 153.80117 199.605933 
L 154.508384 184.15981 
L 155.215597 199.610099 
L 155.922811 179.29853 
L 156.630024 204.467213 
L 157.337238 184.15981 
L 158.044451 199.780889 
L 158.751664 184.15981 
L 159.458878 199.605933 
L 160.166091 184.334766 
L 160.873305 199.605933 
L 161.580518 184.334766 
L 162.287732 199.435142 
L 162.994945 184.15981 
L 163.702159 199.605933 
L 164.409372 184.15981 
L 165.116586 237.792181 
L 165.823799 189.887539 
L 166.531013 199.435142 
L 167.238226 184.330601 
L 167.94544 199.610099 
L 168.652653 184.680513 
L 169.359867 199.605933 
L 170.06708 184.334766 
L 170.774294 185.892709 
L 171.481507 55.896173 
L 172.188721 199.780889 
L 172.895934 184.15981 
L 173.603148 203.94651 
L 174.310361 157.949723 
L 175.017574 214.535519 
L 175.724788 189.016924 
L 176.432001 171.142244 
L 177.139215 202.905105 
L 177.846428 179.644277 
L 178.553642 195.96518 
L 179.260855 207.241516 
L 179.968069 184.15981 
L 180.675282 205.508618 
L 181.382496 164.723022 
L 182.089709 197.00242 
L 182.796923 198.739484 
L 183.504136 199.605933 
L 184.21135 190.928944 
L 184.918563 175.137075 
L 185.625777 202.555193 
L 186.33299 199.435142 
L 187.040204 164.198154 
L 187.747417 204.987915 
L 188.454631 183.814064 
L 189.161844 214.360563 
L 189.869057 184.334766 
L 190.576271 174.091504 
L 191.283484 216.268417 
L 191.990698 174.441416 
L 192.697911 208.80779 
L 193.405125 173.745758 
L 194.112338 201.168041 
L 194.819552 206.375067 
L 195.526765 158.820337 
L 196.233979 284.480462 
L 196.941192 169.409346 
L 197.648406 221.82119 
L 198.355619 190.062495 
L 199.062833 269.209295 
L 199.770046 187.454816 
L 200.47726 199.610099 
L 201.184473 184.15981 
L 201.891687 199.780889 
L 202.5989 184.15981 
L 203.306114 199.780889 
L 204.013327 184.330601 
L 204.720541 174.26646 
L 205.427754 206.550023 
L 206.134967 199.610099 
L 206.842181 183.984854 
L 207.549394 165.760262 
L 208.256608 215.401968 
L 209.671035 184.15981 
L 210.378248 193.878204 
L 211.085462 187.284026 
L 211.792675 199.089396 
L 212.499889 184.330601 
L 213.207102 199.435142 
L 213.914316 181.035594 
L 214.621529 199.780889 
L 215.328743 184.334766 
L 216.035956 227.898831 
L 216.74317 146.840011 
L 217.450383 203.080061 
L 218.157597 183.984854 
L 218.86481 197.698079 
L 219.572024 186.938279 
L 220.279237 197.00242 
L 220.986451 186.938279 
L 221.693664 193.186711 
L 222.400877 209.845029 
L 223.108091 192.320262 
L 223.815304 203.94651 
L 224.522518 204.292257 
L 225.229731 185.721918 
L 225.936945 198.218781 
L 226.644158 184.15981 
L 227.351372 199.605933 
L 228.058585 184.334766 
L 228.765799 199.435142 
L 229.473012 184.330601 
L 230.180226 199.610099 
L 230.887439 184.505557 
L 231.594653 199.260186 
L 232.301866 184.505557 
L 233.00908 199.260186 
L 233.716293 184.509722 
L 234.423507 199.260186 
L 235.13072 184.505557 
L 235.837934 199.435142 
L 236.545147 184.15981 
L 237.252361 199.780889 
L 237.959574 184.330601 
L 238.666787 199.435142 
L 239.374001 184.334766 
L 240.081214 199.430977 
L 240.788428 184.334766 
L 241.495641 194.748819 
L 242.202855 189.19188 
L 242.910068 199.435142 
L 243.617282 184.15981 
L 244.324495 164.023198 
L 245.031709 226.165933 
L 245.738922 200.472382 
L 246.446136 184.334766 
L 247.153349 195.790224 
L 247.860563 184.330601 
L 248.567776 189.196046 
L 249.27499 196.827464 
L 249.982203 199.260186 
L 250.689417 184.15981 
L 251.39663 184.509722 
L 252.103844 140.070877 
L 252.811057 202.905105 
L 253.51827 183.814064 
L 254.225484 197.873035 
L 254.932697 187.10907 
L 255.639911 199.08523 
L 256.347124 182.426912 
L 257.054338 195.440312 
L 257.761551 212.277752 
L 258.468765 192.836799 
L 259.175978 212.106962 
L 260.590405 184.505557 
L 261.297619 199.435142 
L 262.004832 184.680513 
L 262.712046 199.260186 
L 263.419259 184.15981 
L 264.126473 199.605933 
L 264.833686 184.334766 
L 265.5409 199.605933 
L 266.248113 183.984854 
L 266.955327 199.610099 
L 267.66254 184.505557 
L 268.369754 199.435142 
L 269.076967 184.330601 
L 269.78418 199.435142 
L 270.491394 184.505557 
L 271.198607 199.435142 
L 271.905821 184.505557 
L 272.613034 199.435142 
L 273.320248 184.334766 
L 274.027461 199.260186 
L 274.734675 184.505557 
L 275.441888 199.435142 
L 276.149102 184.505557 
L 276.856315 199.435142 
L 277.563529 184.15981 
L 278.270742 199.605933 
L 278.977956 184.15981 
L 279.685169 183.118405 
L 280.392383 202.730149 
L 281.099596 145.627816 
L 281.80681 238.662796 
L 283.221237 139.379384 
L 283.92845 203.425807 
L 284.635664 183.98902 
L 285.342877 197.523122 
L 286.05009 186.938279 
L 286.757304 199.260186 
L 287.464517 181.035594 
L 288.878944 213.148367 
L 290.293371 184.330601 
L 291.000585 193.186711 
L 291.707798 212.452708 
L 293.122225 184.330601 
L 293.829439 199.610099 
L 294.536652 184.330601 
L 295.243866 199.435142 
L 295.951079 184.334766 
L 296.658293 199.430977 
L 297.365506 184.334766 
L 298.07272 199.605933 
L 298.779933 184.15981 
L 299.487147 199.610099 
L 300.19436 184.15981 
L 300.901574 199.780889 
L 301.608787 184.330601 
L 302.316 199.435142 
L 303.023214 184.334766 
L 303.730427 199.605933 
L 304.437641 184.334766 
L 305.144854 199.430977 
L 305.852068 184.509722 
L 306.559281 199.260186 
L 307.266495 184.330601 
L 307.973708 199.610099 
L 308.680922 184.680513 
L 309.388135 199.08523 
L 310.095349 184.334766 
L 310.802562 183.809898 
L 311.509776 201.517953 
L 312.216989 125.145457 
L 312.924203 258.620286 
L 313.631416 159.515996 
L 314.33863 228.244578 
L 315.045843 199.08523 
L 315.753057 184.334766 
L 316.46027 146.148518 
L 317.167483 235.013712 
L 317.874697 199.089396 
L 318.58191 184.505557 
L 319.289124 136.255168 
L 319.996337 245.082018 
L 320.703551 199.08523 
L 321.410764 184.15981 
L 322.117978 178.952784 
L 322.825191 143.545005 
L 323.532405 199.435142 
L 324.239618 187.10907 
L 324.946832 199.435142 
L 325.654045 184.505557 
L 326.361259 199.435142 
L 327.068472 183.984854 
L 327.775686 199.780889 
L 328.482899 184.334766 
L 329.190113 199.605933 
L 329.897326 184.15981 
L 330.60454 199.610099 
L 331.311753 184.330601 
L 332.018967 199.610099 
L 332.72618 184.15981 
L 333.433393 199.605933 
L 334.140607 184.15981 
L 334.84782 199.605933 
L 335.555034 184.15981 
L 336.262247 199.610099 
L 336.969461 184.505557 
L 337.676674 199.435142 
L 338.383888 184.15981 
L 339.091101 199.780889 
L 339.798315 184.330601 
L 340.505528 199.435142 
L 341.212742 184.334766 
L 341.919955 199.430977 
L 342.627169 184.334766 
L 343.334382 199.605933 
L 344.041596 184.509722 
L 344.748809 199.260186 
L 345.456023 184.330601 
L 346.163236 199.610099 
L 346.87045 184.330601 
L 347.577663 194.403072 
L 348.284877 189.366836 
L 348.99209 199.430977 
L 349.699303 184.680513 
L 350.406517 245.60272 
L 351.11373 186.938279 
L 351.820944 199.605933 
L 352.528157 184.15981 
L 353.235371 88.700439 
L 354.649798 199.605933 
L 355.357011 184.334766 
L 356.064225 203.771554 
L 356.771438 156.216824 
L 357.478652 216.097627 
L 358.185865 188.325431 
L 358.893079 172.875143 
L 359.600292 205.162871 
L 360.307506 174.612207 
L 361.014719 201.517953 
L 361.721933 201.168041 
L 362.429146 184.509722 
L 363.13636 205.158706 
L 363.843573 165.243725 
L 364.550787 196.656673 
L 365.258 198.739484 
L 365.965213 199.605933 
L 366.672427 190.928944 
L 367.37964 175.482822 
L 368.086854 202.03449 
L 368.794067 198.91444 
L 369.501281 190.753988 
L 370.208494 179.473487 
L 370.915708 179.823399 
L 371.622921 218.180437 
L 372.330135 183.639108 
L 373.037348 200.822294 
L 373.744562 190.233286 
L 374.451775 174.787163 
L 375.158989 209.153536 
L 375.866202 178.086335 
L 376.573416 196.831629 
L 377.280629 206.375067 
L 377.987843 152.221994 
L 378.695056 294.723724 
L 379.40227 189.02109 
L 380.109483 200.126636 
L 380.816696 190.062495 
L 381.52391 275.803473 
L 382.231123 188.150475 
L 382.938337 199.260186 
L 383.64555 184.15981 
L 384.352764 191.1039 
L 385.059977 187.804729 
L 385.767191 198.043825 
L 386.474404 183.118405 
L 387.181618 191.97035 
L 387.888831 136.600915 
L 388.596045 203.080061 
L 389.303258 183.814064 
L 390.010472 197.698079 
L 390.717685 186.763323 
L 391.424899 197.523122 
L 392.132112 180.339936 
L 392.839326 229.460939 
L 393.546539 177.740588 
L 394.253753 229.285983 
L 394.960966 183.984854 
L 395.66818 199.610099 
L 396.375393 184.505557 
L 397.082606 199.435142 
L 397.78982 184.15981 
L 398.497033 199.605933 
L 399.204247 184.15981 
L 399.91146 199.605933 
L 400.618674 184.334766 
L 401.325887 199.435142 
L 402.033101 184.330601 
L 402.740314 199.610099 
L 403.447528 184.505557 
L 404.154741 199.435142 
L 404.861955 184.15981 
L 405.569168 199.605933 
L 406.276382 184.334766 
L 406.983595 199.430977 
L 407.690809 184.334766 
L 408.398022 199.435142 
L 409.105236 184.505557 
L 409.812449 199.435142 
L 410.519663 184.505557 
L 411.226876 199.260186 
L 411.93409 184.334766 
L 412.641303 199.605933 
L 413.348516 184.505557 
L 414.05573 199.435142 
L 414.762943 184.334766 
L 414.762943 184.334766 
" style="fill:none;stroke:#2ca02c;stroke-linecap:square;stroke-width:1.5;"/>
   </g>
   <g id="line2d_15">
    <path clip-path="url(#p5dbf46c487)" d="M 56.912924 183.984854 
L 57.620137 199.780889 
L 58.327351 183.814064 
L 59.034564 199.95168 
L 59.741778 183.98902 
L 60.448991 199.95168 
L 61.156205 183.814064 
L 61.863418 199.955845 
L 62.570631 183.809898 
L 63.277845 199.955845 
L 63.985058 178.952784 
L 64.692272 202.038656 
L 65.399485 183.464151 
L 66.106699 200.126636 
L 66.813912 191.278857 
L 67.521126 162.811002 
L 68.228339 187.10907 
L 68.935553 199.435142 
L 69.642766 182.077 
L 70.34998 202.384402 
L 71.057193 183.464151 
L 71.764407 198.043825 
L 72.47162 186.763323 
L 73.178834 182.426912 
L 73.886047 194.744653 
L 74.593261 199.260186 
L 75.300474 202.213612 
L 76.007688 225.986811 
L 76.714901 184.334766 
L 78.129328 194.05316 
L 78.836541 174.962119 
L 79.543755 208.80779 
L 80.250968 199.780889 
L 80.958182 183.809898 
L 81.665395 199.955845 
L 82.372609 183.814064 
L 83.079822 199.95168 
L 83.787036 179.302696 
L 84.494249 196.481717 
L 85.201463 191.97035 
L 85.908676 199.955845 
L 86.61589 183.809898 
L 87.323103 199.955845 
L 88.030317 183.984854 
L 88.73753 191.97035 
L 89.444744 191.624603 
L 90.151957 175.828568 
L 90.859171 208.287087 
L 91.566384 199.605933 
L 92.273598 183.984854 
L 92.980811 199.780889 
L 93.688025 183.98902 
L 94.395238 199.95168 
L 95.102451 147.710626 
L 95.809665 240.57065 
L 96.516878 185.026259 
L 97.224092 199.610099 
L 97.931305 174.612207 
L 98.638519 208.97858 
L 99.345732 183.814064 
L 100.052946 199.780889 
L 100.760159 177.390676 
L 101.467373 199.95168 
L 102.174586 184.509722 
L 102.8818 199.430977 
L 103.589013 187.633938 
L 104.296227 199.605933 
L 105.00344 183.814064 
L 105.710654 199.95168 
L 106.417867 184.15981 
L 107.125081 199.610099 
L 107.832294 183.809898 
L 108.539508 199.955845 
L 109.246721 181.21055 
L 109.953935 202.555193 
L 110.661148 179.823399 
L 111.368361 203.94651 
L 112.075575 184.15981 
L 112.782788 199.605933 
L 113.490002 184.15981 
L 114.197215 199.780889 
L 114.904429 183.639108 
L 115.611642 199.955845 
L 116.318856 184.15981 
L 117.026069 199.605933 
L 117.733283 184.334766 
L 118.440496 199.605933 
L 119.14771 183.984854 
L 119.854923 199.780889 
L 120.562137 183.98902 
L 121.26935 199.780889 
L 121.976564 183.984854 
L 122.683777 199.955845 
L 123.390991 183.984854 
L 124.098204 199.780889 
L 124.805418 183.814064 
L 125.512631 196.481717 
L 126.219844 187.629772 
L 126.927058 183.293361 
L 127.634271 200.126636 
L 128.341485 165.414516 
L 129.048698 218.355393 
L 130.463125 184.15981 
L 131.170339 199.780889 
L 131.877552 183.814064 
L 132.584766 199.780889 
L 133.291979 184.15981 
L 133.999193 199.780889 
L 134.706406 183.984854 
L 135.41362 199.780889 
L 136.120833 183.98902 
L 136.828047 199.780889 
L 137.53526 183.984854 
L 138.242474 199.780889 
L 138.949687 183.984854 
L 139.656901 199.780889 
L 140.364114 184.15981 
L 141.071328 199.780889 
L 141.778541 183.98902 
L 142.485754 199.780889 
L 143.192968 183.984854 
L 143.900181 199.780889 
L 144.607395 183.984854 
L 145.314608 199.780889 
L 146.021822 183.98902 
L 146.729035 199.780889 
L 147.436249 184.15981 
L 148.143462 199.430977 
L 148.850676 184.15981 
L 149.557889 199.955845 
L 150.265103 183.984854 
L 150.972316 199.780889 
L 151.67953 183.814064 
L 152.386743 199.955845 
L 153.093957 183.809898 
L 153.80117 199.955845 
L 154.508384 184.15981 
L 155.215597 199.605933 
L 155.922811 184.15981 
L 156.630024 199.610099 
L 157.337238 183.984854 
L 158.044451 199.780889 
L 158.751664 183.984854 
L 159.458878 199.955845 
L 160.166091 183.814064 
L 160.873305 199.95168 
L 161.580518 183.98902 
L 162.287732 199.780889 
L 162.994945 183.984854 
L 163.702159 199.780889 
L 164.409372 183.814064 
L 165.116586 199.95168 
L 165.823799 184.15981 
L 166.531013 199.610099 
L 167.238226 184.15981 
L 167.94544 199.780889 
L 168.652653 183.984854 
L 169.359867 199.780889 
L 170.06708 183.984854 
L 170.774294 199.780889 
L 171.481507 183.814064 
L 172.188721 199.780889 
L 172.895934 184.15981 
L 173.603148 199.780889 
L 174.310361 184.15981 
L 175.017574 199.605933 
L 175.724788 183.98902 
L 177.139215 194.748819 
L 177.846428 191.449647 
L 178.553642 192.14114 
L 179.260855 199.610099 
L 179.968069 184.15981 
L 180.675282 199.95168 
L 181.382496 183.98902 
L 182.089709 199.780889 
L 182.796923 183.984854 
L 183.504136 193.707414 
L 184.21135 190.05833 
L 184.918563 199.780889 
L 185.625777 183.814064 
L 186.33299 200.126636 
L 187.040204 183.639108 
L 187.747417 199.955845 
L 188.454631 183.984854 
L 189.161844 199.955845 
L 189.869057 184.15981 
L 190.576271 199.605933 
L 191.283484 183.98902 
L 191.990698 199.780889 
L 192.697911 183.809898 
L 193.405125 199.780889 
L 194.112338 184.15981 
L 194.819552 195.094565 
L 195.526765 188.675343 
L 196.233979 199.95168 
L 196.941192 183.98902 
L 197.648406 199.780889 
L 198.355619 183.984854 
L 199.062833 199.780889 
L 199.770046 183.984854 
L 200.47726 199.780889 
L 201.184473 183.98902 
L 201.891687 199.780889 
L 202.5989 184.15981 
L 203.306114 199.605933 
L 204.013327 184.15981 
L 204.720541 199.780889 
L 205.427754 183.984854 
L 206.134967 199.780889 
L 206.842181 183.98902 
L 207.549394 199.780889 
L 208.256608 183.984854 
L 208.963821 199.780889 
L 209.671035 183.984854 
L 210.378248 199.780889 
L 211.085462 179.12774 
L 211.792675 202.038656 
L 212.499889 183.639108 
L 213.207102 199.95168 
L 213.914316 184.334766 
L 214.621529 199.605933 
L 215.328743 183.98902 
L 216.035956 199.780889 
L 217.450383 161.598807 
L 218.157597 186.934114 
L 218.86481 199.610099 
L 219.572024 182.077 
L 220.279237 202.384402 
L 220.986451 145.277903 
L 221.693664 232.414364 
L 222.400877 208.282922 
L 223.108091 194.403072 
L 223.815304 208.282922 
L 224.522518 200.476548 
L 225.229731 183.984854 
L 225.936945 199.780889 
L 226.644158 183.98902 
L 227.351372 199.95168 
L 228.058585 183.639108 
L 228.765799 199.955845 
L 229.473012 184.15981 
L 230.180226 199.780889 
L 230.887439 184.15981 
L 231.594653 199.435142 
L 232.301866 184.15981 
L 233.00908 199.780889 
L 233.716293 149.964227 
L 234.423507 233.801516 
L 235.13072 183.984854 
L 235.837934 199.780889 
L 236.545147 184.334766 
L 237.252361 199.605933 
L 237.959574 144.065708 
L 238.666787 239.529245 
L 239.374001 184.15981 
L 240.081214 199.605933 
L 240.788428 184.334766 
L 241.495641 199.605933 
L 242.202855 183.98902 
L 242.910068 199.780889 
L 243.617282 183.984854 
L 244.324495 199.780889 
L 245.031709 150.314139 
L 245.738922 237.792181 
L 246.446136 183.814064 
L 247.153349 200.822294 
L 247.860563 175.999359 
L 248.567776 207.070726 
L 249.27499 183.639108 
L 249.982203 199.780889 
L 250.689417 104.321517 
L 251.39663 140.941492 
L 252.103844 183.984854 
L 252.811057 199.955845 
L 253.51827 188.496222 
L 254.225484 173.400011 
L 254.932697 198.739484 
L 255.639911 204.121466 
L 256.347124 153.263399 
L 257.054338 224.599659 
L 257.761551 135.213763 
L 258.468765 242.307714 
L 259.175978 184.330601 
L 259.883192 199.610099 
L 261.297619 179.823399 
L 262.004832 181.902044 
L 262.712046 214.014816 
L 263.419259 167.32237 
L 264.126473 223.558254 
L 264.833686 159.166084 
L 265.5409 218.005481 
L 266.248113 172.012859 
L 266.955327 217.830525 
L 267.66254 163.852408 
L 268.369754 194.05316 
L 269.076967 202.730149 
L 269.78418 200.651504 
L 270.491394 184.330601 
L 271.198607 206.204277 
L 271.905821 159.166084 
L 272.613034 225.470274 
L 273.320248 158.991128 
L 274.027461 218.526184 
L 274.734675 166.630877 
L 275.441888 198.043825 
L 276.149102 275.107814 
L 276.856315 199.780889 
L 277.563529 184.15981 
L 278.270742 205.162871 
L 278.977956 251.676196 
L 279.685169 202.038656 
L 280.392383 183.984854 
L 281.099596 199.780889 
L 281.80681 184.680513 
L 282.514023 199.435142 
L 283.221237 183.984854 
L 283.92845 199.780889 
L 284.635664 183.98902 
L 285.342877 199.780889 
L 286.05009 184.15981 
L 286.757304 199.605933 
L 287.464517 183.984854 
L 288.171731 199.780889 
L 288.878944 184.15981 
L 289.586158 199.780889 
L 290.293371 183.814064 
L 291.000585 199.780889 
L 291.707798 172.358606 
L 292.415012 211.407137 
L 293.122225 182.947614 
L 293.829439 200.993085 
L 294.536652 183.98902 
L 295.243866 199.780889 
L 295.951079 180.860638 
L 296.658293 202.905105 
L 297.365506 182.772658 
L 298.07272 201.168041 
L 298.779933 183.814064 
L 299.487147 199.780889 
L 300.19436 182.943449 
L 300.901574 200.99725 
L 301.608787 168.188819 
L 302.316 215.576924 
L 303.023214 182.772658 
L 303.730427 200.993085 
L 304.437641 183.118405 
L 305.144854 200.651504 
L 305.852068 183.289195 
L 306.559281 200.476548 
L 307.266495 154.825507 
L 307.973708 228.940236 
L 308.680922 184.15981 
L 309.388135 199.610099 
L 310.095349 177.390676 
L 310.802562 200.301592 
L 311.509776 183.984854 
L 312.216989 199.780889 
L 312.924203 187.804729 
L 313.631416 199.260186 
L 314.33863 183.984854 
L 315.045843 199.955845 
L 315.753057 183.639108 
L 316.46027 200.126636 
L 317.167483 183.814064 
L 317.874697 199.780889 
L 318.58191 183.293361 
L 319.289124 200.647338 
L 319.996337 183.984854 
L 320.703551 199.780889 
L 321.410764 183.98902 
L 322.117978 199.780889 
L 322.825191 183.984854 
L 323.532405 199.955845 
L 324.239618 183.984854 
L 324.946832 199.780889 
L 325.654045 183.814064 
L 326.361259 199.95168 
L 327.068472 184.334766 
L 327.775686 199.435142 
L 328.482899 183.984854 
L 329.190113 199.780889 
L 329.897326 183.984854 
L 330.60454 199.780889 
L 331.311753 184.15981 
L 332.018967 199.780889 
L 332.72618 183.814064 
L 333.433393 199.780889 
L 334.140607 183.984854 
L 334.84782 199.955845 
L 335.555034 183.984854 
L 336.262247 199.780889 
L 336.969461 183.98902 
L 337.676674 199.780889 
L 338.383888 184.15981 
L 339.091101 199.605933 
L 339.798315 183.814064 
L 340.505528 199.95168 
L 341.212742 183.98902 
L 341.919955 199.780889 
L 342.627169 184.15981 
L 343.334382 199.780889 
L 344.041596 183.984854 
L 344.748809 199.780889 
L 345.456023 183.984854 
L 346.163236 199.780889 
L 346.87045 183.814064 
L 347.577663 199.955845 
L 348.284877 183.984854 
L 348.99209 199.780889 
L 349.699303 183.984854 
L 350.406517 200.647338 
L 351.11373 183.984854 
L 351.820944 199.780889 
L 352.528157 184.15981 
L 353.235371 199.610099 
L 353.942584 183.809898 
L 354.649798 199.955845 
L 355.357011 183.984854 
L 356.064225 199.780889 
L 356.771438 183.98902 
L 357.478652 199.780889 
L 358.185865 183.809898 
L 358.893079 199.955845 
L 359.600292 183.984854 
L 360.307506 199.780889 
L 361.014719 183.98902 
L 361.721933 199.780889 
L 362.429146 183.809898 
L 363.13636 200.130801 
L 363.843573 183.984854 
L 364.550787 199.780889 
L 365.258 183.984854 
L 365.965213 197.873035 
L 366.672427 185.896874 
L 367.37964 199.780889 
L 368.086854 184.330601 
L 368.794067 199.610099 
L 369.501281 183.809898 
L 370.208494 199.780889 
L 370.915708 184.15981 
L 371.622921 199.610099 
L 372.330135 184.330601 
L 373.037348 198.739484 
L 373.744562 184.509722 
L 374.451775 200.126636 
L 375.158989 184.334766 
L 375.866202 199.430977 
L 376.573416 183.98902 
L 377.280629 199.605933 
L 377.987843 184.15981 
L 378.695056 199.955845 
L 379.40227 183.464151 
L 380.109483 200.126636 
L 380.816696 183.98902 
L 381.52391 199.95168 
L 382.231123 183.814064 
L 382.938337 199.955845 
L 383.64555 183.984854 
L 384.352764 199.780889 
L 385.059977 183.984854 
L 385.767191 199.780889 
L 386.474404 183.98902 
L 387.181618 199.95168 
L 387.888831 184.15981 
L 388.596045 199.435142 
L 389.303258 183.984854 
L 390.010472 199.955845 
L 390.717685 183.984854 
L 391.424899 181.035594 
L 392.132112 202.559358 
L 392.839326 199.955845 
L 393.546539 183.984854 
L 394.253753 199.780889 
L 394.960966 182.943449 
L 395.66818 200.99725 
L 396.375393 182.597702 
L 397.082606 182.597702 
L 397.78982 201.688743 
L 398.497033 200.651504 
L 399.204247 182.768493 
L 399.91146 200.99725 
L 400.618674 182.772658 
L 401.325887 200.993085 
L 402.033101 183.118405 
L 402.740314 200.651504 
L 403.447528 183.289195 
L 404.154741 200.301592 
L 404.861955 182.947614 
L 405.569168 201.168041 
L 406.276382 182.772658 
L 406.983595 200.993085 
L 407.690809 182.772658 
L 408.398022 200.822294 
L 409.105236 183.293361 
L 409.812449 200.647338 
L 410.519663 182.772658 
L 411.226876 200.993085 
L 411.93409 182.772658 
L 412.641303 200.99725 
L 413.348516 182.943449 
L 414.05573 200.99725 
L 414.762943 182.768493 
L 414.762943 182.768493 
" style="fill:none;stroke:#d62728;stroke-linecap:square;stroke-width:1.5;"/>
   </g>
   <g id="line2d_16">
    <path clip-path="url(#p5dbf46c487)" d="M 56.912924 199.08523 
L 57.620137 184.680513 
L 58.327351 199.089396 
L 59.034564 184.680513 
L 59.741778 199.08523 
L 60.448991 184.334766 
L 61.156205 199.430977 
L 61.863418 162.119509 
L 62.570631 221.475443 
L 63.277845 112.477803 
L 63.985058 271.28794 
L 64.692272 183.639108 
L 65.399485 200.130801 
L 66.106699 182.943449 
L 66.813912 201.168041 
L 67.521126 197.352332 
L 68.228339 162.115344 
L 68.935553 188.325431 
L 69.642766 199.089396 
L 70.34998 182.422746 
L 71.057193 201.688743 
L 71.764407 184.509722 
L 72.47162 197.177376 
L 73.178834 187.284026 
L 73.886047 192.316096 
L 74.593261 209.499283 
L 75.300474 192.320262 
L 76.007688 210.540688 
L 76.714901 198.91444 
L 77.422115 146.494265 
L 78.129328 237.096522 
L 78.836541 184.680513 
L 79.543755 199.089396 
L 80.250968 184.505557 
L 80.958182 199.260186 
L 81.665395 184.505557 
L 83.079822 194.228116 
L 83.787036 170.446586 
L 84.494249 180.169145 
L 85.201463 232.410199 
L 85.908676 184.509722 
L 86.61589 199.260186 
L 87.323103 184.505557 
L 88.030317 199.260186 
L 88.73753 151.701291 
L 89.444744 231.893662 
L 90.151957 184.505557 
L 90.859171 199.260186 
L 91.566384 184.505557 
L 92.273598 199.089396 
L 92.980811 184.851303 
L 93.688025 198.91444 
L 94.395238 184.505557 
L 95.102451 199.260186 
L 95.809665 148.926987 
L 96.516878 239.529245 
L 97.224092 185.372006 
L 97.931305 199.089396 
L 98.638519 175.307865 
L 99.345732 207.416472 
L 100.052946 184.15981 
L 100.760159 199.08523 
L 101.467373 158.474591 
L 102.174586 221.996146 
L 102.8818 184.334766 
L 103.589013 199.260186 
L 104.296227 185.201215 
L 105.00344 199.08523 
L 105.710654 184.15981 
L 106.417867 199.435142 
L 107.125081 184.680513 
L 107.832294 199.08523 
L 108.539508 184.505557 
L 109.246721 199.260186 
L 109.953935 185.376172 
L 110.661148 177.21572 
L 111.368361 205.854365 
L 112.075575 199.260186 
L 112.782788 184.509722 
L 113.490002 199.260186 
L 114.197215 184.330601 
L 114.904429 199.260186 
L 115.611642 184.509722 
L 116.318856 199.260186 
L 117.026069 184.330601 
L 117.733283 199.435142 
L 118.440496 184.334766 
L 119.14771 199.430977 
L 119.854923 184.509722 
L 120.562137 199.260186 
L 121.26935 166.801667 
L 121.976564 216.78912 
L 122.683777 184.509722 
L 123.390991 199.260186 
L 124.098204 184.505557 
L 124.805418 199.260186 
L 125.512631 163.156749 
L 126.219844 220.438204 
L 126.927058 152.047038 
L 127.634271 231.718706 
L 128.341485 184.505557 
L 129.048698 199.089396 
L 129.755912 184.505557 
L 130.463125 199.435142 
L 131.170339 184.505557 
L 131.877552 199.08523 
L 132.584766 163.681617 
L 133.291979 216.964076 
L 133.999193 184.505557 
L 134.706406 199.260186 
L 135.41362 127.228267 
L 136.120833 253.588216 
L 136.828047 184.505557 
L 137.53526 199.089396 
L 138.242474 185.372006 
L 138.949687 198.739484 
L 139.656901 184.509722 
L 140.364114 199.260186 
L 141.071328 184.330601 
L 141.778541 199.435142 
L 142.485754 184.505557 
L 143.192968 199.089396 
L 143.900181 184.680513 
L 144.607395 199.08523 
L 145.314608 184.334766 
L 146.021822 199.430977 
L 146.729035 184.680513 
L 147.436249 199.089396 
L 148.143462 184.680513 
L 148.850676 198.910274 
L 149.557889 184.509722 
L 150.265103 199.08523 
L 150.972316 184.680513 
L 151.67953 199.260186 
L 152.386743 184.505557 
L 153.093957 198.91444 
L 153.80117 184.680513 
L 154.508384 199.260186 
L 155.215597 184.505557 
L 155.922811 199.260186 
L 156.630024 184.509722 
L 157.337238 199.08523 
L 158.044451 184.680513 
L 158.751664 199.08523 
L 159.458878 184.509722 
L 160.166091 199.260186 
L 160.873305 184.505557 
L 161.580518 199.08523 
L 162.287732 184.680513 
L 162.994945 199.089396 
L 163.702159 184.505557 
L 164.409372 199.260186 
L 165.116586 184.505557 
L 165.823799 199.260186 
L 166.531013 184.334766 
L 167.238226 199.435142 
L 167.94544 184.330601 
L 168.652653 199.260186 
L 169.359867 184.334766 
L 170.06708 199.435142 
L 170.774294 184.330601 
L 171.481507 199.260186 
L 172.188721 184.855469 
L 172.895934 198.91444 
L 173.603148 184.505557 
L 174.310361 199.260186 
L 175.017574 184.334766 
L 175.724788 199.430977 
L 176.432001 184.15981 
L 177.139215 199.435142 
L 177.846428 183.464151 
L 178.553642 200.301592 
L 179.260855 184.334766 
L 179.968069 199.260186 
L 180.675282 184.680513 
L 181.382496 199.260186 
L 182.089709 184.505557 
L 182.796923 199.089396 
L 183.504136 184.505557 
L 184.21135 199.260186 
L 184.918563 184.334766 
L 185.625777 199.260186 
L 186.33299 184.851303 
L 187.040204 198.91444 
L 187.747417 184.505557 
L 188.454631 199.260186 
L 189.161844 184.509722 
L 189.869057 199.260186 
L 190.576271 184.505557 
L 191.283484 199.260186 
L 191.990698 184.505557 
L 192.697911 199.089396 
L 193.405125 173.745758 
L 194.112338 210.019986 
L 194.819552 184.334766 
L 195.526765 199.260186 
L 196.233979 184.15981 
L 196.941192 199.605933 
L 197.648406 184.505557 
L 198.355619 199.260186 
L 199.062833 184.509722 
L 199.770046 199.08523 
L 200.47726 184.505557 
L 201.184473 199.435142 
L 201.891687 184.505557 
L 202.5989 199.089396 
L 203.306114 184.505557 
L 204.013327 199.260186 
L 204.720541 184.505557 
L 205.427754 199.260186 
L 206.134967 184.509722 
L 206.842181 199.08523 
L 207.549394 184.505557 
L 208.256608 199.260186 
L 208.963821 184.855469 
L 209.671035 198.91444 
L 210.378248 184.505557 
L 211.085462 199.260186 
L 211.792675 176.174315 
L 212.499889 201.342997 
L 213.207102 181.21055 
L 213.914316 202.559358 
L 214.621529 185.546962 
L 215.328743 198.739484 
L 216.035956 182.943449 
L 216.74317 200.647338 
L 217.450383 188.325431 
L 218.157597 162.2903 
L 218.86481 187.458982 
L 219.572024 198.739484 
L 220.279237 183.118405 
L 220.986451 201.168041 
L 221.693664 184.334766 
L 222.400877 197.352332 
L 223.108091 180.16498 
L 223.815304 223.908166 
L 224.522518 177.911379 
L 225.229731 224.774615 
L 225.936945 184.15981 
L 226.644158 199.435142 
L 227.351372 184.680513 
L 228.058585 198.910274 
L 228.765799 184.509722 
L 229.473012 199.260186 
L 230.180226 184.505557 
L 230.887439 199.260186 
L 231.594653 184.334766 
L 232.301866 199.430977 
L 233.00908 184.334766 
L 233.716293 199.260186 
L 234.423507 184.505557 
L 235.13072 199.260186 
L 235.837934 184.509722 
L 236.545147 199.260186 
L 237.252361 184.330601 
L 237.959574 199.435142 
L 238.666787 184.334766 
L 239.374001 199.260186 
L 240.081214 184.505557 
L 240.788428 199.08523 
L 241.495641 185.201215 
L 242.202855 198.91444 
L 242.910068 184.851303 
L 243.617282 198.91444 
L 244.324495 184.505557 
L 245.031709 199.260186 
L 245.738922 145.977728 
L 246.446136 242.303549 
L 247.153349 185.546962 
L 247.860563 199.089396 
L 248.567776 175.478656 
L 249.27499 207.420638 
L 249.982203 184.15981 
L 250.689417 199.260186 
L 251.39663 184.851303 
L 252.103844 198.91444 
L 252.811057 184.855469 
L 253.51827 198.910274 
L 254.225484 184.334766 
L 254.932697 199.435142 
L 255.639911 184.505557 
L 256.347124 176.695017 
L 257.054338 206.899935 
L 257.761551 199.260186 
L 258.468765 184.505557 
L 259.175978 199.260186 
L 259.883192 184.680513 
L 260.590405 199.08523 
L 261.297619 184.509722 
L 262.004832 199.08523 
L 262.712046 184.680513 
L 263.419259 176.349271 
L 264.126473 207.070726 
L 264.833686 199.260186 
L 265.5409 184.680513 
L 266.248113 159.861743 
L 266.955327 223.73321 
L 267.66254 199.260186 
L 268.369754 184.505557 
L 269.076967 180.860638 
L 269.78418 202.905105 
L 270.491394 180.689848 
L 271.198607 202.730149 
L 271.905821 199.435142 
L 272.613034 184.334766 
L 273.320248 180.860638 
L 274.027461 203.080061 
L 274.734675 199.260186 
L 275.441888 184.330601 
L 276.149102 199.260186 
L 276.856315 184.509722 
L 277.563529 199.260186 
L 278.270742 184.505557 
L 278.977956 199.260186 
L 279.685169 184.505557 
L 280.392383 199.089396 
L 281.099596 184.680513 
L 281.80681 199.08523 
L 282.514023 81.581392 
L 283.221237 162.811002 
L 283.92845 184.680513 
L 284.635664 199.260186 
L 285.342877 188.846134 
L 286.05009 172.879308 
L 286.757304 199.08523 
L 287.464517 203.771554 
L 288.171731 157.25823 
L 288.878944 220.608994 
L 289.586158 159.51183 
L 290.293371 217.139032 
L 291.000585 185.376172 
L 291.707798 192.14114 
L 292.415012 197.177376 
L 293.122225 180.514892 
L 293.829439 176.349271 
L 294.536652 218.70114 
L 295.243866 184.505557 
L 295.951079 201.517953 
L 296.658293 164.718857 
L 297.365506 217.139032 
L 298.07272 184.334766 
L 298.779933 205.158706 
L 299.487147 164.723022 
L 300.19436 198.739484 
L 300.901574 199.08523 
L 301.608787 191.449647 
L 302.316 192.145306 
L 303.023214 205.679408 
L 303.730427 159.515996 
L 304.437641 224.945406 
L 305.144854 159.515996 
L 305.852068 213.83986 
L 307.266495 173.225055 
L 307.973708 276.499132 
L 308.680922 198.91444 
L 309.388135 184.15981 
L 310.095349 205.333662 
L 310.802562 253.238304 
L 311.509776 201.692909 
L 312.216989 184.680513 
L 312.924203 198.910274 
L 313.631416 185.201215 
L 314.33863 198.91444 
L 315.045843 184.505557 
L 315.753057 199.089396 
L 316.46027 184.680513 
L 317.167483 199.260186 
L 317.874697 184.505557 
L 318.58191 199.08523 
L 319.289124 184.680513 
L 319.996337 199.089396 
L 320.703551 184.505557 
L 321.410764 199.260186 
L 322.117978 184.505557 
L 322.825191 199.260186 
L 323.532405 184.509722 
L 324.239618 199.08523 
L 324.946832 184.505557 
L 325.654045 199.260186 
L 326.361259 184.680513 
L 327.068472 198.91444 
L 327.775686 184.680513 
L 328.482899 199.08523 
L 329.190113 184.509722 
L 329.897326 199.260186 
L 330.60454 184.505557 
L 331.311753 199.08523 
L 332.018967 184.509722 
L 332.72618 199.430977 
L 333.433393 184.509722 
L 334.140607 199.08523 
L 334.84782 184.505557 
L 335.555034 199.260186 
L 336.262247 184.509722 
L 336.969461 199.260186 
L 337.676674 184.330601 
L 338.383888 199.260186 
L 339.091101 184.334766 
L 339.798315 199.435142 
L 340.505528 184.505557 
L 341.212742 199.08523 
L 341.919955 184.680513 
L 342.627169 199.260186 
L 343.334382 184.15981 
L 344.041596 199.435142 
L 344.748809 184.680513 
L 345.456023 199.08523 
L 346.163236 184.334766 
L 346.87045 198.739484 
L 347.577663 185.026259 
L 348.284877 199.260186 
L 348.99209 184.680513 
L 349.699303 199.089396 
L 350.406517 184.680513 
L 351.11373 199.08523 
L 351.820944 184.505557 
L 352.528157 199.260186 
L 353.235371 184.334766 
L 353.942584 199.260186 
L 354.649798 184.680513 
L 355.357011 198.91444 
L 356.064225 184.680513 
L 356.771438 199.260186 
L 357.478652 184.505557 
L 359.600292 199.089396 
L 360.307506 184.505557 
L 361.014719 199.260186 
L 361.721933 184.334766 
L 362.429146 199.260186 
L 363.13636 184.680513 
L 363.843573 199.08523 
L 364.550787 184.505557 
L 365.258 199.260186 
L 365.965213 182.772658 
L 366.672427 200.822294 
L 367.37964 184.680513 
L 368.086854 199.08523 
L 368.794067 184.855469 
L 369.501281 197.177376 
L 370.208494 186.588367 
L 370.915708 198.739484 
L 371.622921 177.740588 
L 372.330135 206.200111 
L 373.037348 183.293361 
L 373.744562 200.301592 
L 374.451775 184.680513 
L 375.158989 199.08523 
L 375.866202 184.509722 
L 376.573416 199.08523 
L 377.280629 183.118405 
L 377.987843 200.647338 
L 378.695056 184.334766 
L 379.40227 199.260186 
L 380.109483 184.680513 
L 380.816696 199.260186 
L 381.52391 184.505557 
L 382.231123 199.260186 
L 382.938337 184.334766 
L 383.64555 199.260186 
L 384.352764 184.505557 
L 385.059977 199.260186 
L 385.767191 184.509722 
L 386.474404 199.08523 
L 387.181618 169.40518 
L 387.888831 151.530501 
L 388.596045 187.629772 
L 389.303258 199.089396 
L 390.010472 182.422746 
L 390.717685 201.8637 
L 391.424899 155.000463 
L 392.132112 222.516849 
L 392.839326 214.535519 
L 393.546539 192.666008 
L 394.253753 214.010651 
L 395.66818 184.680513 
L 396.375393 199.260186 
L 397.082606 157.774767 
L 397.78982 225.816021 
L 398.497033 184.509722 
L 399.204247 199.260186 
L 399.91146 184.505557 
L 400.618674 199.260186 
L 401.325887 184.334766 
L 402.033101 199.430977 
L 402.740314 184.334766 
L 403.447528 199.260186 
L 404.154741 184.334766 
L 404.861955 199.260186 
L 405.569168 184.505557 
L 406.276382 199.435142 
L 406.983595 184.505557 
L 407.690809 199.08523 
L 408.398022 184.334766 
L 409.105236 199.435142 
L 409.812449 184.330601 
L 410.519663 199.435142 
L 411.226876 184.505557 
L 411.93409 199.089396 
L 412.641303 184.680513 
L 413.348516 199.08523 
L 414.05573 184.505557 
L 414.762943 199.260186 
L 414.762943 199.260186 
" style="fill:none;stroke:#9467bd;stroke-linecap:square;stroke-width:1.5;"/>
   </g>
   <g id="patch_3">
    <path d="M 57.6 307.584 
L 57.6 41.472 
" style="fill:none;stroke:#000000;stroke-linecap:square;stroke-linejoin:miter;stroke-width:0.8;"/>
   </g>
   <g id="patch_4">
    <path d="M 414.72 307.584 
L 414.72 41.472 
" style="fill:none;stroke:#000000;stroke-linecap:square;stroke-linejoin:miter;stroke-width:0.8;"/>
   </g>
   <g id="patch_5">
    <path d="M 57.6 307.584 
L 414.72 307.584 
" style="fill:none;stroke:#000000;stroke-linecap:square;stroke-linejoin:miter;stroke-width:0.8;"/>
   </g>
   <g id="patch_6">
    <path d="M 57.6 41.472 
L 414.72 41.472 
" style="fill:none;stroke:#000000;stroke-linecap:square;stroke-linejoin:miter;stroke-width:0.8;"/>
   </g>
   <g id="text_14">
    <!-- Granularity measurement -->
    <defs>
     <path d="M 59.515625 10.40625 
L 59.515625 29.984375 
L 43.40625 29.984375 
L 43.40625 38.09375 
L 69.28125 38.09375 
L 69.28125 6.78125 
Q 63.578125 2.734375 56.6875 0.65625 
Q 49.8125 -1.421875 42 -1.421875 
Q 24.90625 -1.421875 15.25 8.5625 
Q 5.609375 18.5625 5.609375 36.375 
Q 5.609375 54.25 15.25 64.234375 
Q 24.90625 74.21875 42 74.21875 
Q 49.125 74.21875 55.546875 72.453125 
Q 61.96875 70.703125 67.390625 67.28125 
L 67.390625 56.78125 
Q 61.921875 61.421875 55.765625 63.765625 
Q 49.609375 66.109375 42.828125 66.109375 
Q 29.4375 66.109375 22.71875 58.640625 
Q 16.015625 51.171875 16.015625 36.375 
Q 16.015625 21.625 22.71875 14.15625 
Q 29.4375 6.6875 42.828125 6.6875 
Q 48.046875 6.6875 52.140625 7.59375 
Q 56.25 8.5 59.515625 10.40625 
z
" id="DejaVuSans-71"/>
    </defs>
    <g transform="translate(158.619375 35.472)scale(0.12 -0.12)">
     <use xlink:href="#DejaVuSans-71"/>
     <use x="77.490234" xlink:href="#DejaVuSans-114"/>
     <use x="118.603516" xlink:href="#DejaVuSans-97"/>
     <use x="179.882812" xlink:href="#DejaVuSans-110"/>
     <use x="243.261719" xlink:href="#DejaVuSans-117"/>
     <use x="306.640625" xlink:href="#DejaVuSans-108"/>
     <use x="334.423828" xlink:href="#DejaVuSans-97"/>
     <use x="395.703125" xlink:href="#DejaVuSans-114"/>
     <use x="436.816406" xlink:href="#DejaVuSans-105"/>
     <use x="464.599609" xlink:href="#DejaVuSans-116"/>
     <use x="503.808594" xlink:href="#DejaVuSans-121"/>
     <use x="562.988281" xlink:href="#DejaVuSans-32"/>
     <use x="594.775391" xlink:href="#DejaVuSans-109"/>
     <use x="692.1875" xlink:href="#DejaVuSans-101"/>
     <use x="753.710938" xlink:href="#DejaVuSans-97"/>
     <use x="814.990234" xlink:href="#DejaVuSans-115"/>
     <use x="867.089844" xlink:href="#DejaVuSans-117"/>
     <use x="930.46875" xlink:href="#DejaVuSans-114"/>
     <use x="969.332031" xlink:href="#DejaVuSans-101"/>
     <use x="1030.855469" xlink:href="#DejaVuSans-109"/>
     <use x="1128.267578" xlink:href="#DejaVuSans-101"/>
     <use x="1189.791016" xlink:href="#DejaVuSans-110"/>
     <use x="1253.169922" xlink:href="#DejaVuSans-116"/>
    </g>
   </g>
   <g id="legend_1">
    <g id="patch_7">
     <path d="M 289.815313 302.584 
L 407.72 302.584 
Q 409.72 302.584 409.72 300.584 
L 409.72 226.80275 
Q 409.72 224.80275 407.72 224.80275 
L 289.815313 224.80275 
Q 287.815313 224.80275 287.815313 226.80275 
L 287.815313 300.584 
Q 287.815313 302.584 289.815313 302.584 
z
" style="fill:#ffffff;opacity:0.8;stroke:#cccccc;stroke-linejoin:miter;"/>
    </g>
    <g id="line2d_17">
     <path d="M 291.815313 232.901187 
L 311.815313 232.901187 
" style="fill:none;stroke:#1f77b4;stroke-linecap:square;stroke-width:1.5;"/>
    </g>
    <g id="line2d_18"/>
    <g id="text_15">
     <!-- controller_1 -->
     <defs>
      <path d="M 30.609375 48.390625 
Q 23.390625 48.390625 19.1875 42.75 
Q 14.984375 37.109375 14.984375 27.296875 
Q 14.984375 17.484375 19.15625 11.84375 
Q 23.34375 6.203125 30.609375 6.203125 
Q 37.796875 6.203125 41.984375 11.859375 
Q 46.1875 17.53125 46.1875 27.296875 
Q 46.1875 37.015625 41.984375 42.703125 
Q 37.796875 48.390625 30.609375 48.390625 
z
M 30.609375 56 
Q 42.328125 56 49.015625 48.375 
Q 55.71875 40.765625 55.71875 27.296875 
Q 55.71875 13.875 49.015625 6.21875 
Q 42.328125 -1.421875 30.609375 -1.421875 
Q 18.84375 -1.421875 12.171875 6.21875 
Q 5.515625 13.875 5.515625 27.296875 
Q 5.515625 40.765625 12.171875 48.375 
Q 18.84375 56 30.609375 56 
z
" id="DejaVuSans-111"/>
      <path d="M 50.984375 -16.609375 
L 50.984375 -23.578125 
L -0.984375 -23.578125 
L -0.984375 -16.609375 
z
" id="DejaVuSans-95"/>
     </defs>
     <g transform="translate(319.815313 236.401187)scale(0.1 -0.1)">
      <use xlink:href="#DejaVuSans-99"/>
      <use x="54.980469" xlink:href="#DejaVuSans-111"/>
      <use x="116.162109" xlink:href="#DejaVuSans-110"/>
      <use x="179.541016" xlink:href="#DejaVuSans-116"/>
      <use x="218.75" xlink:href="#DejaVuSans-114"/>
      <use x="257.613281" xlink:href="#DejaVuSans-111"/>
      <use x="318.794922" xlink:href="#DejaVuSans-108"/>
      <use x="346.578125" xlink:href="#DejaVuSans-108"/>
      <use x="374.361328" xlink:href="#DejaVuSans-101"/>
      <use x="435.884766" xlink:href="#DejaVuSans-114"/>
      <use x="476.998047" xlink:href="#DejaVuSans-95"/>
      <use x="526.998047" xlink:href="#DejaVuSans-49"/>
     </g>
    </g>
    <g id="line2d_19">
     <path d="M 291.815313 247.857437 
L 311.815313 247.857437 
" style="fill:none;stroke:#ff7f0e;stroke-linecap:square;stroke-width:1.5;"/>
    </g>
    <g id="line2d_20"/>
    <g id="text_16">
     <!-- controller_2 -->
     <g transform="translate(319.815313 251.357437)scale(0.1 -0.1)">
      <use xlink:href="#DejaVuSans-99"/>
      <use x="54.980469" xlink:href="#DejaVuSans-111"/>
      <use x="116.162109" xlink:href="#DejaVuSans-110"/>
      <use x="179.541016" xlink:href="#DejaVuSans-116"/>
      <use x="218.75" xlink:href="#DejaVuSans-114"/>
      <use x="257.613281" xlink:href="#DejaVuSans-111"/>
      <use x="318.794922" xlink:href="#DejaVuSans-108"/>
      <use x="346.578125" xlink:href="#DejaVuSans-108"/>
      <use x="374.361328" xlink:href="#DejaVuSans-101"/>
      <use x="435.884766" xlink:href="#DejaVuSans-114"/>
      <use x="476.998047" xlink:href="#DejaVuSans-95"/>
      <use x="526.998047" xlink:href="#DejaVuSans-50"/>
     </g>
    </g>
    <g id="line2d_21">
     <path d="M 291.815313 262.813688 
L 311.815313 262.813688 
" style="fill:none;stroke:#2ca02c;stroke-linecap:square;stroke-width:1.5;"/>
    </g>
    <g id="line2d_22"/>
    <g id="text_17">
     <!-- controller_3 -->
     <g transform="translate(319.815313 266.313688)scale(0.1 -0.1)">
      <use xlink:href="#DejaVuSans-99"/>
      <use x="54.980469" xlink:href="#DejaVuSans-111"/>
      <use x="116.162109" xlink:href="#DejaVuSans-110"/>
      <use x="179.541016" xlink:href="#DejaVuSans-116"/>
      <use x="218.75" xlink:href="#DejaVuSans-114"/>
      <use x="257.613281" xlink:href="#DejaVuSans-111"/>
      <use x="318.794922" xlink:href="#DejaVuSans-108"/>
      <use x="346.578125" xlink:href="#DejaVuSans-108"/>
      <use x="374.361328" xlink:href="#DejaVuSans-101"/>
      <use x="435.884766" xlink:href="#DejaVuSans-114"/>
      <use x="476.998047" xlink:href="#DejaVuSans-95"/>
      <use x="526.998047" xlink:href="#DejaVuSans-51"/>
     </g>
    </g>
    <g id="line2d_23">
     <path d="M 291.815313 277.769937 
L 311.815313 277.769937 
" style="fill:none;stroke:#d62728;stroke-linecap:square;stroke-width:1.5;"/>
    </g>
    <g id="line2d_24"/>
    <g id="text_18">
     <!-- input_generator -->
     <defs>
      <path d="M 18.109375 8.203125 
L 18.109375 -20.796875 
L 9.078125 -20.796875 
L 9.078125 54.6875 
L 18.109375 54.6875 
L 18.109375 46.390625 
Q 20.953125 51.265625 25.265625 53.625 
Q 29.59375 56 35.59375 56 
Q 45.5625 56 51.78125 48.09375 
Q 58.015625 40.1875 58.015625 27.296875 
Q 58.015625 14.40625 51.78125 6.484375 
Q 45.5625 -1.421875 35.59375 -1.421875 
Q 29.59375 -1.421875 25.265625 0.953125 
Q 20.953125 3.328125 18.109375 8.203125 
z
M 48.6875 27.296875 
Q 48.6875 37.203125 44.609375 42.84375 
Q 40.53125 48.484375 33.40625 48.484375 
Q 26.265625 48.484375 22.1875 42.84375 
Q 18.109375 37.203125 18.109375 27.296875 
Q 18.109375 17.390625 22.1875 11.75 
Q 26.265625 6.109375 33.40625 6.109375 
Q 40.53125 6.109375 44.609375 11.75 
Q 48.6875 17.390625 48.6875 27.296875 
z
" id="DejaVuSans-112"/>
     </defs>
     <g transform="translate(319.815313 281.269937)scale(0.1 -0.1)">
      <use xlink:href="#DejaVuSans-105"/>
      <use x="27.783203" xlink:href="#DejaVuSans-110"/>
      <use x="91.162109" xlink:href="#DejaVuSans-112"/>
      <use x="154.638672" xlink:href="#DejaVuSans-117"/>
      <use x="218.017578" xlink:href="#DejaVuSans-116"/>
      <use x="257.226562" xlink:href="#DejaVuSans-95"/>
      <use x="307.226562" xlink:href="#DejaVuSans-103"/>
      <use x="370.703125" xlink:href="#DejaVuSans-101"/>
      <use x="432.226562" xlink:href="#DejaVuSans-110"/>
      <use x="495.605469" xlink:href="#DejaVuSans-101"/>
      <use x="557.128906" xlink:href="#DejaVuSans-114"/>
      <use x="598.242188" xlink:href="#DejaVuSans-97"/>
      <use x="659.521484" xlink:href="#DejaVuSans-116"/>
      <use x="698.730469" xlink:href="#DejaVuSans-111"/>
      <use x="759.912109" xlink:href="#DejaVuSans-114"/>
     </g>
    </g>
    <g id="line2d_25">
     <path d="M 291.815313 292.726187 
L 311.815313 292.726187 
" style="fill:none;stroke:#9467bd;stroke-linecap:square;stroke-width:1.5;"/>
    </g>
    <g id="line2d_26"/>
    <g id="text_19">
     <!-- vehicle_emulator -->
     <defs>
      <path d="M 2.984375 54.6875 
L 12.5 54.6875 
L 29.59375 8.796875 
L 46.6875 54.6875 
L 56.203125 54.6875 
L 35.6875 0 
L 23.484375 0 
z
" id="DejaVuSans-118"/>
      <path d="M 54.890625 33.015625 
L 54.890625 0 
L 45.90625 0 
L 45.90625 32.71875 
Q 45.90625 40.484375 42.875 44.328125 
Q 39.84375 48.1875 33.796875 48.1875 
Q 26.515625 48.1875 22.3125 43.546875 
Q 18.109375 38.921875 18.109375 30.90625 
L 18.109375 0 
L 9.078125 0 
L 9.078125 75.984375 
L 18.109375 75.984375 
L 18.109375 46.1875 
Q 21.34375 51.125 25.703125 53.5625 
Q 30.078125 56 35.796875 56 
Q 45.21875 56 50.046875 50.171875 
Q 54.890625 44.34375 54.890625 33.015625 
z
" id="DejaVuSans-104"/>
     </defs>
     <g transform="translate(319.815313 296.226187)scale(0.1 -0.1)">
      <use xlink:href="#DejaVuSans-118"/>
      <use x="59.179688" xlink:href="#DejaVuSans-101"/>
      <use x="120.703125" xlink:href="#DejaVuSans-104"/>
      <use x="184.082031" xlink:href="#DejaVuSans-105"/>
      <use x="211.865234" xlink:href="#DejaVuSans-99"/>
      <use x="266.845703" xlink:href="#DejaVuSans-108"/>
      <use x="294.628906" xlink:href="#DejaVuSans-101"/>
      <use x="356.152344" xlink:href="#DejaVuSans-95"/>
      <use x="406.152344" xlink:href="#DejaVuSans-101"/>
      <use x="467.675781" xlink:href="#DejaVuSans-109"/>
      <use x="565.087891" xlink:href="#DejaVuSans-117"/>
      <use x="628.466797" xlink:href="#DejaVuSans-108"/>
      <use x="656.25" xlink:href="#DejaVuSans-97"/>
      <use x="717.529297" xlink:href="#DejaVuSans-116"/>
      <use x="756.738281" xlink:href="#DejaVuSans-111"/>
      <use x="817.919922" xlink:href="#DejaVuSans-114"/>
     </g>
    </g>
   </g>
  </g>
 </g>
 <defs>
  <clipPath id="p5dbf46c487">
   <rect height="266.112" width="357.12" x="57.6" y="41.472"/>
  </clipPath>
 </defs>
</svg>
